<svg id="Capa_1" enable-background="new 0 0 512 512" height="512" viewBox="0 0 512 512" width="512" xmlns="http://www.w3.org/2000/svg"><g><g><path d="m442.866 177.745c-48.875 16.982-92.798 18.37-98.103 3.1-5.306-15.27 30.014-41.416 78.89-58.398 24.438-8.491 79.65-11.912 84.454 1.913s-40.803 44.894-65.241 53.385z" fill="#78eac4"/><path d="m334.076 68.532c-17.171 48.809-18.729 92.726-3.48 98.091s41.532-29.854 58.703-78.663c8.856-25.174 14.342-83.521-.164-87.733-13.62-3.954-46.744 44.67-55.059 68.305z" fill="#78eac4"/><path d="m351.91 85.997c-8.767-3.084-12.218-17.317-9.677-35.026-3.545 6.479-6.404 12.577-8.158 17.561-5.903 16.778-9.96 32.978-12.125 47.232-1.18 7.775-1.798 14.972-1.844 21.368-.008 1.066.001 2.11.025 3.13.096 4.082.447 7.791 1.055 11.063 1.519 8.179 4.643 13.62 9.409 15.297 4.289 1.509 9.451-.192 15.037-4.503 11.973-9.754 20.066-23.274 27.464-36.802 5.823-10.977 11.373-23.629 16.202-37.357 1.332-3.786 2.587-8.327 3.71-13.317 3.82-24.246-30.699 15.013-41.098 11.354z" fill="#71afc4"/><path d="m458.756 170.648c-20.526 3.466-37.383-.355-40.908-10.501-3.806-10.955 37.913-42.476 21.344-41.686-5.85 1.122-11.184 2.473-15.539 3.986-48.875 16.982-84.195 43.128-78.89 58.398.166.477.369.938.609 1.383 6.245 11.562 37.289 12.149 75.075 2.331 7.267-1.888 14.782-4.161 22.419-6.814.425-.148.831-.3 1.253-.449 4.396-1.617 9.402-3.904 14.637-6.648z" fill="#71afc4"/><path d="m431.798 131.681c-36.794 36.651-78.899 54.036-94.046 38.831s2.401-57.244 39.195-93.895 71.091-46.259 86.238-31.053c15.146 15.206 5.406 49.466-31.387 86.117z" fill="#bdf4e3"/><path d="m366.722 139.169c-13.532-13.585 2.935-49.975 21.881-73.333-3.844 3.295-7.735 6.875-11.656 10.781-36.794 36.651-54.342 78.689-39.195 93.895s57.252-2.18 94.046-38.831c3.921-3.906 7.516-7.782 10.826-11.614-23.431 18.855-62.37 32.687-75.902 19.102z" fill="#b1b7e3"/><path d="m377.932 208.516c18.348 39.633 12.94 83.317-68.356 157.436-112.374 102.454-263.413 172.647-297.548 136.376s39.363-185.997 137.441-297.08c71.654-81.155 120.756-85.874 157.89-67.703 27.896 13.421 61.278 47.368 70.573 70.971z" fill="#ffa585"/><path d="m377.932 208.516c-9.295-23.603-42.677-57.55-70.573-70.971-34.292-16.781-78.792-14.036-141.832 50.395 49.073-47.672 83.048-50.448 108.947-38.511 21.917 9.915 47.622 36.083 54.365 54.685 13.514 31.155 7.91 66.245-59.278 127.893-92.873 85.215-215.727 145.766-241.966 117.762-14.602-15.584-1.507-60.246 27.051-112.594-42.989 74.698-64.08 142.35-42.619 165.154 34.135 36.271 185.175-33.923 297.548-136.376 81.297-74.119 86.705-117.804 68.357-157.437z" fill="#ef7c85"/><g><path d="m264.184 178.432c-4.359 0-8.424-2.749-9.895-7.107-1.845-5.466 1.09-11.392 6.555-13.237 1.934-.653 3.893-1.259 5.82-1.802 5.552-1.564 11.321 1.671 12.884 7.224s-1.671 11.321-7.224 12.884c-1.586.446-3.2.946-4.798 1.486-1.108.374-2.235.552-3.342.552z" fill="#fff"/></g><g><path d="m181.339 237.839c-2.654 0-5.307-1.005-7.343-3.018-4.102-4.056-4.14-10.669-.084-14.771 12.82-12.966 32.384-31.793 54.18-45.539 4.879-3.077 11.329-1.616 14.407 3.263 3.077 4.879 1.616 11.329-3.263 14.407-19.98 12.601-38.373 30.323-50.469 42.557-2.043 2.066-4.736 3.101-7.428 3.101z" fill="#fff"/></g><g><path d="m128.98 377.375c-2.344 0-4.702-.785-6.65-2.395l-61.66-50.971c-4.446-3.676-5.07-10.259-1.395-14.705 3.676-4.447 10.26-5.07 14.705-1.395l61.661 50.971c4.446 3.676 5.07 10.259 1.395 14.705-2.065 2.498-5.049 3.79-8.056 3.79z" fill="#be545e"/></g><g><path d="m187.617 320.801c-2.39 0-4.792-.815-6.756-2.484l-70.956-60.267c-4.397-3.734-4.934-10.325-1.199-14.722 3.734-4.396 10.325-4.934 14.722-1.199l70.956 60.267c4.397 3.734 4.934 10.326 1.199 14.722-2.066 2.432-5.007 3.683-7.966 3.683z" fill="#be545e"/></g><g><path d="m260.557 367.112c-.444 0-.895-.047-1.346-.146-3.381-.74-5.522-4.081-4.782-7.462l2.397-10.954c.74-3.381 4.079-5.525 7.462-4.782 3.381.74 5.522 4.081 4.782 7.462l-2.397 10.954c-.641 2.929-3.235 4.928-6.116 4.928z" fill="#be545e"/></g><g><path d="m225.276 391.652c-.444 0-.895-.047-1.346-.146-3.381-.74-5.522-4.081-4.782-7.462l2.397-10.954c.74-3.38 4.08-5.523 7.462-4.782 3.381.74 5.522 4.081 4.782 7.462l-2.397 10.954c-.641 2.929-3.235 4.928-6.116 4.928z" fill="#be545e"/></g><g><path d="m134.215 442.957c-.444 0-.895-.048-1.346-.146-3.381-.74-5.522-4.081-4.782-7.462l2.397-10.954c.74-3.38 4.078-5.524 7.462-4.782 3.381.74 5.522 4.081 4.782 7.462l-2.397 10.954c-.641 2.929-3.235 4.928-6.116 4.928z" fill="#be545e"/></g></g><path d="m178.353 13.24 8.58 24.125c.367 1.033 1.095 1.851 2.012 2.265l21.434 9.657c3.028 1.364 3.028 6.189 0 7.553l-21.434 9.657c-.918.414-1.645 1.232-2.012 2.265l-8.58 24.125c-1.212 3.408-5.499 3.408-6.711 0l-8.58-24.125c-.367-1.033-1.095-1.851-2.012-2.265l-21.434-9.657c-3.028-1.364-3.028-6.189 0-7.553l21.434-9.657c.918-.414 1.645-1.232 2.012-2.265l8.58-24.125c1.212-3.409 5.499-3.409 6.711 0z" fill="#ffc7b6"/><path d="m54.292 157.213 6.364 17.896c.273.766.812 1.373 1.493 1.68l15.9 7.163c2.246 1.012 2.246 4.591 0 5.603l-15.9 7.163c-.681.307-1.22.914-1.493 1.68l-6.364 17.896c-.899 2.528-4.079 2.528-4.978 0l-6.364-17.896c-.273-.766-.812-1.373-1.493-1.68l-15.9-7.163c-2.246-1.012-2.246-4.591 0-5.603l15.9-7.163c.681-.307 1.22-.914 1.493-1.68l6.364-17.896c.9-2.529 4.079-2.529 4.978 0z" fill="#ffc7b6"/><ellipse cx="464.962" cy="269.793" fill="#ffa585" rx="18.735" ry="18.735" transform="matrix(.161 -.987 .987 .161 123.795 685.225)"/><ellipse cx="66.371" cy="85.715" fill="#ffa585" rx="8.082" ry="8.082" transform="matrix(.923 -.385 .385 .923 -27.855 32.109)"/><path d="m409.18 339.306 8.58 24.125c.367 1.033 1.095 1.851 2.012 2.265l21.434 9.657c3.028 1.364 3.028 6.189 0 7.553l-21.434 9.657c-.918.414-1.645 1.232-2.012 2.265l-8.58 24.125c-1.212 3.408-5.499 3.408-6.711 0l-8.58-24.125c-.367-1.033-1.095-1.851-2.012-2.265l-21.434-9.657c-3.028-1.364-3.028-6.189 0-7.553l21.434-9.657c.918-.414 1.645-1.232 2.012-2.265l8.58-24.125c1.212-3.409 5.499-3.409 6.711 0z" fill="#ffc7b6"/></g></svg>