<svg id="Layer_1" data-name="Layer 1" xmlns="http://www.w3.org/2000/svg" viewBox="0 0 400 400"><path d="M35.18,198.79c-.09,1.53.47,1,.56,1.21C35.69,197.45,35,198.85,35.18,198.79Z" fill="#202020"/><polygon points="36.05 173.46 36.19 173.94 36.31 170.15 36.05 173.46" fill="#202020"/><path d="M41.49,150.33c-.78.93-1.32,3-1.87,5.37s-1,5-1.62,7l-.37.64.3,2c.25-1.26.51-2.62.78-4s.48-2.8.84-4.14A64.72,64.72,0,0,1,41.49,150.33Z" fill="#202020"/><path d="M47.64,139.14c-.62.59.7-2.63-1.18,2.68.14-.25.19-.32.28-.46C46.92,140.89,47.18,140.24,47.64,139.14Z" fill="#202020"/><path d="M46.74,141.36c-.88,2.31.88-1.4,0,0Z" fill="#202020"/><path d="M51,130.75l-1,3.11c.47-.54,1.71-3.15,1.41-2.11C52.58,128.64,52.11,129.17,51,130.75Z" fill="#202020"/><path d="M51.71,127.66c-.22.52-.43,1-.62,1.58A3.39,3.39,0,0,0,51.71,127.66Z" fill="#202020"/><path d="M49.88,132.64l1.21-3.4c-.33.37-.62.29-.58,1.55C50.38,130.41,50.33,131.17,49.88,132.64Z" fill="#202020"/><path d="M48.91,134.44c-.48.79-1,1.72-1.21,2.07s-.29.08.23-1.49c-1.15,2.92-1.42,4.26-1.2,4.1a4.83,4.83,0,0,0,.74-1.32C47.81,137,48.29,135.87,48.91,134.44Z" fill="#202020"/><path d="M41,148.88c-.35.76-.71,1.52-1,2.29l-.29,2.17a20.88,20.88,0,0,1,.79-2.67C40.8,149.68,41.13,148.86,41,148.88Z" fill="#202020"/><path d="M61.11,113.16c0-.28-1,.64-1.38.72-.39.71-.71,1.45-1,2.18C59.38,115,60.78,113.14,61.11,113.16Z" fill="#202020"/><path d="M59.73,113.88l1.66-3.23C59.61,113.35,59.43,113.94,59.73,113.88Z" fill="#202020"/><path d="M51.05,126.68l-.52,1.41-.45,1.44-.91,2.86c.76-2.25,1.49-4.54,2.4-6.74Z" fill="#202020"/><path d="M68.88,101.83c-.29.64-.55,1.29-.82,1.93l.77-1.68.85-1.64Z" fill="#202020"/><path d="M74.5,94.66c-.7,1.38,1.84-1.14,1,.21a59.46,59.46,0,0,0,3.74-5.33A39.52,39.52,0,0,1,74.5,94.66Z" fill="#202020"/><path d="M81.11,86.94c-.63.79-1.23,1.66-1.89,2.6A27.42,27.42,0,0,0,81.11,86.94Z" fill="#202020"/><path d="M64.91,105.59a7,7,0,0,0,2.11-2l-1.27.83Z" fill="#202020"/><path d="M65.7,104.46l0,0,1.8-2.49Z" fill="#202020"/><path d="M64.7,105.88l.21-.29A.4.4,0,0,0,64.7,105.88Z" fill="#202020"/><path d="M56,118.5c.79-2,2.73-6.06.17-2.54C55.71,117.48,57.17,115.47,56,118.5Z" fill="#202020"/><path d="M63.1,106.93c-.78,1-1.47,2.11-2.21,3.16.16,0,.72-.45.28.52C61.81,109.39,62.41,108.13,63.1,106.93Z" fill="#202020"/><polygon points="64.06 105.29 63.1 106.93 63.97 105.79 64.06 105.29" fill="#202020"/><path d="M76.3,91.43a25.2,25.2,0,0,1,1.54-2.13c.59-.7,1.26-1.4,2-2.16-.79.76-1.62,1.52-2.37,2.35s-1.49,1.65-2.2,2.47C75.15,92.3,74.77,93.22,76.3,91.43Z" fill="#202020"/><path d="M71,97.6l.2-.31C71,97.44,70.85,97.57,71,97.6Z" fill="#202020"/><path d="M94.47,73.27l-.31.13a.53.53,0,0,1,0,.13Z" fill="#202020"/><path d="M74.9,92.17A13.23,13.23,0,0,0,72.71,95c.76-1,1.59-2,2.51-3.05C75.25,91.8,75.23,91.75,74.9,92.17Z" fill="#202020"/><path d="M84.85,82.74a22.3,22.3,0,0,0-2.23,1.8A13.18,13.18,0,0,0,84.85,82.74Z" fill="#202020"/><path d="M71.61,96.94l-.13.21C71.91,96.8,71.82,96.82,71.61,96.94Z" fill="#202020"/><path d="M71.61,96.94c.47-.71.77-1.33,1.1-1.93-.6.82-1.12,1.59-1.56,2.28A5.13,5.13,0,0,1,71.61,96.94Z" fill="#202020"/><path d="M97.08,66.63c0,.3-.74,1.23-1.94,2.32-.6.55-1.32,1.12-2.07,1.71a23.6,23.6,0,0,1-2.35,1.72c-2.59,2.76.4,2.4,3.44,1,0-.23-.24-.46,2.59-3-1.29.53-6.93,5-4.78,2.49a16.15,16.15,0,0,1,3.32-2.74A22.14,22.14,0,0,0,97.4,69c-1,.4.1-.78,1.31-2.08s2.58-2.61,1.84-2.68c-1.18.93-2.27,2-3.39,3C97,67.16,98.15,66,97.08,66.63Z" fill="#202020"/><path d="M88.67,78.13l-1.09,1.12a27.15,27.15,0,0,1,4.48-3.09c1.8-1.88,2.08-2.39,2.11-2.63-1.94,1.68-4,3.29-5.84,5Z" fill="#202020"/><path d="M82.53,84.14c.41-1.31,3-4,.92-2.89A11.85,11.85,0,0,0,81,84.08a10.92,10.92,0,0,1-1.28,2c5-5.48-1.24,1.76,2.69-1.9-.94,1.12-1.82,2.09-2.66,3,1-.92,1.92-1.79,2.83-2.6l-.15.1,0,0h0c-.27.18-.37.23-.1,0l.1-.12a1,1,0,0,1,.08-.39c1.56-1.47.34-.14-.08.39,0,0,0,.1,0,.13l0,0c.8-.94,1.66-1.83,2.53-2.72l2.58-2.67C86.4,80.3,84.93,81.61,82.53,84.14Z" fill="#202020"/><path d="M57.17,111.89c.17-.17.2-.14.24-.14C57.61,111.31,57.67,111.13,57.17,111.89Z" fill="#202020"/><path d="M59.13,109.46a9.77,9.77,0,0,1-1.3,2.47c-1,1.21-.22-.15-.42-.18-.47,1-1.64,3.4.36.69L58,112c1.8-2.45,4.47-5.32,4.25-4.83A11.69,11.69,0,0,0,59.13,109.46Z" fill="#202020"/><path d="M70.24,95.89c1.18-1.72,2.5-3.32,3.79-5L71.58,93l.33.07C69.55,95.75,70.36,95.42,70.24,95.89Z" fill="#202020"/><path d="M95.18,73,95,74c.69-1,1.49-1.91,2.24-2.88Z" fill="#202020"/><path d="M101.44,68l.08.59c.49-.51,1-1,1.53-1.48Z" fill="#202020"/><path d="M347.22,287.18l-.82,1.7C346.82,288.09,347.06,287.56,347.22,287.18Z" fill="#202020"/><path d="M353.75,275.21l-.08-.41C353.51,275.42,353.48,275.7,353.75,275.21Z" fill="#202020"/><path d="M286.69,59.88c2,1.83,4,4,4.08,3.38l-.37-.91A28.19,28.19,0,0,1,286.69,59.88Z" fill="#202020"/><path d="M364.87,166.92l0-.81-.93-1.66C364.25,165.19,364.6,166,364.87,166.92Z" fill="#202020"/><path d="M367.5,168.36l.28,3.61C367.76,171.15,367.68,170,367.5,168.36Z" fill="#202020"/><path d="M297.08,341.61c-.48.58-1,1.17-1.5,1.72C298.45,341.39,297,342,297.08,341.61Z" fill="#202020"/><path d="M176.51,36.77c2.3-.07,4.1-.21,5.69-.38C179.44,36.41,177.17,36.21,176.51,36.77Z" fill="#202020"/><path d="M344.66,279.63c-.47,1-.61,1.49-.48,1.52C344.67,280.11,344.9,279.49,344.66,279.63Z" fill="#202020"/><path d="M188.75,35.84c-.41,0-.8,0-1.21,0-1.65.24-3.32.37-5.34.59A26.57,26.57,0,0,0,188.75,35.84Z" fill="#202020"/><path d="M58,295.77c-.08-.17-.2-.38-.27-.55C57.66,295.21,57.8,295.45,58,295.77Z" fill="#202020"/><path d="M36,222.07c.12.74.28,2,.43,3.09A28.76,28.76,0,0,0,36,222.07Z" fill="#202020"/><path d="M129.11,51.56c-1.51.77-.22.15,0,0Z" fill="#202020"/><path d="M120.69,53.34c.29-.22.5-.42.48-.56A1.27,1.27,0,0,1,120.69,53.34Z" fill="#202020"/><path d="M205.79,32.05h.15C205.42,31.93,205.51,32,205.79,32.05Z" fill="#202020"/><path d="M126.71,52.47c.6-.23,1.28-.51,2-.84C128.39,51.75,127.78,52,126.71,52.47Z" fill="#202020"/><path d="M127.14,52.55l-1.35.63C125.64,53.36,125.84,53.33,127.14,52.55Z" fill="#202020"/><path d="M131.25,50.55c-.88.41-1.72.76-2.53,1.08.32-.1.46-.13.39-.07Z" fill="#202020"/><path d="M177.73,368.22l-.37-.1C175.57,368.13,176.35,368.19,177.73,368.22Z" fill="#202020"/><path d="M325.06,84l-.16-.12.16.2Z" fill="#202020"/><path d="M329.58,88.4A19.54,19.54,0,0,1,325.06,84c.08.88.18,1.73.23,2.62Z" fill="#202020"/><path d="M328.12,313.6l3.31-3c-2.89,4.64-5.73,7.39-2.41,4.7-.22-.42.37-1.46,1.37-2.81s2.44-3,3.73-4.73,2.66-3.45,3.59-4.84,1.35-2.52,1.08-2.9l2-2.18c-.5.68-.5.85-1,1.52,4-4.18,1.38-4.21,5.57-10.22,1.45-2.1,2.52-3.55,1.84-1.92l2.47-5.17c.84-1.43.92-.93.07.49,1.38-2.55,2.59-5.19,3.89-7.78l0,.08c.33-1.23,1.05-4,1.46-5.3,1.14-1.9-.28,1.08.15.66.52-1.52,1.09-3,1.56-4.56.57-.82.6-.26.31.89a33.82,33.82,0,0,1-1.72,4.33,8.13,8.13,0,0,0,2.54-4.25,36.08,36.08,0,0,1,3.23-8.22c-.43,1.46-1,2.89-1.44,4.34a16.31,16.31,0,0,0,2.51-4.42c.73-1.78,1.49-3.83,2.62-6.21-.71,1.1-4.81,9.32-3.54,4.2a26.45,26.45,0,0,0,1.82-6c.61.16,1.22-2.55,2.13-5.88l.73.45a11.93,11.93,0,0,0,.41-3.42,17.76,17.76,0,0,1-.05-2.32c1-4,1.85-4.74,2.54-5.61,1.31-6.56-1.83,4.35-.59-3.46.32-1.35.58-2.61.81-3.83s.29-2.45.4-3.69a80.8,80.8,0,0,0,.33-8.43c.58-3.84.45.71.8-.65l-.4-3.47c.07-.84.26-.56.35-.41-.1-2.9-.8-.29-.9-4.82-.46-.62,0-2.92.29-5.79.13-1.44.24-3,.26-4.58a16.49,16.49,0,0,0-.45-4.51c.13-1.39.56.64.85.2-.64-3.84-.88-5.47-1.15-6.93s-.67-2.73-1.51-5.79c0-1.8-.07-3.6-.24-5.39.07,4-1.54-.88-2.91-5.05-.05,1.42-.1,2.63-.09,3.43L364,167c-.27-1.13-.65-2.23-1-3.34-.05-.85.38-.23,1,.81l-.48-1.2c-.26-2.49.49-1.35,1.35.3l.06,2.56c.8,1.59,1.64,3.09,2.05,2.65a18.26,18.26,0,0,1-.62-2.23c.21.42.38.68.43.46a6.82,6.82,0,0,0-.72-2l.54-1.76-.45-.3-.75-4.57c-.24-1.53-.63-3-.94-4.54-.68-1.53-1.36-3-2.07-4.49s-1.57-3-2.38-4.55c-.39-.81-.8-1.64-1.23-2.5l-1.39-2.69c-.47-.94-1-1.93-1.46-3s-1-2.17-1.58-3.32c1.68,2.07,1.25.07,2-.13a19.77,19.77,0,0,0,2,5.45c.5,1.07,1.1,2.18,1.6,3.39s1,2.47,1.36,3.77c-.83-2.72-.27-2.25.09-1.61-1.21-3-2.74-5.9-4.14-8.81.34,0,.27-.55,0-1.38s-.75-1.93-1.14-3.15c-.2,1.14-1.14-.42-2.28-2.69l-.89-1.79-1-1.84c-.66-1.21-1.29-2.36-1.83-3.18.27-.43,1.1.21,3.2,4.55-1.58-5.18-4.38-5.45-6.29-10.32a6.46,6.46,0,0,0,1.28,1.89,37.41,37.41,0,0,1-2.89-4.74c-.85-1.61-1.44-2.75-.84-2.2l.64,1c-1-1.67-2.33-3.75-3.75-5.94s-3.13-4.36-4.66-6.41-3.16-3.74-4.37-5S330.36,92,330,91.93a4,4,0,0,1,2.14.16c-3.95-2.77-7.87-5.45-12-7.83,1.53.23-.09-4.75,4.77-.43-.6-.72-1.26-1.53-2.15-2.48a29.69,29.69,0,0,0-3.53-3.28c.84,1,1.3,3.16,0,2a37.8,37.8,0,0,0-2.45-3.43c-.3-.38-.63-.78-1.12-1.37s-1.11-1.41-2.08-2.52c1.3,1.39-1.3,1.11-3.51-.87.5.14.77-1.27,1.7-.67l-3.3-1.89c-1.09-.62-2.25-1.17-3.36-1.75,1.62.94,1-.76,0-2.13.21.35-1.06-.65-2.59-1.89S299,61,298.19,60.5l2.39,2.12a22.47,22.47,0,0,0-7.39-4A32.87,32.87,0,0,1,290,57.42c-1.2-.51-2.54-1.29-4.34-2.3,1,.23,3.12-.35-.48-2.64l-2.42-.37-3.81-.65a64.47,64.47,0,0,1-9.77-2.55l-1.09-1c-1.75-.62-3.49-1.26-5.29-1.75a70.76,70.76,0,0,1,8.79,1.35c1.82.31,3.62.84,5.34,1.29s3.34.92,4.64,1.36c-2.64-1.77-.54-.86-4.78-3-1.32-1.13,2.58.64,3.84,1.26l-4.88-2.65-1.22-.66-1.25-.6-2.51-1.21c.05.5-2-.17-4-.86s-4.1-1.21-4-.8c3.86,1.1,7.58,2.59,11.37,3.94,0,.49-1.82.34-4.53-.35-1.36-.32-2.91-.86-4.61-1.38A54.51,54.51,0,0,1,259.65,42c-1.72-1,1.92-.92,1.88-1.24-.53,0-2.28-.65-4-1.13a26.9,26.9,0,0,1-3.74-1.28l3.3.62a27.66,27.66,0,0,0-5.65-1.54,23.9,23.9,0,0,1-6.22-1.84c-.87-.25-2.08-.94-3.16-1.39s-2-.82-2.22-.61c2.65,1.64,2.4,4.74.36,5l-4.86-1.7-1.78-.63-1.69-.54c-1.07-.35-2-.65-2.42-.86-2.77-1.29,4.68-1.06,2.34-2.16a7.44,7.44,0,0,1-2.51.19c-1.82-.53.9-.59-3.16-1.21-.81.78-8.27-1.13-2,.49a28,28,0,0,1-4.18-.52,29.7,29.7,0,0,0-4.7-.64c.72.34-.38.75-2.14,1.06a55.33,55.33,0,0,1-6.17.61c.24-.22-.64-.54-1.06-.68-2-.08-3.84-.16-5.51-.25l-4.75-.06c-1.54,0-3.05,0-4.66,0s-3.31.19-5.2.33c-.72-.18-4.41-.12-2.89-.64a24.31,24.31,0,0,1-4.38,1c-4.62-.18,5.2-.78,1.64-1.25-.23.58-6,1.37-9.21,2.39.58.32,2.47-.06,4.66-.44s4.65-.93,6.3-1.3c.07.54-1.31,1.28-3.67,2.07-1.17.41-2.6.77-4.19,1.24s-3.37,1-5.28,1.44c-3.05.65-3.72.73-3.8.52s.48-.52,0-.32a61.57,61.57,0,0,0-6.46,1.7c-1.54.6-2.62,1.14-3.64,1.64a27.43,27.43,0,0,1-3.3,1.42,48.83,48.83,0,0,1-5.28,1.61c-3.88.58-.62-1.25-1.6-1.45a40.49,40.49,0,0,1,6-1.89c1.73-.34,3.27-.6,4.93-1.09l-4.19.85a35.55,35.55,0,0,1,6.59-2.09,35,35,0,0,0-4.54,1c-1.05.27-2.23.58-3.48.94l-3.92,1.3c-1.35.46-2.77.9-4.17,1.41l-4.13,1.58c-1.36.53-2.71,1-3.94,1.5s-2.41,1-3.49,1.39c-1.38.88-3.83,2.25-2.5,2l2.59-1.28c2.64-.57-4.61,2.94-1.18,1.68-1.69.93-3.35,2.17-5.27,3.31-1,.58-2,1.16-3,1.74s-2.16,1.24-3.37,1.85l-1.28-.19c.22.15,3.3-1.35,4.5-2.32a30.68,30.68,0,0,1-4.74,2.41,24,24,0,0,0-2.73,1.41,6.73,6.73,0,0,0-1.82,1.63c1.16-.52,2.3-1.08,3.51-1.53-1.58,1.11-3.18,2.61-5,4-.88.72-1.83,1.38-2.75,2.11s-1.89,1.41-2.9,2c2.22-.61.84-.73,4.12-1.89-3.1.61,10.25-6.49,5.65-5a20.21,20.21,0,0,0,4.59-1.79,25,25,0,0,1,5.24-2.17c-.25-.16-1.66.29,1.94-1.41a7,7,0,0,1,.67-.6l.25-.11-.21.07c.14-.11.15-.12-.07,0a8.86,8.86,0,0,1-2,.57,25.3,25.3,0,0,1,4.38-2.83c1.87-1,3.79-1.91,4.71-2.5,2.21-.87-.79.69.51.41l1.37-.88,1.4-.81c.53.42,6.21-1.41,1.16.95l4.67-1.81c1.42-.39,3.14-.79,4.74-1.31s3.15-1.08,4.31-1.54c2.3-.52,5.56-2.25,3.7-1.25,1.25-.4,2.48-.84,3.74-1.23l3.78-1.06.11.13c3.76-.92,7.66-1.75,11.71-2.62a58.91,58.91,0,0,1,12.81-1c1.29-.17,2.61-.37,4.15-.51s3.32-.13,5.5-.1l.86.48a45.76,45.76,0,0,1,6.45.19,27.71,27.71,0,0,0,5,0,16,16,0,0,0,4.09.93c.88.12,1.84.21,2.85.3l3.14.37c2.14.26,4.38.4,6.41.72s3.9.63,5.33,1l.34-.61,1.49.27,1.48.32,3,.62,3.23.6c1.11.23,2.26.51,3.49.79l-.14-.65A37.93,37.93,0,0,1,252,42.88l4.54,1.79c1.55.65,3.13,1.34,4.73,1.95A10.59,10.59,0,0,1,258,45.38a37.19,37.19,0,0,0,5.7,2.7c1.95.83,3.94,1.61,5.93,2.35a61.28,61.28,0,0,1,5.77,2.44,27,27,0,0,1,5.07,3,18.9,18.9,0,0,1,3.9,2.25,3.9,3.9,0,0,0-.42-.2l.66.38c.67.49,1.32,1,2,1.62A13.37,13.37,0,0,0,285,58.47c1.25.7,3.09,1.85,5,2.87l.42,1,.42.25c1.63,1.32,1.58.66.9-.33,1,.47,1.83,1,2.54,1.29.41.91,1.6,1.65,2.85,2.44.62.4,1.26.81,1.83,1.26a5.44,5.44,0,0,1,1.3,1.56,44.25,44.25,0,0,1,5.08,3.31c2.11,1.6,4.25,3.13,5.05,3.09,0,.16.39.62-.49-.13A57,57,0,0,0,315,79.74L315.2,81l2.26,1.42,2.19,1.51c1.85,2.64,2.54,3.77-.07,1.92,1.47,1.21,2.5,2.07,3.27,2.77s1.26,1.25,1.75,1.74c1,1,1.89,1.88,4.33,4.06l-.59.08c1.43,1.8,4.27,4.29,4.79,5.64a54,54,0,0,0,3.35,5.46c.4.59.83,1.2,1.25,1.86s.85,1.35,1.29,2.06l2.85,4.49c3.75,6.36,7.65,13.83,9.82,20.09.15-1.46.66,0,1.22,1.85s1.11,4.11,1.76,4.14c-.05.85.43,2.63-.64.75.34.77.66,1.49.94,2.18s.48,1.37.68,2c.4,1.28.75,2.42,1.08,3.51a38.08,38.08,0,0,0,2.35,6.17c-.13.84-.89-1.24-.91-.52a9.31,9.31,0,0,1,.87,2.7c0,.71-.56-.87-1-1.85a35.26,35.26,0,0,0,1.33,3.86,10.2,10.2,0,0,0,1,2.15,2.59,2.59,0,0,0,1.8,1.27,24.87,24.87,0,0,0,.66,4.22,15.08,15.08,0,0,0,1.18,3.37c-.12,1.27-.12,3.32-1-.88l.5,3.29.38,2.38.29,2.55c.42,3.39.93,6.49,1.3,6.59a17.34,17.34,0,0,0,.34,4l.21,3.29c0,.89,0,1.63,0,2.36,0,1.46.06,2.91.17,5.58l.1-1.48c1.1,2.1.23,4.44.24,8.75l-.1-.13c-.2,2.46-.44,3.95-.52,5a20,20,0,0,0-.09,2.06c0,.53,0,1.05-.11,2-.06.5-.12,1.11-.25,1.9l-.6,2.94.68-.45c.61.53.14,2.66-.5,5.35a51.2,51.2,0,0,0-2,8.71l.71-1.94c0,1.58-1,3.59-2,5.57s-2,3.92-2.58,5.36c-.3.62.13-1.05.26-2-2.91,7.51.52,1.21-.93,7-.75.93-.64-1.67-1.91,2.14-.5.89-1.07,3.76-1.9,7-.47,1.61-1,3.32-1.6,4.94-.29.8-.6,1.58-.92,2.31a19.58,19.58,0,0,1-1.1,2c.81-1,1.62-1.94.7.71-1.59,4-6.1,9.88-7.07,13.74-.36.43-.54.56-.62.54-.35.74-.83,1.7-1.36,2.76s-1.1,2.22-1.74,3.3a36.52,36.52,0,0,0-2.61,5.25,10.24,10.24,0,0,0-3.2,3.22c-1.22,1.65-2.49,3.75-3.88,5.66s-2.59,3.84-3.7,5.08-1.93,1.95-2.29,1.62c-1.1,1.26-2.15,2.58-3.28,3.81l-3.44,3.68,0-.33c-1.13,1.15-2.06,2.12-2.89,2.92s-1.46,1.53-2,2.16c-1.1,1.25-1.73,2.24-2.43,3.16-1.22.88-.52,0-.49-.13-3.7,2.92-5.66,4.6-7.52,6.11-.92.77-1.76,1.55-2.74,2.5s-2.09,2-3.57,3.35l-1,0c-1.48,1.68-11.77,6.85-19.59,11.7.05-.11.16-.3.77-.72a78,78,0,0,1-15.3,6.77c-1.27.44-2.49.86-3.62,1.29l-1.64.63c-.53.19-1,.37-1.51.56a10.38,10.38,0,0,0-4.05,2.4l-1.58.69-1.61.61-3.23,1.22c8.63-2.26-1,1.34,2.65.71a30.86,30.86,0,0,1-5.23,1.15c-1.31.1-1.66,0,.41-.64l.68-.08c1.25-1.46-10.88,2.19-10.83,1.22a146.94,146.94,0,0,1-25.64,2.72l-6.32,0c-2.1-.05-4.18-.17-6.26-.25-1-.06-2.07-.06-3.1-.15L188,364.8l-3.06-.26c-1-.08-2-.16-3-.31.59.39,1.18.8,1.77,1.15-1.89-.2-3.77-.5-5.66-.74-1.46-.41-1.89-1,2.13-.44a12.45,12.45,0,0,0-4.19-.48,13.85,13.85,0,0,0-2.77.18c-7.77-1.78,3.24-.55.84-1l-3.26-.52.71.25c-1.35-.05-2.11,0-3.13,0-.5,0-1.08-.06-1.83-.16s-1.65-.33-2.84-.62c-3-.88-1.41-.92-2.58-1.23,0-.07-.37-.19-1.81-.45-2.3-.62-4.58-1.34-6.87-2l2.55,1.5c-1.58-.26-3.21-.73-4.07-.92s-1-.1.52.76c-2.14-1.36-8.48-3.52-14.46-6-1.51-.56-3-1.25-4.35-1.87l-3.86-1.72a46,46,0,0,1-4.61-2.47c-1.06-.39-2.1-.8-3.13-1.25s-2-1-3.07-1.58a71.07,71.07,0,0,1-6.47-3.87c1.06.86,1.3,2-2.64-.62.61-.14.48-.53-.09-1.1s-1.59-1.29-2.7-2.19-2.4-1.84-3.54-2.79c-.56-.47-1.1-.94-1.56-1.39a10.89,10.89,0,0,1-1.11-1.35c1.08,1.38-1.57-.64-4.07-2.48-1.27-.9-2.4-1.87-3.07-2.27s-.81-.31,0,.79c-2.89-2.68.24-.65-1.74-2.91C83.4,318.76,76.31,309.9,69.13,301c-.29,0,.63,1.73-1.18,0-1-1.81-1.8-3.73-2.68-5.59a8.51,8.51,0,0,0-1.89-1.63,4.4,4.4,0,0,1-1-1.05,12.53,12.53,0,0,1-1.08-2.18c.15.6.39,1.5-.5.25A229.85,229.85,0,0,1,45.28,260a111.85,111.85,0,0,1-8.15-33.61c.11,3.12-.3,1.09-.73-1.24.16,1.54-.56.05-.82.4l-.19-4.84c0-1.61-.17-3.21-.13-4.82-.49-.83-.7-3.4-.9-5.88-.12-1.24-.15-2.46-.22-3.43a4.22,4.22,0,0,0-.42-1.93l.23,3c-.53-2-1.06-.57-1.55,1.33s-.86,4.26-1.5,4a14.5,14.5,0,0,1,.54,4c.07,1.48.11,3.1.15,4.83,0,.86.05,1.75.1,2.65a19.76,19.76,0,0,0,.29,2.74,26.21,26.21,0,0,0,1.5,5.49c0,1.71-.65-1.34-.78-.4a32.58,32.58,0,0,1,2.23,8.32l-.23-.44.51,2.14.55,2c.36,1.28.69,2.49,1,3.66.58,2.34,1.26,4.45,1.91,6.63.33,1.09.65,2.19,1,3.33s.78,2.29,1.2,3.52c.87,2.46,1.79,5.22,3.18,8.36l.15-1.18a39.23,39.23,0,0,1,1.64,4.68c2.24,2.68-3.35-7.55-1.15-5.16a22.66,22.66,0,0,0,1.52,4.7c.83,2,2,4.25,3.16,6.5l.84,1.67c.3.54.6,1.07.88,1.59.57,1,1.11,2,1.56,2.92a15.07,15.07,0,0,1,1.59,4c2.44,3.83-.11-1.49,2.33,2.32l.32,1.22,1,.69a31,31,0,0,1,1.59,3c.3.72.36,1.16.26,1.3-.38-.61-1.26-1.62-1.74-2.24a53.86,53.86,0,0,0,4,5.83c1.46,1.91,2.91,3.44,3.24,4-.83-1.2-1.69-2.38-2.5-3.59l3,3.7c1,1.24,2,2.58,3.13,3.82,2.23,2.5,4.38,5.17,6.79,7.58l3.54,3.67,3.67,3.4a87.58,87.58,0,0,0,7.3,6l-.5-.81L92,331.22c.68.49,1.25.93,1.74,1.32,1,.78,1.7,1.39,2.42,2s1.45,1.33,2.55,2.16,2.53,1.86,4.6,3.25l-.33-.15c1.76,1,4.11,2.24,6.38,3.74-2.31-1.07,3.65,3.12.66,1.66,1.07.62,2,1.08,2.72,1.43l1.78.86a13.65,13.65,0,0,0,1.8.75c.39.12.7.18,1.29.35s1.47.47,3,1l1.11,1.1c1.08.32,1.69.44,2.59.76s2.06.86,4.35,1.79c-3.88-1.3,2.59,2-1.81.59a59.18,59.18,0,0,0,6.19,3.13c1.88.77,3.58,1.27,5.09,1.77s2.85,1,4.09,1.4a13.15,13.15,0,0,1,3.35,1.74c2.49.14.4-.76-2-1.62s-5-1.85-3.69-1.47c-1-.61.05-.48,1.66,0a47.57,47.57,0,0,1,5.44,1.62,45.36,45.36,0,0,1,4.63,2.36c.92.48,2,1,3.36,1.55.69.27,1.43.55,2.27.83s1.77.48,2.8.72c-.82-.2-.9-.11-1.71-.31a29,29,0,0,0,4.64,1c.81.14,1.64.29,2.49.5a23.43,23.43,0,0,1,2.68.68c2.28-.41,4.94.93,5.72,0l-7.63-1.12c2.18.25,4.33.26,6.79.43a54,54,0,0,1,8.79,1.05,28.56,28.56,0,0,1-4.2.1,15.27,15.27,0,0,0,3.05.44,29.53,29.53,0,0,1,3.12.39c-.18.24-.86.37-1.84.32s-2.28-.19-3.7-.35-3-.36-4.45-.51a34.37,34.37,0,0,0-4.09-.38,22.29,22.29,0,0,0,5,.77c1.64.11,2.7.23,1.45.63,1.79-.48,3.83-.18,6.18.21a33.46,33.46,0,0,0,7.87.28l-.41.58c.91,0,2.79-.24,4.45-.19l-3.05.72c4.66-.57,8.94.91,13.41.33-4.67.14-5.19-.06-5-.31s1-.52-1-.8c1.43,0,2.6-.16,3.59-.19s1.78,0,2.46,0a16.43,16.43,0,0,1,3.14.48,15.79,15.79,0,0,0,3.43.45,47,47,0,0,0,6.87-.35c-1.74.27-6.57.14-3.87-.34,1.22,0,2.65,0,4-.07s2.5,0,3.26,0c8.46-1.2-1.38-.46,2.17-1.3,3,.42,4.09-.94,7.7-1.81l.14.62c1.2-.17,2.14-.32,2.88-.46s1.26-.33,1.65-.46a3.09,3.09,0,0,0,1.26-.72c.44-.43.76-.81,5-1.55L239,366.34c1.45-.43,2.92-.8,4.36-1.28-.24.31-.48.65-.72.94,2.32-.91,3.85-1.47,5.4-1.91.78-.22,1.56-.42,2.44-.64s1.83-.52,3-.86c-1.2-.06.25-1.28,4.29-2.67,2.87-.65-1.31,1.18,4.31-1.11a13.88,13.88,0,0,1-1.94,1.32,9.47,9.47,0,0,1-1.34.57A11.34,11.34,0,0,1,257,361c-.19.28-1.16.81-1.36,1.09,3.18-.52,7.5-2.68,9.55-3.48a23.15,23.15,0,0,1-2.27.74c1.31-.68,2.64-1.33,3.94-2l3.84-2.21c1.36-.36.44.27-.48.89.8-.4,1.45-.8,2.2-1.23s1.6-.89,2.75-1.53c-.39.76,0,1.21-3.3,3,2.52-1.28,4.91-2.79,7.33-4.23.3,0,1.34-.39,2.19-.66s1.49-.5,1.06-.13a60.19,60.19,0,0,0,7-4.44c1.23-.93,2.49-1.88,3.79-2.78s2.66-1.74,4-2.58a10.67,10.67,0,0,1,1.71-1.55c1.2-.82,2.39-1.59,3.58-2.36s2.3-1.63,3.46-2.49,2.34-1.74,3.52-2.76,2.31-2.17,3.5-3.43c1.17-.64,2.41-1.22,3.55-1.92,3.78-3.89-4.62,2.8,1.65-3.65,2.2-2.3,2.77-2.56,3-2.44s.17.68,1,0c.94-1.31,2.18-3.13,3.76-5.07a45.26,45.26,0,0,1,5.54-6.13C330.35,311.13,329.25,312.19,328.12,313.6Zm33.17-57.22c-.14.63-.32,1.59-.55,2.49a6.38,6.38,0,0,1-.93,2.08,4.2,4.2,0,0,1,.37-2.13C360.46,258.13,360.84,257.38,361.29,256.38Zm2.6-99.15a11.81,11.81,0,0,1,.81,4A33.28,33.28,0,0,1,363.89,157.23ZM146.16,44.05l.12-.07C149,43.32,148,43.54,146.16,44.05Zm-5.51,1.72c-.5.29-.44.36-.18.35a12.47,12.47,0,0,1,2.91-1.27A6.5,6.5,0,0,0,140.65,45.77Zm19.7,314.92,1.06.41C158.88,360.7,159.62,360.71,160.35,360.69Z" fill="#202020"/><path d="M367.19,168.15a.9.9,0,0,1-.24.61C367.14,169.23,367.27,169.22,367.19,168.15Z" fill="#202020"/><path d="M297.36,341.28l-.17.12a.53.53,0,0,0-.11.21Z" fill="#202020"/><path d="M229.48,32a13,13,0,0,1,2.27.73C231.84,32.61,231.32,32.39,229.48,32Z" fill="#202020"/><path d="M113.85,60.23c1-.73,2-1.36,3.07-2a32.41,32.41,0,0,1-3,1.51C114.11,59.8,114.81,59.6,113.85,60.23Z" fill="#202020"/><path d="M85.87,76.66c-.34.43-.83.81-1.17,1.24L85,78C86.68,76.38,87.71,75.08,85.87,76.66Z" fill="#202020"/><path d="M109.85,60.31c-.26-.14-.87.15-1.67.65-.4.25-.85.56-1.34.9L105.36,63l.37-.27c-.1.53.38.34,1.15-.21S108.76,61.17,109.85,60.31Z" fill="#202020"/><path d="M104.87,63.37c-.64.49-1.3,1-2,1.41C102.84,65.2,103.75,64.27,104.87,63.37Z" fill="#202020"/><path d="M134,48.86c-1.17.38-.43.93-1.14,1-.49.59,1.28-.43,2.44-1.22.57-.41,1-.71.91-.76A7.06,7.06,0,0,0,134,48.86Z" fill="#202020"/><polygon points="107.11 60.01 108.27 60.04 109.22 58.81 107.11 60.01" fill="#202020"/><path d="M125.32,50l-3.82,1.75c.11.07-.34.37-.9.71C122.91,51.34,125.49,50.16,125.32,50Z" fill="#202020"/><path d="M120.6,52.5a23.12,23.12,0,0,0-2.88,1.75C118.35,53.89,119.68,53.06,120.6,52.5Z" fill="#202020"/><path d="M111.85,56.74c.38-.19.75-.38,1.13-.55l2.6-1.44C114.34,55.41,113.05,56,111.85,56.74Z" fill="#202020"/><path d="M167.91,35.7l4.47-1c.42-.3-.83-.22-2.5.17C168.83,35.23,167.17,35.61,167.91,35.7Z" fill="#202020"/><path d="M154,37.2a6.74,6.74,0,0,1,2.09-.08L156,36.3Z" fill="#202020"/><path d="M167,33.85c.4-.3,6.51-1.82.72-.73C167.33,33.39,162.82,34.48,167,33.85Z" fill="#202020"/><polygon points="236.08 35.56 234.94 35.3 234.82 36.64 236.08 35.56" fill="#202020"/><path d="M293.83,56.44c-4.51-3.26-1.53,0-5.56-3-.65-.18.21.37,1,1s1.63,1.22,1,1C293.27,56.89,294.65,58,293.83,56.44Z" fill="#202020"/><path d="M290.29,55.37l-1.54-.75A15.82,15.82,0,0,0,290.29,55.37Z" fill="#202020"/><path d="M35.46,209.46c0-1.15.09-2.3.14-3.44l-.39,2.23C35.27,208.66,35.38,209.06,35.46,209.46Z" fill="#202020"/><path d="M34.26,202.89l.82-.83L34.27,200A12.63,12.63,0,0,1,34.26,202.89Z" fill="#202020"/><path d="M365.91,247.42l-.12-.32a10.61,10.61,0,0,0-1.1,2.89Z" fill="#202020"/><polygon points="345.57 291.44 346.04 290.75 344.55 291.65 345.57 291.44" fill="#202020"/><path d="M320.7,323.75c1.25-1.1,2.49-2.65,3.66-3.85C322,322.68,319.69,323.37,320.7,323.75Z" fill="#202020"/><path d="M103.57,297.87v4.9h7.26v2.54h-7.26v6.16h-2.8V295.36h11v2.51Z" fill="#231f20"/><path d="M117.64,310.83a5.66,5.66,0,0,1-2.18-2.24,7.1,7.1,0,0,1,0-6.51,5.7,5.7,0,0,1,2.18-2.23,6.58,6.58,0,0,1,6.29,0,5.7,5.7,0,0,1,2.18,2.23,7.18,7.18,0,0,1,0,6.51,5.66,5.66,0,0,1-2.18,2.24,6.51,6.51,0,0,1-6.29,0Zm5.58-2.72a3.93,3.93,0,0,0,1-2.78,4,4,0,0,0-1-2.79,3.37,3.37,0,0,0-4.89,0,4.05,4.05,0,0,0-1,2.79,4,4,0,0,0,1,2.78,3.35,3.35,0,0,0,4.89,0Z" fill="#231f20"/><path d="M133.23,310.83a5.66,5.66,0,0,1-2.18-2.24,7.18,7.18,0,0,1,0-6.51,5.7,5.7,0,0,1,2.18-2.23,6.58,6.58,0,0,1,6.29,0,5.7,5.7,0,0,1,2.18,2.23,7.1,7.1,0,0,1,0,6.51,5.66,5.66,0,0,1-2.18,2.24,6.51,6.51,0,0,1-6.29,0Zm5.59-2.72a4,4,0,0,0,1-2.78,4,4,0,0,0-1-2.79,3.21,3.21,0,0,0-2.45-1.05,3.16,3.16,0,0,0-2.44,1.05,4,4,0,0,0-1,2.79,4,4,0,0,0,1,2.78,3.13,3.13,0,0,0,2.44,1.06A3.18,3.18,0,0,0,138.82,308.11Z" fill="#231f20"/><path d="M153.7,310.81a3.18,3.18,0,0,1-1.15.62,4.8,4.8,0,0,1-1.43.21,3.92,3.92,0,0,1-2.92-1.06,4.26,4.26,0,0,1-1-3.09v-5.91h-1.89v-2.3h1.89v-2.81h2.69v2.81h3.07v2.3h-3.07v5.84a2,2,0,0,0,.4,1.37,1.48,1.48,0,0,0,1.19.47,2.23,2.23,0,0,0,1.5-.5Z" fill="#231f20"/><path d="M167,299.83a5.46,5.46,0,0,1,2.07,2.21,7.61,7.61,0,0,1,0,6.59,5.42,5.42,0,0,1-2.07,2.22,5.7,5.7,0,0,1-3,.79,4.49,4.49,0,0,1-3.67-1.66v6h-2.69V299.18h2.56v1.61a4.17,4.17,0,0,1,1.64-1.31,5.24,5.24,0,0,1,2.16-.43A5.78,5.78,0,0,1,167,299.83Zm-.86,8.28a4,4,0,0,0,.95-2.78,4.05,4.05,0,0,0-.95-2.79,3.16,3.16,0,0,0-2.44-1.05,3.22,3.22,0,0,0-3,1.81,4.28,4.28,0,0,0-.46,2,4.21,4.21,0,0,0,.46,2A3.21,3.21,0,0,0,162,308.7a3.25,3.25,0,0,0,1.74.47A3.13,3.13,0,0,0,166.15,308.11Z" fill="#231f20"/><path d="M180.76,299.05v2.73a3.5,3.5,0,0,0-.62-.06,3.14,3.14,0,0,0-2.45,1,4.14,4.14,0,0,0-.88,2.82v6h-2.68V299.18h2.55V301A4.37,4.37,0,0,1,180.76,299.05Z" fill="#231f20"/><path d="M184.91,296.66a1.72,1.72,0,0,1,1.22-3,1.69,1.69,0,0,1,1.23.47,1.55,1.55,0,0,1,.49,1.18,1.8,1.8,0,0,1-.48,1.28,1.59,1.59,0,0,1-1.24.52A1.67,1.67,0,0,1,184.91,296.66Zm-.13,2.52h2.69v12.29h-2.69Z" fill="#231f20"/><path d="M202.72,300.4a5.62,5.62,0,0,1,1.31,4v7h-2.69V304.8a3.6,3.6,0,0,0-.71-2.43,2.53,2.53,0,0,0-2-.82,3,3,0,0,0-2.34,1,4,4,0,0,0-.86,2.75v6.21h-2.68V299.18h2.55v1.59a4.27,4.27,0,0,1,1.68-1.29,5.69,5.69,0,0,1,2.28-.43A4.65,4.65,0,0,1,202.72,300.4Z" fill="#231f20"/><path d="M216.08,310.81a3.26,3.26,0,0,1-1.15.62,4.8,4.8,0,0,1-1.43.21,3.92,3.92,0,0,1-2.92-1.06,4.26,4.26,0,0,1-1-3.09v-5.91h-1.89v-2.3h1.89v-2.81h2.68v2.81h3.07v2.3h-3.07v5.84a2,2,0,0,0,.41,1.37,1.46,1.46,0,0,0,1.18.47,2.27,2.27,0,0,0,1.51-.5Z" fill="#231f20"/><path d="M230.75,297.87v4.9H238v2.54h-7.26v6.16H228V295.36h11v2.51Z" fill="#231f20"/><path d="M244.82,310.83a5.66,5.66,0,0,1-2.18-2.24,7.1,7.1,0,0,1,0-6.51,5.7,5.7,0,0,1,2.18-2.23,6.58,6.58,0,0,1,6.29,0,5.7,5.7,0,0,1,2.18,2.23,7.1,7.1,0,0,1,0,6.51,5.66,5.66,0,0,1-2.18,2.24,6.51,6.51,0,0,1-6.29,0Zm5.58-2.72a3.93,3.93,0,0,0,1-2.78,4,4,0,0,0-1-2.79,3.18,3.18,0,0,0-2.45-1.05,3.14,3.14,0,0,0-2.43,1.05,4,4,0,0,0-1,2.79,4,4,0,0,0,1,2.78,3.11,3.11,0,0,0,2.43,1.06A3.15,3.15,0,0,0,250.4,308.11Z" fill="#231f20"/><path d="M260.41,310.83a5.66,5.66,0,0,1-2.18-2.24,7.18,7.18,0,0,1,0-6.51,5.7,5.7,0,0,1,2.18-2.23,6.14,6.14,0,0,1,3.14-.8,6.21,6.21,0,0,1,3.16.8,5.68,5.68,0,0,1,2.17,2.23,7.1,7.1,0,0,1,0,6.51,5.64,5.64,0,0,1-2.17,2.24,6.22,6.22,0,0,1-3.16.81A6.15,6.15,0,0,1,260.41,310.83Zm5.59-2.72a4,4,0,0,0,1-2.78,4,4,0,0,0-1-2.79,3.19,3.19,0,0,0-2.45-1.05,3.16,3.16,0,0,0-2.44,1.05,4,4,0,0,0-1,2.79,4,4,0,0,0,1,2.78,3.13,3.13,0,0,0,2.44,1.06A3.17,3.17,0,0,0,266,308.11Z" fill="#231f20"/><path d="M285.22,294.4v17.07h-2.58v-1.58A4.17,4.17,0,0,1,281,311.2a5.24,5.24,0,0,1-2.16.44,5.64,5.64,0,0,1-3-.79,5.44,5.44,0,0,1-2.08-2.22,7.61,7.61,0,0,1,0-6.59,5.48,5.48,0,0,1,2.08-2.21,5.73,5.73,0,0,1,3-.78,5,5,0,0,1,2.08.41,4.34,4.34,0,0,1,1.62,1.24v-6.3Zm-4.32,14.3a3.23,3.23,0,0,0,1.23-1.35,4.33,4.33,0,0,0,.45-2,4.4,4.4,0,0,0-.45-2A3.26,3.26,0,0,0,280.9,302a3.2,3.2,0,0,0-1.74-.47,3.25,3.25,0,0,0-1.74.47,3.31,3.31,0,0,0-1.22,1.34,4.4,4.4,0,0,0-.45,2,4.33,4.33,0,0,0,.45,2,3.21,3.21,0,0,0,3,1.82A3.2,3.2,0,0,0,280.9,308.7Z" fill="#231f20"/><path d="M291.3,311.24a6.6,6.6,0,0,1-2.13-1l1-2.18a6.41,6.41,0,0,0,1.86.88,7,7,0,0,0,2.14.34c1.6,0,2.4-.45,2.4-1.36a.9.9,0,0,0-.61-.9,9.7,9.7,0,0,0-2-.48,14.34,14.34,0,0,1-2.31-.53,3.52,3.52,0,0,1-1.55-1,3,3,0,0,1-.65-2.08,3.35,3.35,0,0,1,1.36-2.8,5.89,5.89,0,0,1,3.68-1,10.1,10.1,0,0,1,2.37.28,6.69,6.69,0,0,1,1.93.77l-1,2.19a6.09,6.09,0,0,0-3.29-.92,3.45,3.45,0,0,0-1.79.38,1.13,1.13,0,0,0-.61,1,1,1,0,0,0,.65,1,10.06,10.06,0,0,0,2,.54,14.36,14.36,0,0,1,2.26.53,3.57,3.57,0,0,1,1.51,1,3,3,0,0,1,.64,2,3.27,3.27,0,0,1-1.4,2.76,6.25,6.25,0,0,1-3.8,1A9.35,9.35,0,0,1,291.3,311.24Z" fill="#231f20"/><path d="M267.2,153.29c-.2,0-.42,0-.63,0a1.6,1.6,0,0,1,1-.89c-6.06.51-10.18,6.42-11.51,11.53a2.78,2.78,0,0,0-1,3.63,2.47,2.47,0,0,0,3.56.24,3.6,3.6,0,0,1,1.06-.27,23,23,0,0,0,8.82-1.56l-2,.21a8.09,8.09,0,0,0,2.45-1.16l-.69-.34a7.37,7.37,0,0,0,6.31-6.52c.17-3.19-2.36-5.47-5.78-5Z" fill="#a0b367"/><path d="M258.13,150.88c2-.49,3.95-.82,5.91-1.16l.54.13-1.28-1.49.05.12c-.32,2.34-2.13,4.43-3.75,6.41l-.51.79a1.63,1.63,0,0,0,0,1.32,1.77,1.77,0,0,0,2.58.47l1.14-.7c3.26-1.1,7.32-4.07,6.79-7.86-.13-.87-1-1.44-1.59-2.11-.67-1.12-2.34-1.29-3.71-.36s-1.92,2.56-1.21,3.67l-.84.29.24-.77c.32,1.19-.72,2.29-1.23,3.43-.39.41-.74.86-1.11,1.29l2.61,1.8c.14-.29.29-.56.43-.84l-.35-.15a28.45,28.45,0,0,1,2.64-4.75l1.14-2.26a1.23,1.23,0,0,0-1.27-1.5l-1.2.08.6,0c-2.29.86-4.51,2-6.82,2.87a.86.86,0,0,0-.61.86A.54.54,0,0,0,258.13,150.88Z" fill="#a0b367"/><path d="M264.49,145.53a1.89,1.89,0,0,0,1.28-.44l0-.33-.9,0C264.26,144.81,264.21,145.21,264.49,145.53Z" fill="#a0b367"/><path d="M265.81,144.76h.38l-.34-.11,0,.06Z" fill="#a0b367"/><path d="M198.91,221.38c-2.38,2.71-4.52,5.6-6.71,8.47s-4.2,5.88-6.24,8.87a.4.4,0,0,0,0,.55.36.36,0,0,0,.49-.17c2-3,4-6,6.24-8.81s4.31-5.74,6.69-8.44a.43.43,0,0,0,0-.56A.39.39,0,0,0,198.91,221.38Z" fill="#a0b367"/><path d="M155.05,259.75a.27.27,0,0,0-.43-.19.56.56,0,0,0-.27.57.3.3,0,0,0,.44.19A.53.53,0,0,0,155.05,259.75Z" fill="#a0b367"/><path d="M142.41,251.93a13.37,13.37,0,0,0,.36-3.29.64.64,0,0,1,.24-.47c-.31-.07-.46-.38-.4-.8a46.57,46.57,0,0,1,1.27-6.17c.53-2,1.14-4.08,1.79-6.12s1.41-4.05,2.17-6.07l2.31-6.06a1.69,1.69,0,0,1-.43-.67,3.23,3.23,0,0,1,.67-3.11l.64-.7L154.5,214c1.15-1.49,2.29-3,3.54-4.4a7.68,7.68,0,0,1,.89-2.53c.5-1.61,1-3.22,1.55-4.82.28-.8.55-1.61.85-2.4s.64-1.56,1-2.34a1,1,0,0,1-.8-.15,1.55,1.55,0,0,1,.09-2.06l.76-1.14c-.89,1-1.79,1.95-2.7,2.92a2.19,2.19,0,0,1-.39.36c-.87,1.15-1.62,2.4-2.4,3.66-6.78,11-10.75,22.85-13.8,34.64a.64.64,0,0,1-.37.56.28.28,0,0,1-.35-.32c.15-2,.17-4.09.27-6.09s.19-4,.32-6,.33-4.08.65-6.17a49.71,49.71,0,0,1,1.52-6.28,184.63,184.63,0,0,1,12.19-29.68c1.71-2.24,3.31-4.51,4.84-6.79l2.26-3.45,2.3-3.41,4.54-7c1.59-2.31,3.21-4.64,4.9-7,9.19-12.79,19.58-23.54,31-33.88a14.31,14.31,0,0,1,6.78-4.06,6.88,6.88,0,0,1,6.07,1c1.83,1.53,2.23,4,1.44,6.66.35-.3.71-.57,1.08-.84l2-1A8.82,8.82,0,0,1,230,121l2.18.32a44.94,44.94,0,0,0,5.47,1.24,21.66,21.66,0,0,1,5.32,1.61l.45,1.18.52,0a5.73,5.73,0,0,1,3.85,1.21l.79,1.24a12.16,12.16,0,0,1,1.42,4.88,4.07,4.07,0,0,1,.84,1.64,5.63,5.63,0,0,1,3.37,3.5.85.85,0,0,1,.73,1.25,1.55,1.55,0,0,1-.4.59h0a7.71,7.71,0,0,0,1.12.31c.45-.18.73-.27.73-.27,1.17-.56,1.17-.56,2.19-1a5.45,5.45,0,0,1,2,.07c2.39,1.49,2.38,1.49,2.93,2.5a2.34,2.34,0,0,1,0,.38c.88-.2.94-.21,1.19-.25a3,3,0,0,1,.57.12c.38.47.38.47.63.56a2.6,2.6,0,0,1,.29.35c0,.83,0,.83.14,1a1.69,1.69,0,0,1,0,.42l-.48.76-1.85-.58.13.59-.65-.42.52.44-.7,0,.87.06a7.09,7.09,0,0,0-1.66,1,2.73,2.73,0,0,0-.83.75,3.5,3.5,0,0,1,.26.25c-1.32.68-1.32.68-2.64,1.31a4.1,4.1,0,0,1-.53-.14.71.71,0,0,1-.41.6l-.67.36-.07.17,0,0-.3.64-.05.14h0L256,152.64a9,9,0,0,1-1.15.53h.46c.32,0,.52.6.65.57a36.33,36.33,0,0,0,4.63-1.9c1.53-.7,3-1.48,4.56-2.21a1.09,1.09,0,0,1,1.43-.15.94.94,0,0,1-.17,1.36,22.59,22.59,0,0,1-3.12,4.5,29.5,29.5,0,0,1-4,3.86,31.36,31.36,0,0,1-4.65,3.06,34.34,34.34,0,0,1-5,2.39c-1.56,1-3.1,2-4.64,3l.39,0c-.46.2-.89.42-1.34.63l-.12.09,1.49.06.76-.26a33.22,33.22,0,0,1,5.48-3l5.7-2.48a63.77,63.77,0,0,1,6.16-2,.81.81,0,0,1,1.18.16.94.94,0,0,1-.4,1.19c-4.81,4.76-11,9.22-17.48,10.21a6.39,6.39,0,0,1-3.18,1.63l-.05,0,1.17.13c-.83.47-1.69.28-2.53.63l1.06.67c-1,.65-1.91,1.36-2.84,2.09s-1.81,1.53-2.73,2.28a23.9,23.9,0,0,1-5.86,3.79,3.74,3.74,0,0,1-.42.27,16.32,16.32,0,0,1-2.74,5.52l1.78-1.33a13.55,13.55,0,0,1-2.7,4.08,22.89,22.89,0,0,1-5.63,4.16,13,13,0,0,1-6.31,1.55A212.1,212.1,0,0,0,200.59,220a.85.85,0,0,1-1,.45.73.73,0,0,1-.2-1q1-2.24,2.13-4.44c.76-1.45,1.59-2.87,2.42-4.29,1.67-2.84,3.38-5.67,5.29-8.37-1,1-2,1.93-3,2.93s-1.89,2-2.83,3.07a80.29,80.29,0,0,0-5.43,6.46l-1.14,1.87a7.75,7.75,0,0,1-1.39,1.64c-1,1.48-2.14,2.89-3.1,4.39s-2,3-2.91,4.45-1.91,3-2.75,4.59-1.66,3.21-2.43,4.9c-.65,1.45-1.29,2.84-1.87,4.23L180.77,245c-1.05,2.78-2.12,5.52-3,8.56q-1,3.16-1.93,6.21c-.66,2-1.17,4.07-1.81,6.05s-1.31,3.94-2,5.89-1.41,3.93-2.26,5.88a2.09,2.09,0,0,1-2.29,1.55,1.79,1.79,0,0,1-1-2.42c.57-2.2,1.13-4.41,1.7-6.61s1.27-4.36,1.91-6.55c1.23-4.41,2.79-8.7,4.37-13,.77-2.18,1.73-4.26,2.65-6.39s1.87-4.25,3-6.32a106.74,106.74,0,0,1,7.25-12.18l3.51-5a1.33,1.33,0,0,1-.34-.16,2.18,2.18,0,0,1-.83-1.2q-2.07,2.79-4.33,5.5c-.67,1.5-1.38,3-2,4.5s-1.32,3-2,4.51-1.49,3-2.33,4.41a50.61,50.61,0,0,1-2.63,4.37c-1.32,2-2.8,3.74-4.23,5.48s-2.88,3.44-4.35,5.17c-.51,1.31-1.05,2.6-1.51,3.93l-1.38,4c-.9,2.67-1.91,5.27-2.77,8a.44.44,0,0,1-.4.41c-.2,0-.31-.18-.28-.41.13-1,.26-2,.44-3s.41-2,.63-3c.45-2,.95-4,1.47-6a2.61,2.61,0,0,1-2.33-.07,2.85,2.85,0,0,1-1.35-2.12L159,257.41c-.28.51-.77.77-1.14.58a.92.92,0,0,1-.25-1.26c1.63-3.43,3.49-6.74,5.3-10.07,1.63-4.29,3.63-8.38,5.57-12.55a4.29,4.29,0,0,1-2.4.15h0c-.34.63-.67,1.26-1,1.89-4.38,12.48-9.05,24.79-14.59,36.86a.45.45,0,0,1-.52.31.37.37,0,0,1-.14-.53c1.76-3.62,3.29-7.32,4.82-11h0a.28.28,0,0,1-.43-.18.59.59,0,0,1,.26-.57.28.28,0,0,1,.43.18c1.49-3.41,2.76-6.92,4.12-10.39s2.58-7,3.85-10.48c-3.07,6.11-6.12,12.21-9.33,18.23-.11.77-.21,1.54-.32,2.32a.54.54,0,0,1-.46.4c-.17,0-.29-.23-.24-.44l.11-.64a2.21,2.21,0,0,1-2.69,1.27,2.23,2.23,0,0,1-.53-3.05c1.41-3.35,2.82-6.7,4.43-10l.38-1.12.12-1.27-2.23,3.62-2.13,3.67c-1.41,2.45-2.93,4.85-4.28,7.33a.83.83,0,0,1-.95.57.8.8,0,0,1-.26-1.07c.65-2.44,1.5-4.8,2.29-7.21L148,249.4c.4-1.21.85-2.4,1.33-3.57,1.9-4.71,3.83-9.44,6.13-14,.31-3.68.6-7.43,1.14-11.16-.25.36-.5.73-.73,1.11a39.26,39.26,0,0,0-3.49,7.41,75.25,75.25,0,0,0-2.38,7.57A153.4,153.4,0,0,1,145.61,252a.43.43,0,0,1-.48.35c-.18,0-.26-.29-.15-.54,1.66-5,2.61-9.93,4.11-15.09.58-2.15,1.31-4.18,1.93-6.23s1.22-4.08,1.72-6.15A100.06,100.06,0,0,0,148,235.74c-.65,1.94-1.31,3.89-2,5.83L144,247.38a1.12,1.12,0,0,1-.58.77.36.36,0,0,1,.14.29,18.59,18.59,0,0,1-.38,3.45.51.51,0,0,1-.44.46C142.5,252.39,142.4,252.19,142.41,251.93Zm100.18-97.3.28,0-.75.16-1.67-.47Zm5.76-11.76h0l.94.29Zm-43.92,62.48a48.92,48.92,0,0,1,8.43-8.4l-1.62,2.38C209.05,201.37,206.7,203.31,204.43,205.35Zm47.73-51.59a14.21,14.21,0,0,1-3.76-.37,9,9,0,0,1-1.53,1.55q-2.34,1.83-4.76,3.39c.52.23.14.48,0,.68l-.46.56c1.78-1.06,3.57-2.09,5.41-3.11A36.68,36.68,0,0,1,252.16,153.76ZM262,143.51l.25,0,.16.84Zm-.3-1.4-.29.09C261.36,141.91,261.5,141.93,261.74,142.11ZM259,143a1.69,1.69,0,0,0,.55.1Zm-15.27-16.74,1.45,3.71-1.28-3.65Z" fill="#a0b367"/><path d="M182.81,215.59l.17-1.92.28.5.19,0v-2.53h.2l.09,1.33h.17v-6.39h.17l.17,3.86h.28c0-1.67,0-3.33,0-5A.69.69,0,0,0,184,205c-2.57-.24-5.15-.45-7.87-.68v6.6h-.36v-6.3h-.42q-.25,9.82-.52,19.63l-.3,0c-.1-.46-.19-.92-.29-1.37a16.65,16.65,0,0,0-.48-2,17.85,17.85,0,0,1-.91-2.41l1.39,2.5c.19-5.72.38-11.18.57-16.77l-3.79-.22v2.62l-.16,0-.35-2.56-.4,0c.11,2.06.21,4.11.33,6.43l.7-1.86c1.1,2,2.08,3.87,3.06,5.71l-.26.16-1.25-1.6-.15.08.83,1.59-.14.1L172.09,213l.22,1.27-.14.05-.74-2.29a11.09,11.09,0,0,0-.56,6.29c.47,2.18,1.12,4.32,1.66,6.36h-1.17c-.13-3.7-1.83-7.31-1.22-11.26.26-1.65-.23-3.41-.36-5.12-.08-1-.06-2-.21-2.93a8.48,8.48,0,0,0-.67-1.63,4.53,4.53,0,0,1-.22-.88c-.05-.27,0-.62-.1-.81-.52-.71-.41-1.16.25-1.78a1.13,1.13,0,0,0-.24-1.8c-.77-.58-.85-1.12-.14-1.8a1.93,1.93,0,0,0,0-2.42c-.59-.48-.48-.92-.14-1.45.65-1,.56-1.48-.33-2.3-.18-.16-.46-.44-.42-.57.31-.88-.36-1.92.48-2.74a1.17,1.17,0,0,0,.12-1,11.17,11.17,0,0,0-1-3c-2.06-3.22-2.3-6.72-2.06-10.4.19-2.82,1.26-5.57.6-8.48-.41-1.8-.62-3.66-.87-5.5-.71-5.17-1.34-10.35-2.12-15.52a18.77,18.77,0,0,0-1.18-2.86,15,15,0,0,1-.86-3.32c-.18-1.85-.13-3.71-.23-5.57a1.93,1.93,0,0,0-.42-1.21,5.48,5.48,0,0,1-1.65-4.18c0-2.17.07-4.35-.06-6.52-.11-1.63-.21-3.26-1.47-4.66a11.69,11.69,0,0,1-2.84-6.56.71.71,0,0,0,0-.21,16.24,16.24,0,0,1-1.25-7c0-1.39-.84-2.78-1.25-4.18a4.12,4.12,0,0,1,0-1.36c.08-1.56.24-3.12.25-4.68a17.22,17.22,0,0,0-.39-2.57,5.09,5.09,0,0,1,4.19,2A10.44,10.44,0,0,0,157,91.86a10.8,10.8,0,0,1,3.48,4.66,3.15,3.15,0,0,0,.69,1.12,7.23,7.23,0,0,1,2.36,6.74,2.22,2.22,0,0,0,.54,2,9.63,9.63,0,0,1,2.37,6.79,2.71,2.71,0,0,1-.24,1.32,2.53,2.53,0,0,0,.1,2.86c1.43,2.44,2.35,5,1.8,7.91a1.12,1.12,0,0,0,0,.63c.92,2,.84,4.1,1.19,6.16a7.81,7.81,0,0,0,1.14,2.27c.4.73.84,1.44,1.27,2.19a11.7,11.7,0,0,0-.55-7.89c-.94-1.91-.65-3.9-.29-5.87.1-.56.54-.67,1-.34.81.66,1.61,1.34,2.36,2.06,1.2,1.16,2.33,2.38,3.51,3.55.47.47,1,.88,1.47,1.32l.25-.14a11,11,0,0,0-1.22-2c-3.28-3.54-5.15-7.57-4.49-12.49a1.78,1.78,0,0,0-.65-1.73,45.86,45.86,0,0,1-3.37-3.46,12.4,12.4,0,0,1-2.85-8,2.64,2.64,0,0,0-.69-1.61,14.88,14.88,0,0,1-3.33-6.36,11.76,11.76,0,0,0-.9-1.94,8,8,0,0,1-.94-1.75c-.43-2-.71-4-1.09-5.94a26.82,26.82,0,0,0-.7-2.63c-.24-.85.11-1.08.9-1A7.67,7.67,0,0,1,164,81.64a2,2,0,0,0,1.05.41,4.55,4.55,0,0,1,3,1.44,12.77,12.77,0,0,0,2.09,1.56A12.49,12.49,0,0,1,174,88.48a24.23,24.23,0,0,0,2.77,3.13c1.38,1.33,2.79,2.59,2.95,4.67a1.08,1.08,0,0,0,.17.38,23.27,23.27,0,0,1,3.23,7c.21.72,1,1.25,1.46,1.94.57.91,1,1.9,1.57,2.94l.8-.3a1.58,1.58,0,0,1,.26.44c.63,3.09,1.31,6.16,1.81,9.26a9,9,0,0,1-.15,3.54c-.6,2.38,0,4.56.66,6.79a41.12,41.12,0,0,1,1,4.78c.3,1.93.46,3.88.69,5.83l.26,0a2.7,2.7,0,0,0,.21-.76c-.11-1.53-.26-3.06-.37-4.59a19.36,19.36,0,0,1-.11-3A22.35,22.35,0,0,0,190,120.22a15.46,15.46,0,0,1-.7-3.48,4.42,4.42,0,0,1,.14-1.18l.37-.07,1,2.53a73.55,73.55,0,0,0,1.76-7.45,24.44,24.44,0,0,0,.11-8.36,3.66,3.66,0,0,0-.64-1.5,14.44,14.44,0,0,1-3.33-8.13,2.21,2.21,0,0,0-.21-.8,9.91,9.91,0,0,1-.92-5.52,4.92,4.92,0,0,0-.3-2,11.33,11.33,0,0,1-.53-6.77c.36-1.59-.09-3.37-.2-5.07a7.45,7.45,0,0,0-.14-.87,5.54,5.54,0,0,1,4.8,2.8,2.19,2.19,0,0,0,.65.67,9.7,9.7,0,0,1,4.28,5.64,2.43,2.43,0,0,0,.61.94A7.66,7.66,0,0,1,199.11,89a2.57,2.57,0,0,0,.45,2c1,1.55,1.74,3.23,2.6,4.87.88-.42,2-1,3.13-1.48s1.65-.2,1.52,1c-.25,2.29-.67,4.55-1,6.84-.14,1.17,0,2.38-.25,3.53s-.71,2.1-1,3.17c-.16.55-.13,1.16-.27,1.72-.61,2.37,0,4.73,0,7.09a5.45,5.45,0,0,0,1.55,3.42c.57-1.54,1.2-2.9,1.58-4.34a22.82,22.82,0,0,0,.45-10.3,10.61,10.61,0,0,1,2.5-8.82,6.36,6.36,0,0,0,1.24-3.1,44.7,44.7,0,0,1,1.88-6,3.72,3.72,0,0,0,.35-1.07A6.57,6.57,0,0,1,215.93,83a5.62,5.62,0,0,0,.89-1.26A9.93,9.93,0,0,1,221,77.23a23.76,23.76,0,0,1,4.5-1.27,1.1,1.1,0,0,1,1.35.72c.89,1.87,1.51,3.77.77,5.88a3.22,3.22,0,0,0,0,1.45,6.62,6.62,0,0,1-1.36,5.23,1.68,1.68,0,0,0-.39,1.12,9.61,9.61,0,0,1-2,6.8,30.73,30.73,0,0,0-4.88,13,31.77,31.77,0,0,0-.1,5.26,14.18,14.18,0,0,1-1.29,6,22.38,22.38,0,0,0-1.43,6.21c-.54,4.17-.88,8.37-1.3,12.56-.11,1.11-.19,2.22-.3,3.51l.85-.74a2.88,2.88,0,0,1,.28.68c.15,2,.13,3.95.46,5.88.59,3.52-.56,6.78-1.13,10.15-.54,3.15-.63,6.38-.93,9.58l.45,0,.21-3.63.28-.07.93,1.4c.3-1.85.56-3.42.81-5a.74.74,0,0,0,0-.21,15.5,15.5,0,0,1,3.54-10.93,3.93,3.93,0,0,0,.51-4.38,7.09,7.09,0,0,1-.18-4,12.9,12.9,0,0,1,4.77-7.83,6.37,6.37,0,0,0,2.34-3.21,12.2,12.2,0,0,1,3.58-5.49,2.09,2.09,0,0,0,.47-.56,7.74,7.74,0,0,1,4.46-3.77,7.06,7.06,0,0,0,1.72-1.12,6.17,6.17,0,0,1,3.44-1.67,2.3,2.3,0,0,0,.89-.46c2.35-1.39,4.79-2.26,7.58-1.64.78.17.9.6.75,1.21-.31,1.18-.65,2.36-1,3.52a8.49,8.49,0,0,1-2.71,3.92,6,6,0,0,0-1.35,1.69c-.86,1.53-1.59,3.13-3.14,4.14a1.77,1.77,0,0,0-.5,1,12.78,12.78,0,0,1-5.64,7.82c-.59.39-.85,1.25-1.35,1.81a6,6,0,0,0-1.35,4.33A9.9,9.9,0,0,1,229.7,154a4.8,4.8,0,0,0-2,3.51c-.33,4.44-.78,8.87-1.22,13.3a4.61,4.61,0,0,1-1.49,3,3.18,3.18,0,0,0-.95,1.6c-.61,3.26-1.14,6.53-1.69,9.8l.34.14c.49-.52,1-1,1.45-1.57a23.08,23.08,0,0,1,8.81-6.48,5.79,5.79,0,0,1,4.8,0c2.18,1,2.83,2.73,1.82,4.91a10.51,10.51,0,0,1-4.27,4.39A26.36,26.36,0,0,1,227.4,190c-.23.06-.44.17-.69.26.86,1.14,1.73,2.19,2.49,3.32a19.37,19.37,0,0,1,3.14,13.21,6.11,6.11,0,0,1-2.08,4.13,2.75,2.75,0,0,1-4,.06,7.64,7.64,0,0,1-1.82-2.4,17.86,17.86,0,0,1-1.63-7.11c-.06-2.45-.37-4.88-.58-7.32a1.28,1.28,0,0,0-.43-.8c-.13,1.17-.26,2.35-.36,3.53a.53.53,0,0,0,.23.41c1,.46.56,1.23.15,1.62a3.13,3.13,0,0,0-.86,2.27c-.05.62-.23,1.25-.22,1.87a5.55,5.55,0,0,0,.45,1.16c.14.43.46,1,.29,1.3-1.11,1.63-1.2,3.52-1.3,5.34-.24,4.73-.21,9.47-.48,14.2-.22,3.7-.91,7.39-1,11.09s.09,7.22.3,10.82a43.16,43.16,0,0,1-.59,11.63c-.38,1.78.17,3.39.36,5.08,0,.38.11.76.15,1.15a1.39,1.39,0,0,1-1.38,1.72c-3.31.37-6.63.93-9.76-.84a1.11,1.11,0,0,0-.8-.15c-2.4.85-4.87.29-7.31.39s-4.7,0-7,0a3.38,3.38,0,0,0-1.22.22c-1.47.62-2.93,1.29-4.51,2,0,.11,0,.42,0,.72.11,1.52-.1,1.77-1.54,2.09a15.74,15.74,0,0,1-10.9-1.43,2.86,2.86,0,0,1-1.61-2.54,39.1,39.1,0,0,1-.11-7.33,65.05,65.05,0,0,0-.45-20.42c-.46-2.69-.62-5.43-.91-8.15a1.09,1.09,0,0,1,.24-.81c.11.19.31.37.34.57.73,5.88,1.65,11.75,2.07,17.65a65.64,65.64,0,0,1-.52,10.27,27.71,27.71,0,0,0,.12,8.48.53.53,0,0,0,.25.37l.41-2.2.41.6v-5.16h.3v6.43l4.39-.24a6.23,6.23,0,0,0-.23-1c-1.39-3-1.56-6.16-1.7-9.35-.22-5.12-.25-10.25-.69-15.35-.31-3.54-1.16-7-1.76-10.57a9.48,9.48,0,0,1-.17-2.2c3.18,10.14,3,20.66,3.38,31.12h.47v-2.57h.12c.1,2,.16,3.92.33,5.88a11.28,11.28,0,0,0,.55,2.55c.47,1.47.87,1.65,2.65,1.29l-1.05-6.12.17,0,1,4.26.12-.69,1.17,2.1a14.15,14.15,0,0,0,1.79-1.08,1.17,1.17,0,0,0,.21-.91c-.41-2.94-.86-5.89-1.29-8.83a1,1,0,0,1,.12-.64l1,5.89h.1l.07-1.29h.1l.74,4.57.16,0v-1.18l.43.58-1.55-8.7.22,0c.26,1.35.52,2.69.81,4.21l.34-1.23c.17,2.1.32,3.91.47,5.78,1.42-.62,1.49-.77,1.08-2.2l-.13,1.07h-.14l-.28-2.24.31-.12.85,2,.14,0q-.56-2.91-1.09-5.81l.18,0c.4,1.83.79,3.66,1.19,5.49l.23,0-2-11.73.21,0c.24,1.26.46,2.53.71,3.79s.44,2.71.82,4A21.65,21.65,0,0,0,191,261.2q-1.82-8.76-3.61-17.52h0c.11.92.22,1.84.35,2.9-.74-1.21-2.45-13.92-2.29-17.28.23,2,.46,4,.68,6h.16c-.06-1-.14-2-.17-3-.08-2.62-.23-5.26-.17-7.88,0-1.23-.79-2.06-1-3.13a7.6,7.6,0,0,0-.36-.94l.34-.15.76,1.57h.11c-.41-2.09-.83-4.17-1.24-6.26l.32-.14a5.13,5.13,0,0,1,.54,1.17,54.48,54.48,0,0,1,1.16,11.69,88.46,88.46,0,0,0,2,17.75c.43,2.27.85,4.55,1.36,6.8.76,3.41,1.61,6.79,2.4,10.19.16.67.24,1.36.35,2h.56c1.9-17.7-.21-35.36-.45-53.07l.33,1,.21,0c0-2.06,0-4.13,0-6.19a1.14,1.14,0,0,0-.73-.83c-2.35-.31-4.72-.54-7.28-.81,0,.55,0,1,0,1.43,0,1.47-.14,2.94-.11,4.41,0,1,.28,2,.32,3s0,.81-.92.64c-.25,0-.59.23-.87.41a9.22,9.22,0,0,0-.78.62Zm-9.19-85.45c.25,1.1,1.12,1.49,2.14,1.79a3.07,3.07,0,0,0-.84-1.64c-.28-.23-.87-.1-1.32-.13l-.91-5.68c-.23.34-.16.65-.24.92-.19.69-.5,1.35-.66,2a1.14,1.14,0,0,0,.62,1.46C172.9,129.15,173.22,129.71,173.62,130.14ZM156,95.29c.23.29.47.57.71.86s.73.86,1.09,1.3l.25-.15.06-1.19.94,2.24.15-.91.17.68.16,0-.15-1.57.14,0,.56,2.67a6.74,6.74,0,0,0-1.94-5.4s-.22.07-.34.08c-1.12.09-.87,1-.94,1.71l-.88-1.1-1.38-1.54a3.6,3.6,0,0,1-.1.57c-1.19,0-1.21,0-.88,1.13a7.81,7.81,0,0,0,.63,1.65A3,3,0,0,0,155,97c.05,0,.16,0,.28,0l-.52-1,1,.67Zm66.15-10.73c.25.16.5.44.76.46,1.08.08,2.67-1.76,2.58-3a5.29,5.29,0,0,1-.28.5,3,3,0,0,1-.33.38,5.91,5.91,0,0,0,.44-4.33l-1.21.07c-.05.5-.09,1.12-.16,1.73a6.22,6.22,0,0,1-1.82,4.21l.28-.77-.17-.11-.46.69c1-2.68,1-2.92.15-4-1.9,1.08-2.44,2-1.93,3.82l1.17-1.4c-2.88,5-2.88,5-2.46,6.12a29,29,0,0,1,2.08-2.21A3.28,3.28,0,0,0,222.13,84.56Zm-8.19,179.49c-1.75,0-3.5,0-5.25.08a2.79,2.79,0,0,0-1,.42,4.64,4.64,0,0,0,.72.62c3,1.65,6.06,1,9.14.59a1,1,0,0,0,.61-.6c.26-.87-.39-2.18-1.25-2.23-1.78-.12-3.57,0-5.35,0,1.92.39,3.94-.36,5.88.64a73.4,73.4,0,0,0-9.29.18,44.13,44.13,0,0,0,4.6,0c1.21,0,2.42.09,3.62.2a.77.77,0,0,1,.48.58.75.75,0,0,1-.56.5c-1.19.16-2.39.25-3.58.37l0-.28,3.78-.43,0-.3a3,3,0,0,0-2.56-.31ZM174.12,136.67l-1.45-.57a18.12,18.12,0,0,0,.31,2.36,1,1,0,0,0,.89.44,1.44,1.44,0,0,0,.55-.94c.06-.26-.12-.58-.19-.88l1,.57.19-.22c.18.49.35,1,.54,1.48,1.06,2.77,1.92,5.65,3.89,8a8.76,8.76,0,0,0,1.86,1.25c-.16-1.2-.28-2.07-.39-2.93l.59.55-2.22-7.68.19-.06,1,3,.28-.13c-.62-2.12-.93-4.39-2.86-5.63-1.6.58-1.31,1.95-1.49,3.29a9.84,9.84,0,0,1-.67-1.84c-.14-1.06-.08-1.07-1.17-1l.53.86-2.16-1.23Zm47,19.5,0,0,.07.82-.91-.79-1,2.81-.17,0,1-3.18-.25-.08-1.14,2.72-.14-.06.67-2.12-.51.16.72-2.21-.32-.1a5.16,5.16,0,0,0-1.23,3.09c-.31,2.82-.63,5.63-1,8.44-.11.85-.35,1.68-.54,2.52l.3.08,1.11-4.38a34.77,34.77,0,0,1-.51,4.91,3.85,3.85,0,0,0,.25,2.75l.7-1.55.14.05-.9,2.79.32.11,1.67-4.81a.63.63,0,0,1,0,.53c-.88,2.94-2.2,5.77-2.08,8.94a3.94,3.94,0,0,1-.3,1.33,7.15,7.15,0,0,1-.4.84c0-1.74.24-3.39.27-5,.06-2.66-.25-4-.95-4.94l.1,1.14-.48-.69c-.12.94-.23,1.76-.33,2.59l-.09,0-.12-1.26a5.38,5.38,0,0,0-.27.66c-.15.77-.65,1.79-.34,2.28a3.4,3.4,0,0,1,.37,2.17c0,1.26-.05,2.52,0,3.78.07,2.56.4,5.12-.31,7.64a4.78,4.78,0,0,0,0,1.15c1.76-.35,3.39-.57,5-1a3.09,3.09,0,0,0,2.51-3.2,64.69,64.69,0,0,1,1.21-8.63,6.12,6.12,0,0,1,1.44-3.08,4.52,4.52,0,0,0,1.31-2.51,20.78,20.78,0,0,0,.28-2.08c.13-1.72.23-3.43.34-5.15l-.21,0-.74,2.08-.18-.06.66-2.37-.17,0-1.77,3.53-.14-.07q1-2.42,2.08-4.83c-1.45,2.42-2.81,4.86-4.2,7.29a1.27,1.27,0,0,0,.24,1.78c.39.37.73.79,1.19,1.28-2.51-.89-2.9-1.86-1.72-3.92.94-1.64,2-3.23,2.79-4.94,1.28-2.71,2.32-5.52,3.6-8.23a6.1,6.1,0,0,1,2.16-2.9,6.47,6.47,0,0,0,2.89-5c0-.06-.05-.12-.08-.21l-.25.3-.19-.41-2.07,2.2.62-1.23-.25-.21-1.89,2-.19-.17,2.57-3.44-1,.27c1.37-1.58,2.83-3,4-4.69a8.25,8.25,0,0,0,1.87-5.76l-.91,1.14-.12-.07.22-.6-.24-.21L233,138.46l-.42-.42,3-2.59-.22-.24-.42.26c-1.75,1.12-2.73,2.89-3.81,4.56a6.63,6.63,0,0,1-2.79,2.47c1-1.41,2.17-2.77,3.13-4.25a14.11,14.11,0,0,1,4.08-4,3.42,3.42,0,0,0,.7-.72c.12-.15.13-.39.26-.52.53-.51,1.15-.95,1.63-1.51.91-1.06,1.77-2.17,2.58-3.32.22-.31.14-.83.21-1.26-.38,0-.76,0-1.13.1a2.65,2.65,0,0,0-.49.2l.5-.84a7.07,7.07,0,0,1-2.52,1.08,4,4,0,0,0-2.72,2.73c-.51,1.32-.79,2.73-1.23,4.08s-1,1.59-2.7,1.55l.92-4.86-1.7.51.79-1.26c-2.22,1.16-4.54,5.71-4,7.75l.87-3,.17,0-.68,3.31.18,0,.17-.81.31,1.14.35-1.17.17.73.33-.44.23.71h.26l.43-2.74c.08.53.05,1.06.09,1.58s.17,1,.23,1.4a15.37,15.37,0,0,0-1.22,1.37c-.68,1-.65,1-1.65.61l.34-1-.37-.13a8.55,8.55,0,0,0-.45,1.15,7.67,7.67,0,0,1-1.88,4c-.43.43-.74.48-1-.1l0,0c0-1.73,0-3.47,0-5.2,0-.26-.24-.53-.37-.79-.26.15-.67.24-.74.45a8.16,8.16,0,0,0-.57,2.3c-.07,2.33,0,4.67,0,7l.5.16,4.43-6.3v5.32l.36-.51.1.06-.95,2.8.27.1.88-2c-.49,2.14-1,4.49-1.55,6.83v-8.72l-.67,1.15v-.82l-1.57,2.19-.09-.06.41-1.1a13.24,13.24,0,0,0-3.64,5.42A3,3,0,0,0,221.15,156.17Zm-28.56-32.94,0,0-1.74-3.07a1.13,1.13,0,0,0,.07.84,16.9,16.9,0,0,1,1.1,6.9c-.13,2.65-.62,5.34.85,7.59-.25.38-.52.6-.52.81a34.47,34.47,0,0,0,.14,4.2,14.08,14.08,0,0,1-.14,5.8l-.6-3.17-.37,0c0,.6.06,1.2.15,1.79q.58,4.26,1.23,8.52a1.72,1.72,0,0,0,.37.81,11.32,11.32,0,0,1,2.74,5.25,32.63,32.63,0,0,1,.41,3.44l-.34.05c-.41-2.07-.67-4.19-1.85-6a5.31,5.31,0,0,0,.15,1.14c.07.36.13.73.19,1.09h-.1l-.66-1.95-.25.07-.09,1.48-.48-2.14c-1.64,4.14-1.76,7.13-.44,8.25l-.37-3.35h.13l1,4.42h-.07c.3,3.74.71,7.46.87,11.19s.06,7.72.12,11.57c0,.3.35.85.56.86,1.38.08,2.77,0,4.2,0-.44-5.33-.86-10.56-1.29-15.79l.2,0c.5,5.26,1,10.52,1.49,15.85.84.06,1.57.09,2.29.18s1.21-.18,1.17-1.09c-.05-1.61,0-3.22,0-4.83l.34,0v5.68l.26,0a43.79,43.79,0,0,0-.12-7.16,9.07,9.07,0,0,1,.35-3v2.56c.63-2.54,1.08-5.08.15-7.65V177c-.33-1.68-.64-3.28-1-4.88l-.31,0V174h-.1l-.17-1.12c-.79.77-1,3.6-.52,4.58a9.42,9.42,0,0,1,.48,1.77l-.35.06c-.2-1-.4-2-.61-2.92,0-.1-.06-.26-.12-.28-.73-.23-.44-.76-.35-1.21.13-.65.3-1.3.42-2,.41-2.16,1-4.28.51-6.54a33.46,33.46,0,0,1-.44-4.81c-.14-2.38-.2-4.77-.33-7.15-.22-4.09-.45-8.19-.72-12.28a4.17,4.17,0,0,0-.53-1.53c-.31-.58-.72-1.11-1.08-1.66l.3-.24,1.66,1,.37-.66.23.39c.78-.62,1.06-4,.38-4.83l-.11,1.46-.52-.92c-.36,1.3-.63,2.58-1.94,3.34.77-3-.75-6,.2-8.89h.28v7h.36v-1c0-2.27-.33-4.61.12-6.79a32.52,32.52,0,0,0,.45-8s-.06-.08-.12-.16l-.12.88-.22-.56h-.19v2.73h-.32v-3.29l-.25,0a5.69,5.69,0,0,1-1.1,3.67,14.75,14.75,0,0,0-1.41,2.44,2.66,2.66,0,0,0-.26,1.51c.27,1.51.68,3,1,4.51a7.17,7.17,0,0,1,0,1.39L197,134c-.79-4.75-2.15-9.27-5.21-13.09l1.4,2.57Zm-12.66-12.47-.63-1.7.72.76a55,55,0,0,0-2.57-5.75c-.68-1.3-.77-1.22-2.21-2.08a19.46,19.46,0,0,1-2.15-1.71,10.77,10.77,0,0,0-.27,2.22,12,12,0,0,0,.62,2.76c.95,2.77,2,5.52,2.95,8.3a1.48,1.48,0,0,0,2,1.07c.5-.1,1-.28,1.49-.42l.07.16-1,.7.19.84c-.38-.69-.8-1-1.5-.43a.23.23,0,0,1-.21,0,8.77,8.77,0,0,1-1.35-1.79c-.62-1.37-1-2.86-1.62-4.21-1.1-2.23-1.25-5-3.69-6.49,0,0,0-.1,0-.2l1.27.82.11-.11-.66-.91.34.09c.85-2.27-.84-3.64-2-5.25a4.45,4.45,0,0,1,.82.8c.23.26.47.5.83.87-.72-2.77-3-3.54-5.09-4.54l1.71,2.65-.08,0-1.63-1.56-.36.27c.19,4,3,6.47,5.45,9.19l-2.79-2,.26,2.28-.21.06-.89-1.5a9.62,9.62,0,0,0,1,3,21.79,21.79,0,0,0,4.88,5.73,27,27,0,0,1,3.43,3.67c1.62,2.15,3.06,4.44,4.57,6.67.19.27.35.57.52.86-3.13-2.24-4.5-5.79-6.7-8.69l-.21.15,1,1.81-.17.09-.87-1.32c-1.44.2-1.19,1.23-1,2.12a17.57,17.57,0,0,0,3.78,8,10.41,10.41,0,0,0,.91.85l.12-.14-2.54-3.36.1-.05,3.53,3.16c-.18.49-.63,1.09-.55,1.59a27.62,27.62,0,0,0,1,3.63,6.09,6.09,0,0,0,.47,1l.25-.09-.84-3.84.26-.06c.35,1.42.68,2.84,1,4.26a6.38,6.38,0,0,0,.75,2.48,17,17,0,0,1,2.14,4.17,10.51,10.51,0,0,1,1,6.42,1.53,1.53,0,0,0,0,.52c.5,2.89,1.22,5.75.9,8.73a1.27,1.27,0,0,0,.09.36l.4.08c.56-1.17.22-2.57.63-3.79,0,1,0,2-.07,3,0,.71,0,1.42,0,2.13a8.48,8.48,0,0,0-.09,1.41,18,18,0,0,1-.18,7.2,27.28,27.28,0,0,0-.49,4.88c-.07,1,.07,2.1,0,3.14-.1,1.19-.47,2.35-.49,3.53,0,2.23.08,4.46.13,6.68,0,1.51.09,3,.11,4.53,0,.57.16.92.83.94,1.57.05,3.15.17,4.72.21.24,0,.64-.23.68-.42a18.79,18.79,0,0,0,.59-3.22c.09-1.61,0-3.22,0-4.84a3.2,3.2,0,0,0-.2-.78c-.12-.36-.4-.74-.36-1.08a14.49,14.49,0,0,0-.29-6.67v7.22h-.32v-10a.63.63,0,0,1,.24.44c0,.15.07.3.16.71a9.62,9.62,0,0,0-1.11-5.63,10.4,10.4,0,0,1-.71-1.51c-.51-1.38-.05-2.69.31-4s1.07-2.87,1-4.27c-.15-3.14-.74-6.25-1.08-9.37-.16-1.49-.17-3-.24-4.47a14.35,14.35,0,0,0,0-1.47c-.14-1.11-.35-2.22-.51-3.33a29.06,29.06,0,0,1-.53-4.95c0-2.43-1.29-4.37-2.83-6.17l.57,1.46-.17.06-.74-1.41-.15,0,.16,1.26-1-2.57c-.19.57-.29.83-.35,1.09-.45,2.05-.94,4.09-1.32,6.15-.16.89,0,1,.83,1.25l.25-1.63c.12.51.13,1,.2,1.47a3.55,3.55,0,0,0,.28.77,2.8,2.8,0,0,1-1,.13,1.7,1.7,0,0,1-1.15-2.18c.31-1.72.75-3.42,1.1-5.13a3.5,3.5,0,0,0,.15-1.52c-.53-2-1.16-3.89-1.75-5.83-.07-.22-.11-.44-.17-.66l.3-.08c.6,2,1.2,4.1,1.88,6.44.34-1.59.61-2.88.89-4.16l.31,0q.87,2.42,1.75,4.83l.37-.12c0-.38,0-.83-.17-1.11a2.46,2.46,0,0,1,0-2.38c1.13-3.32.07-6.43-.93-9.55l.25,1.84-.17,0-.67-3-.2,0-.1,1.42H186v-1.93c-.55,1.61-.76,3.33-1.89,4.69.23-1.45.66-2.84,1-4.25a4.91,4.91,0,0,0-.68-4.48l.33,2.57h-.13l-.9-3.29-.23,0-.12,1.11-.26-1-.28-.07-.64,1.56c-.25.62-.57,1.12-1.37.82.15-1.22.3-2.38.44-3.54l.36,1c1.71-2.2.07-4-.7-5.8l.42,2.1-.13,0-.81-2.6-.18,0,.07,1.38c-.17-.39-.24-.62-.35-.83s-.27-.4-.4-.61c-.75,4.34-.36,8.39,2.45,12a4.71,4.71,0,0,1,.53,4.36c-.39-1-.73-1.85-1.1-2.76l-.62.32-.1-.14,1.15-1.22Zm35.51-9.2a33.4,33.4,0,0,0,4.37-7.3c-2,.57-2.18.46-2.41-1.66,0,0-.06-.08-.1-.13l-.4,1.43-.13,0c.07-.6.14-1.2.25-2-1.41,2-1,4.09-1.35,6l-.73-.1c.49-2.64,1-5.35,1.48-8l-.75.15.58-1.16c-2.14,2.63-3.67,5.51-3.69,9l.57-1.86.15,3-.23-.26a13.24,13.24,0,0,0-1.13.83c-.36.3-.91.63-.95,1-.12,1.23,0,2.48,0,3.72h.15l.08-1.73.26-.08.57,1c.6-.94,1.15-1.85,1.74-2.74.41-.61.76-1.47,1.73-.66l-.15.54.14.06L217,98a18.28,18.28,0,0,1-1.33,2.61,3.74,3.74,0,0,0-.25.9c.33,1.5.69,3,1,4.51a6.84,6.84,0,0,1-.35,4.15c-.11-1.56-.09-2.92-.32-4.23a38,38,0,0,0-1.08-3.85l-.18.05-.34,1.3h-.08l.13-1.52-.21,0-.68,2.15-.18,0,.37-1.79a26.08,26.08,0,0,0-1.77,3.7c-.53,1.26-1.06,2.51-1.6,3.77l-.33-.11a8.57,8.57,0,0,0,.35-5.81l-.39.73c.15-1.39.28-2.53.41-3.68l-.18,0-.64,1.89-.11,0,.1-.85-.18,0-.58,2.78-.13-1-.24,0c.19,2.09.37,4.18.56,6.26H209v-2.68h.11l.18.89.23-.64.26.07-1.1,6.23.22.05.42-1,.15.63.29-.27.12.23c-1.41,2.55-1.17,5.42-.95,8.29.32-1.45.63-2.9.95-4.36a15.29,15.29,0,0,1-.3,2.8,22.87,22.87,0,0,0-.45,2.69,20,20,0,0,0,.21,2.67l-.19,0-1.55-5.22-.46,1.5V120.5l-.19,0c-.34,1.52-.68,3-1,4.56h-.12l.23-2.4c-.71,1.44-1,5.52-.46,5.59l.14-.54.26,0a17.59,17.59,0,0,0-.13,2.51c.09,1.17.42,2.34.5,3.52.09,1.38,0,2.77,0,4.15h-.15v-3.38l-2,13.84,0,0c.33-1.58.65-3.16,1-4.74a39.45,39.45,0,0,1-1.18,7.13c-.68,2.4.11,4.75,0,7.12l-.3.05-.51-2.12-.45,1.42-.23-.43-.24.08c.37,2.31.88,4.61,1.07,6.94s0,4.63,0,6.94h.17l.29-.62a11.74,11.74,0,0,0,.3,3,13.42,13.42,0,0,1,.64,5.86c-.28,3.39-.46,6.79-.66,10.18a1.52,1.52,0,0,0,.13.53h.17l.35-2.23.15,0-.14,2.39,8.3-.6c0-.85-.27-1.5.58-2.12.46-.33.53-1.43.51-2.17,0-2.15-.22-4.29-.35-6.42l-4.3,6.27-.25-.16a34,34,0,0,0,1.73-3.19,29.81,29.81,0,0,0,1-3.31l.09.57h.15v-4h.2V178l.36.07a18.16,18.16,0,0,0,.73-3c.12-1.6,0-3.23,0-4.84.09-5.08.19-10.15,1.79-15.08.7-2.17.27-4.47-.3-6.68-.2,1.21-.23,2.43-.31,3.64s0,2.72-1.13,3.62c.15-1.39.41-2.84.45-4.29,0-1.64-.21-3.3-.14-4.94.15-3.61.32-7.22.69-10.81.43-4.21,1-8.41,1.64-12.61a12.05,12.05,0,0,1,1.35-4.33,6.44,6.44,0,0,0,.54-2.83,13.52,13.52,0,0,0-.33-2.53c-1-.07-.48,1.17-1.21,1.55l.7-2.42c-.63,1-1,2-1.52,3a28.45,28.45,0,0,1-1.82,2.57l-.07-.09c1.54-3.52,3.08-7,4.6-10.56l.39.3a3.94,3.94,0,0,0,.1-.5,17.11,17.11,0,0,1,.49-3.75,11.69,11.69,0,0,1,2.49-4.66,18.2,18.2,0,0,0,2.65-4.39,9.45,9.45,0,0,0,.56-2l-.24-.06-.94,2.11-.09,0,.58-3.46-3.25,5-.14-.08,2.22-4.07-.28-.18c-2.5,1.55-3.37,4.27-4.67,6.68l.45.23c-.59.75-1.18,1.49-1.74,2.25C216.74,101.4,216.27,101.9,215.44,101.56ZM203.67,265.05c2.65.36,3.77-.47,3.84-2.89.09-3.11,0-6.23,0-9.35,0-6.14.14-12.28,0-18.42-.18-6.31.17-12.69-1.76-18.85-.13-.4.19-.92.14-1.37-.19-1.74-.51-3.47-.68-5.21s-.12-1.72-1.8-1.86a2.31,2.31,0,0,1-.52-.18l.13.69-1.48-1,.19.84-1.89-1.05-.18.29.19.72-.14.07-.76-.89-.22.51a4.71,4.71,0,0,0-3.94-.81l.1,1.74-.14,0-.44-1.8a13,13,0,0,0,0,2.08c0,.69-.26,1.37-.3,2.06a224.55,224.55,0,0,0,.35,26.71,156.18,156.18,0,0,1-.1,20.41c-.16,2.09-.21,4.2-.21,6.31a1.52,1.52,0,0,0,.71,1.18,6.33,6.33,0,0,0,1.92.15v-6.43h.15l.29,6.28h.3l.39-2.73a12,12,0,0,1,0,2.32c0,.17.24.35.36.53a6.25,6.25,0,0,0,.45-.44c.05-.07,0-.2,0-.31s0-.2,0-.3c.17,1.47,1.26,1.08,2,1,1-.06.6-.91.6-1.41,0-1.9-.09-3.79-.11-5.68,0-2.31,0-4.61,0-6.92h0q.28,7,.58,14h.32V261.5a17.41,17.41,0,0,1,.45,2.82,2.64,2.64,0,0,0,.44.8c.13-.27.38-.55.38-.83,0-2.35,0-4.7.06-7.05v-7.76h.12ZM160.54,114.2l-.18.15.6,1.31-.17.07-1.19-2.25-.78,2-.26-1.39-.29.06c.81,4.92.81,10,3.21,14.61l-.36.13-1.82-2.87a3,3,0,0,0,.93,3.6c.74-.73,1.07-.06,1.4.46,1,1.58,1.92,3.18,2.91,4.75.56.89,1.23,1.71,1.77,2.61a5.05,5.05,0,0,1,.31,1.4l-4.91-6.6a3,3,0,0,1,0,.86c-.16.48-.56.93-.59,1.41a13.74,13.74,0,0,0,.12,2.94,14.73,14.73,0,0,0,.76,2.69,18.42,18.42,0,0,1,1.29,3.16c1,7.07,2.18,14.13,2.91,21.24.45,4.38.8,8.72,2.76,12.74a1.44,1.44,0,0,1,0,.55l-.3.1-1.65-3.7-.25.31-.35-.78-.5,1.29c-.69,2.25.14,4.38,1,6.5.63,1.59,1.24,3.18,1.87,4.76.11.29.21.77.39.8,1.52.32,3.05.55,4.52.79.31-1.15.49-2.08.81-3,.85-2.31,1.74-4.58,1.38-7.14a7.5,7.5,0,0,1,.27-2.07,4.08,4.08,0,0,0,.13-1.14c-.4-2.91-.84-5.82-1.26-8.73-.27-1.81-.54-3.61-.8-5.42l.32,0,2,13.65.36,0a25.54,25.54,0,0,0-.19-2.91c-1-5.27-2-10.53-2.93-15.8-.53-3-1.78-5.87-1.16-9a.44.44,0,0,0,0-.3c-.94-1.36.2-2.64.19-4l-.11,2.36c.87-1.58.14-4.18-1.15-6.07l.46,2.23-.14,0-.58-1.94-.32-.08a5.12,5.12,0,0,0-.44,1.32c-.07,1,0,2.1,0,3.15a7.34,7.34,0,0,1-.15.92l-.18,0q-.85-3.51-1.69-7l.08,0,1.13,3.44a3.54,3.54,0,0,0-.07-1.56c0-.2-.2-.48-.12-.59.78-1.08.14-2.17,0-3.22-.22-1.72-.56-3.44-.92-5.14s-.86-3.53-1.29-5.3l-.29.07-.18.47-.76-2.74-.16,0-.12,1.17-.22-1.47-.33,2-.16,0,.16-2.25-.44,0-.75,7.33a1.27,1.27,0,0,1-.37-.85,18.1,18.1,0,0,1,1.33-8,3.2,3.2,0,0,0,.11-2.2,25,25,0,0,0-1.63-3.23l.22,1.4c-.55-1.48-1.42-2.91-.84-4.59a1.52,1.52,0,0,0,0-.73c-.47-2.08-.9-4.17-1.42-6.24a9.9,9.9,0,0,0-2.56-4.6l.32,1.84-1.88-2.68-.35.14a12.57,12.57,0,0,0-.11,1.83c.14,1.9.22,3.83,1.24,5.52a14.26,14.26,0,0,0,1.09,1.4l1.23-1.12.43,1.41.86-.37.84,3.6-.15,0-.8-2.94-.28.06.59,3.2-.13,0-.69-2.68-.22.06.39,2.13-.13,0-.66-2.37-.23.06-.06.69-.61-1-.35.15a16.83,16.83,0,0,0,1,3c.78,1.49,1.76,2.87,2.68,4.27,1.07,1.62,1.08,1.61.58,3.69l-.34-.46.22,2-.59-1.52-.23.07.47,2.69c-.67-.9-.14-2.14-1.35-2.56.12-.16.3-.3.31-.44a1.12,1.12,0,0,1,.95-1.18c.1,0,.2-.63.08-.83C162.13,116.59,161.32,115.4,160.54,114.2Zm22.67,34.61h-.13l.12-1.86c-1.57,4.13.5,7.69,2,11.34l-.48.15-3.62-8.15c-.35,1.38-.62,2.43-.89,3.48h-.09v-3.37c-1.21,1.82-2.1,6.71-1.37,7.65V156.2h.08l.58,3.45.33-.06-.08-1.53h.13l.65,3.29.28-.05-.18-2.39h.1c.4,2,.79,4,1.22,6.18l-2.74-5-.17.08.12.75-1.69-2.34-.27.72-.28-.52-.38.09c.27,2.17.52,4.34.82,6.5.19,1.37.62,2.72.67,4.09.11,2.73-.87,5.46.09,8.28l-1.58-.46v11c.39-.2.53-.52.75-.77a8.05,8.05,0,0,1,.86-.79,3.06,3.06,0,0,1,.44,1c.06.79.41,1.05,1.19,1.07,1.09,0,2.16.26,3.25.31s2.12,0,3.29,0L186,187.5h-.19l-.12.46h-.11V186l-1.4,2.67-.18-.13c.3-1.66.6-3.33.89-4.91l.14.3.16,0v-4.38h.19v2h.07l1-10.21-.15,0-.09,1.39h-.11l-.33-3.18-.2,0-.3,1.82c-.16-.88-.29-1.65-.43-2.46a15.83,15.83,0,0,0-5.7,5.33c.62-2,2.56-3.54,1.89-5.9l.63,1.94.37,0c.06-.41.15-.81.18-1.22s0-.9,0-1.35h.13l.29,1.78.4,0,.39-2.16.87,1.44c.54-1,1-1.89,1.52-2.9l-.29,1.57c1.17-1.77,2-3.33,1.72-5.49l-.49,1.68h-.09c.11-1.1.22-2.21.34-3.31l-.26,0-.29,1.15-.32-1.74-.35,0-3.05,4.13-.77-3.14.18,0,.58,1.9.3-.05-.17-1.54.54.68.25-.06-.07-1.28.69.48-.9-2,.1,0,1,1.53.28-.16-1.33-2.71.16-.08,1.38,2.32.37,0a8.39,8.39,0,0,0,.56-2.07,27.18,27.18,0,0,0-.3-3.21l-.59-.13c.69-3,1.07-6-.75-8.68-.29.73.55,1.63-.51,2.15l-.07-.8h-.14Zm31.28,58.7c-1.6-.17-1.64-.17-1.76,1.22s-.21,3-.27,4.51c-.16,4.56-.49,9.12-.38,13.67a56.25,56.25,0,0,1-1.31,13.88c-1.3,5.77-2.49,11.57-2.25,17.55,0,1.09-.14,2.17-.13,3.26,0,.25.38.71.58.71,1.25,0,2.5-.1,3.81-.17l-.17-1.41.1,0,.47,1.28.2-.05-.19-2.21h.1c.19.8.37,1.59.56,2.39l.33-.07-.71-4.8.17,0c.3,1.6.61,3.19.91,4.78l.31-.05c-.22-1.24-.44-2.47-.65-3.7.65,1.19.5,2.62,1.17,3.78l.27-.08c-.55-2.95-1.11-5.9-1.66-8.85.68,2.47,1.27,4.95,1.7,7.46a1.81,1.81,0,0,0,2.22,1.75c-2.08-7.64-1.56-15.5-2.09-23.48a67.35,67.35,0,0,0,1,21.1.44.44,0,0,1-.25-.23c-.08-.27-.16-.54-.22-.81-2.07-9.53-1.46-19,.58-28.46a10.36,10.36,0,0,0,.31-4.56c0-.16-.28-.28-.6-.58l-.21-2.14h-.19l-.37,1.49-.24-.39h-.24l-.24,4.5a2.23,2.23,0,0,1-.61-1.56c.3-1.78.74-3.54,1.13-5.3a4.86,4.86,0,0,0,.26-1.21c-.2-3.46-.45-6.92-.67-10.38,0-.75-.07-1.51-.1-2.27h-.23v1.6h-.14Zm-7.67,6.42a144.38,144.38,0,0,1,1.36,17.77c.07,5.91.13,11.83.19,17.72a2.14,2.14,0,0,0,.17-.49c.42-2.23.8-4.48,1.25-6.71a61.88,61.88,0,0,0,1.7-13.3c-.07-5.26.21-10.51.36-15.77.06-1.87.2-3.74.3-5.7h-3.9a9.2,9.2,0,0,1,1.5,7.25c-.22-2.71-.71-5.31-2.52-7.43l-.28.1,0,.5-1.06-.79c-.42,3.21.9,5.84,1.89,8.54l-.3.08Zm-4.23-74.7a20.18,20.18,0,0,0-1.75,6.14l.34.15,0-.43c0,1.1-.27,2-.22,3,.24,4.86.55,9.73.86,14.59,0,.92.18,1.84.27,2.76l.39,0a3.63,3.63,0,0,0,.35-1.07,7.16,7.16,0,0,0-.13-1.67,22,22,0,0,1-.42-8.42c1.16-5.87,2.14-11.79,2.93-17.72.24-1.85,1-4-.58-5.72-.07-.09,0-.27-.07-.41-.26-1.44-.51-2.88-.78-4.32-.15-.74-.35-1.47-.52-2.2l.17,0,1,3.36.28-.06-.73-3.5.59,1,.22-.09c-.47-3.15-.93-6.3-1.4-9.46-.89,1.23.2,2.59-.23,4.15l-.35-2.23h-.19v1.56h-.11l-.16-.91c-.17.31-.21.53-.33.59a1.72,1.72,0,0,0-1.1,2.13,18.24,18.24,0,0,1-.16,7.32,2.61,2.61,0,0,0,.23,2.58,11.94,11.94,0,0,1,1.56,4.94,5.77,5.77,0,0,0,1.34,3.19c.73.89.73.89-.13,1.53l-.75-.92-.11.07.27.9-.12,0Zm14.91,118.6h.33a3.51,3.51,0,0,0,.18-.69c.12-3.22.31-6.44.29-9.65,0-2.7-.46-5.4-.4-8.09.07-2.93.59-5.85.76-8.79.28-4.83.38-9.67.66-14.5.18-3,.55-6.05.84-9.08a5,5,0,0,0-.1-.62l-.48,1.41-.14,0v-1a26.54,26.54,0,0,1-2.71.41c-.77,0-.91.38-.89,1.07.13,3,.17,6,.32,8.94.05.93-.26,2.06.91,2.67.12.06.11.38.13.59.16,1.32.3,2.64.47,4a3.59,3.59,0,0,0,.22.68l.11,0,.33-12.53.34,0-.6,19.77h-.24V230c-1.83,3.41-1.11,17.56-.54,23.05l.21-.33Zm5.27-66.92c1.64,3.81,1.71,7.83,1.86,11.86a11.05,11.05,0,0,0,2,5.8c.86,1.29,1.6,1.31,2.65.15,1.39-1.55,1.49-3.45,1.33-5.35a20.26,20.26,0,0,0-5.49-12A1.71,1.71,0,0,0,222.77,190.91Zm.46-3.18a2.64,2.64,0,0,0,3,.44c2.34-1,4.79-1.79,7.06-2.93a16.14,16.14,0,0,0,3.87-3c.54-.53,1-1.86.76-2.25-.46-.64-1.57-.81-2.42-1.15a.83.83,0,0,0-.51,0,29.6,29.6,0,0,0-3.64,1.29c-3.31,1.64-5.57,4.51-8,7.16A.9.9,0,0,0,223.23,187.73ZM196.91,92.59c.28,1.31.53,2.45.77,3.6l-.19,0-.71-2.76-.26.06.48,3.09-.15,0-.57-2.59-.22,0,.29,2.29-.13,0c-.2-.85-.41-1.69-.61-2.53l-.32.08.19,1.7-.72-2.12-.33.13c0,2.62,1.29,4.73,2.94,6.94a6.31,6.31,0,0,0,.58-1.35,12.61,12.61,0,0,0,0-1.74,16,16,0,0,0,0-2.19c-.21-1.42-.58-2.81-.81-4.22a13.32,13.32,0,0,0-2.93-7l.31,2.24c-.78-1.05-.89-2.56-2.6-3.2.13,2.31.26,4.5.38,6.69h.2l.13-.49a23,23,0,0,0,.76,2.58,1.58,1.58,0,0,0,1,.69c.2,0,.5-.4.76-.64l.15.78.21,0-.26-1.89.12,0,.61,2.3Zm-17.8,57.61.33-.14c-.37-3.65-2.27-6.67-4.31-9.65l-.15.66-.19-.54c-.28,4,1.72,7.28,3.24,10.74a18.93,18.93,0,0,1-3.1-5.64l-.13.85-.62-2-.26.6-.24-.71c-.35,3.11.8,5.76,2.37,8.43l.19-.61c1,1.8,1.18,2,2,1.74l-1.49-2.76.18-.09,1,1.59a1.11,1.11,0,0,0,.75-1.67c-.32-.84-.51-1.74-.75-2.62a4.27,4.27,0,0,1,.62.88Zm26.68,52.23c-.07,1.52.57,2.63,1.57,2.69,1.4.08,2.8.1,4.2.17.64,0,1-.14,1-.84.06-.94.2-1.88.34-2.82.12-.73-.11-1-.89-1-1.92,0-3.85-.09-5.78-.14h-1.2l.22,2.22ZM202,204.68l-2.64-4.86-.42.18,1.1,3.23-.16.06-1.34-3.22c-.22,0-.42.13-.48.08-.75-.71-2.59-.71-2.93.09-.49,1.15-.85,2.36-1.25,3.55,0,.05.08.15.15.29l.55-.84c.24,1.1,1.05,1.33,2.88.87l-.27-2c.27.51.34,1.07.55,1.57a1.24,1.24,0,0,0,.75.69C199.56,204.52,200.67,204.57,202,204.68Zm10.37-9.91-3,.87c-1.35.37-2.72.69-4.05,1.12a1.1,1.1,0,0,0-.59.86c0,.29.4.8.64.81,2.37.06,4.75,0,7.28,0ZM185.49,198c2,0,3.93,0,5.88,0a.85.85,0,0,0,.54-.59c.06-.79,0-1.58,0-2.4h-3.28c-2.85,0-2.85,0-3.22,2.86A.87.87,0,0,0,185.49,198ZM195.63,83.65a7.41,7.41,0,0,0-1.95-6.19l-1.24.29-.19,1.43L190,76.46l-.17.15.15.52L188.65,77c.35,2.56.7,3.28,1.78,3.54l-.39-1,.83.65.56-1-.4-1c1.1,1,.93,2.75,2.58,3.19l-.1-1.69c.37,1,.73,2,1.08,2.91l.2-1,.2,2,.23,0c-.05-.78-.09-1.57-.14-2.35h.16Zm-3.41,120.12L192,200l-5.6,1.2c-1.38.3-1.43.39-1.12,1.9Zm29-12.6c-1.46.72-2.87,1.39-4.24,2.13a.89.89,0,0,0-.23.85,23,23,0,0,0,1.38,2.71,6.28,6.28,0,0,0,1.1,1.08l.4-1,.37.71A13.07,13.07,0,0,0,221.22,191.17ZM171,91.55l-.3,0a36.82,36.82,0,0,1,.33,3.91c0,1.51,1.31,2,2,3l-.51-2,2.1,3.12.18-.07-.46-2.29.2-.18.14.58a7.16,7.16,0,0,0-2.61-6l.26.8-.2.16-.44-.78-.11.1.08.64-.11,0Zm27,17.93.34.26.15-.5.73,2.84,1.46-2.86.17.09-1.28,3c1.5-2.06,3.36-4,2.19-7l-.53,1a5,5,0,0,1,0-.63c0-.17.16-.34.15-.5a.83.83,0,0,0-.22-.6.7.7,0,0,0-.62.08C198.89,105.9,198.4,107.68,198,109.48Zm2.45,9,.24.11c1.59-1.76,3.17-6.4,2.78-8.29l-.61,3.1h-.12l.43-4-.22,0-.37,1.26-.14-.8-3.08,4,.34.33.62-1.21.19.24-1.2,2.7.17.09,1-1c-1,1.87-1,1.87-.68,2.2l.84-.93.11.09-.74,1.36.26.15,1.61-2.42.15.08ZM222.5,86.34c-2.41,1.84-4.66,3.65-4,7.27l2.22-2.47.08,0L219,94a8,8,0,0,0,3.91-5.65l-.41.22ZM177.86,97.26l-.11,0-1.07-2.24-1.27.39c.13,1.54.26,3.29.46,5a3.75,3.75,0,0,0,.61,1.12l.31-.13V97.9h.33v4.47l.29,0,.06-1.4h.1l.31,2.25H178v-1.81h.15c.07,1,.15,1.9.22,2.85.76-4.33.31-7.54-1.12-9ZM196.39,113l0-.9-.15,0-.56,2.06-.14,0,.38-2.23a8.77,8.77,0,0,0-.49,6.11c1.57-.54.7-2.12,1.31-3l.16,2.76.28,0,.27-.79.11,0-.1,1.58.23,0,.51-2.5.19,1a8.2,8.2,0,0,0-.74-6.22l.23,2.31h-.14l-.49-2.41Zm42,12.74A4.66,4.66,0,0,1,241,124.6c.57-.11,1.41-1,1.39-1.47a2.87,2.87,0,0,1,1-2.29,2,2,0,0,0,.16-.3l-.47.07v-1l-2.51,1.86-.1-.13,2-1.8c-2.75,1.41-6.26,5.12-6.16,6.95l4-3.63.1.08ZM176,163.07l.19,0v-5.21c0-.59,0-1.19,0-1.78a8,8,0,0,0-1.27-4.26c-.71-1.32-1.22-2.75-1.82-4.14l-.32.07Zm39.8,42.23c1-.16,1.93-.24,2.8-.45a.94.94,0,0,0,.52-.78c-.18-1.17-.46-2.33-.75-3.47-.06-.21-.36-.51-.53-.5a13.57,13.57,0,0,0-2.19.3.72.72,0,0,0-.41.57C215.34,202.35,215.54,203.74,215.75,205.3Zm-19.33-81.7a1.79,1.79,0,0,0,.56.23.7.7,0,0,0,.45-.26c.74-1.17.25-2.29-.17-3.41a2.15,2.15,0,0,0-.21-.33l-.11.53-.81-.66-.32.72-.1,0,.13-1.23-.17,0L194.6,121l-.14-.08.5-1.45c-1.68,2-1.7,2.7-.3,4a1.6,1.6,0,0,1,.39.74c.13.48.2,1,.29,1.47l.32,0,.11-2.43h.15l.11,1.47h.18Zm-10.5,144.65-.79.07c-.23.51-.33,1.09-.54,1.14-1.12.23-2.26.33-3.39.47l0-.27,3.44-.46,0-.37-1.71-.36,0,.18.7.24-5.84.93-.06-.32,2.79-.66h-3.59v-.14l3.26-.26a8.87,8.87,0,0,0-3-.11c-.94.19-1.94-.84-2.84.14,2,1.85,7.11,2.78,9.86,1.78-.58,0-1.16.08-1.74.1s-1.11,0-1.66,0a14.67,14.67,0,0,1,3-.38c.9,0,1.79-.06,2.16-1.18l.24.21-.67,1.16C186.41,270,186.5,269.64,185.92,268.25Zm4.29-177.2h-.13c0,.27.08.65-.07.8-.95,1-.48,2-.2,3a21.78,21.78,0,0,0,.87,2.46,1.9,1.9,0,0,0,1.91,1.53l-.34-2.38.13-.12.52.69.28-.17c-.3-.68-.56-1.38-.9-2s-.87-1.56-1.35-2.4l-.17.56Zm.72-3c.87-1.18.39-2.38.32-3.56a2.86,2.86,0,0,0-1.42-2.71L189,83.9l-.52-1.52c-.15,3.54.49,5.24,2.18,6l-1.26-1.87.13-.08Zm-37,11.75-.57-1.27a5.28,5.28,0,0,0,2.3,5.66l-.57-.88.11-.07.81.75.27,0c-.06-1.12-.06-2.25-.2-3.36s-.22-2.2-1.36-2.53ZM200.23,200c.78,1.46,1.42,2.69,2.09,3.91s1.13,1.28,2.45.82c-.35-1.4-.06-2.93-.66-4.3l-.41,0c.14,1.28.28,2.56.43,3.84a22.92,22.92,0,0,1-.82-3.34c-.05-.25-.28-.62-.48-.66C202.06,200.13,201.27,200.09,200.23,200ZM169.49,91.73c1.08-1.58.86-1.72-.08-3l-1-1.33.15-.11,2,1.86a7.87,7.87,0,0,0-4.79-4.66A58.08,58.08,0,0,0,169.49,91.73Zm-14.26,16.2-.35-.25c-.1.3-.35.64-.28.9.3,1.21.67,2.41,1.07,3.6.33,1,.81,1.81,2.09,1.29l-.78-2.15.85.92c.6-.84,0-1.34-.41-1.9l-.53-.78-1.77-2.67Zm80.42,14.81a5.48,5.48,0,0,0-3.62,4.44l.63-1,.12,0-.56,1.4c2.38-.65,3.79-2.5,5.12-4.67l-2.13.55-.06-.21ZM181.74,198l.19-.26L180.26,195l-.37.21,1.62,2.41c-1.17-.15-1.56-.68-1.62-1.63,0-.36-.45-1-.74-1a26,26,0,0,0-3.21,0l.43,2.38.24,0V196a1.33,1.33,0,0,1,.32.54,1.57,1.57,0,0,0,.29.42C178.56,198.14,180.24,197.65,181.74,198Zm12.43-83.91.27,0c0-.72,0-1.44,0-2.17a.89.89,0,0,1,.14-.51c.42-.54,1.14-1,1.25-1.6a20.3,20.3,0,0,0,.06-3.52l-1.22,1.82.65-2.71c-1.9,2.59-2.68,6.86-1.57,8.38v-3.62h.14Zm.52-14.41-.12,0-.31-.73h-.21l-.15,2.68-.41-2.55a7.3,7.3,0,0,0,.93,5.36,7.9,7.9,0,0,0,1.44-1.28,2,2,0,0,0,.42-1.5,34.61,34.61,0,0,0-1.7-3.39l-.12,0ZM179.2,133l.4-.12c.24,2.13.45,4.27,2.44,5.49-.42-1.5.33-3.35-1.16-4.76l-.21.49-1.93-2.39-.25.16.11.54-.65-.2V133l-1.75-1.14c.58,1.65,1.75,2.1,3.08,2.48Zm69.51-12.17c-.67.41-1.29.8-1.93,1.17-1.35.79-2.72,1.56-4.08,2.33l.08.19,1.81-.44,0,.12-1.72.84c1.23.89,2-.06,2.83-.38a5.94,5.94,0,0,0,2.39-1.57C248.58,122.48,248.54,121.5,248.71,120.79Zm-22.78,14.66c-1.93,2.59-2,5.5-1.58,8.72C226.49,141.41,225.72,138.34,225.93,135.45Zm-55.68,59c.28.88.34,1.94.68,2.05a30,30,0,0,0,4.19.7,14.27,14.27,0,0,0,.08-1.75c0-.23-.26-.62-.43-.64C173.39,194.63,172,194.55,170.25,194.42ZM222.92,90.86,223,91a11.75,11.75,0,0,0,2.42-1.9,9,9,0,0,0,.79-2.49,2.37,2.37,0,0,0-.91-2.87l-1.28,3.16.19.08.53-.38c-1.45,2.73-1.45,2.73-.63,3Zm-51.53-3.78-1.15-.33,1.75,4,.12-.09-.05-.64.59.94.26-.49a2.85,2.85,0,0,1,.67.43c.53.62,1,1.28,1.52,1.92A9.69,9.69,0,0,0,171,86.45ZM163.92,108h-.36l-.28,5.23.79.3.31-2.76.7,2.74.31-.07.06-1.13h.11l.1,1.08a8.11,8.11,0,0,0-1.11-5.38s-.09,0-.17-.06l.14,1Zm34-.94a7.58,7.58,0,0,1,4.06-3.89c.4-.18.56-1.11.64-1.72,0-.15-.7-.4-1.19-.66l.65-1.3a2.51,2.51,0,0,0-1.27,2.17,8.83,8.83,0,0,1-.49,2.17l-.21,0v-.9C198.11,104.15,197.64,105,197.9,107Zm4.46-9.28-.11-.16a17.11,17.11,0,0,0-2.37,2,26.3,26.3,0,0,0-1.95,3l-.65-.62a5.65,5.65,0,0,0-.19,4.45l.59-2.6.15.53ZM200,97.48l.41.15c.27-.47.83-1,.76-1.4a34.26,34.26,0,0,0-1-3.82l-.34.1.36,1.22-.1,0-.67-1.07-.28,0c-.19,1.93-.39,3.87-.58,5.8l.26,0,.22-.82.46.75.39-3.15H200Zm-14.57,97.57h-4.3a22.94,22.94,0,0,0,1.42,2.76c.17.26.84.34,1.24.27.22,0,.43-.53.53-.85a15.89,15.89,0,0,0,.3-1.7l.23.05-.24,2.23.22,0C185,197,185.19,196.09,185.41,195.05ZM165.83,91c-.1,1.91.14,2.27,1.66,2.81a3.11,3.11,0,0,1,.87.59c.32.25.61.54.91.82l.13-.15-1-1.59a10,10,0,0,1,1,.94c.21.16.58.11,1.13.18l-2.59-3.07c-.52-.63-1-.9-1.59,0Zm77.79,35.88-.4-.21-3.78,3.85a12,12,0,0,1,1.62-.21c.35,0,.81.37,1,.24a3.17,3.17,0,0,0,1.87-2.45l-.82,1.11Zm-50-7.89.13,0,.22.48a4.26,4.26,0,0,0-.29-3.43l-.75-.1v2l-.45-1.93-.24.77-.19-1.11a7.7,7.7,0,0,0,.38,4.6l.12-.08,0-.59,1,.42Zm46.47,14c-2.13.66-3,1.05-3,4.26,1.56-.14,2.11-1.41,2.78-2.55l-.44.25ZM183.81,267.36a3.12,3.12,0,0,0,1.42.17,15.22,15.22,0,0,0,2.43-1.2s0-.08,0-.09c.92-.57,1.26-2,2.67-1.83.16,0,.34-.15.51-.24-.15-.19-.29-.56-.43-.56a2.54,2.54,0,0,0-1.27.26C187.29,265,185.46,266.27,183.81,267.36ZM164,90.48l.28-.07-.56-1.74L164.93,90l.32-.25L164,87.09l2.7,2.27.13-.17-3.61-3.6A10,10,0,0,0,164,90.48Zm40.3,10.38c-2,2.26-2.18,2.79-1.33,4.15l.75-1-.18,1.35c.6-1.09,1.56-2,1.37-3.44l-1.28.25Zm39.72,21c1.2.42,3.27-.49,3.54-1.5a.86.86,0,0,0-.27-.79c-.52-.3-3,.88-3.23,1.48l.55.08Zm-45.73-33a3.84,3.84,0,0,0-1.23-4.5s-.05.21-.15.24c-1.11.39-.81,1.09-.37,1.78s.73,1,1.06,1.48l.15-.64.14,1,.34-.64ZM161.5,100.12c-.31.44-.88.91-.8,1.16a15.93,15.93,0,0,0,1.21,2.36s.05,0,.13.09l.56-.31.25.85a3.75,3.75,0,0,0,0-2.15A10.7,10.7,0,0,0,161.5,100.12Zm70.46,34c.32-2,2.15-3.28,2.34-5.41l-.69.4c.06-.21.09-.3.11-.4s.05-.23.08-.34A8.8,8.8,0,0,0,232,134.08Zm-37.83,63.21c1.61,0,2.28-.75,2.17-2.4C194,194.57,193.72,194.89,194.13,197.29Zm-23.27,3.23c1.33,0,2.51,0,3.69,0,.18,0,.35-.24.53-.36-.13-.17-.24-.46-.4-.49-1.25-.23-2.52-.4-3.9-.61Zm44.54-114c1.83-.54,2.74-2.44,1.84-3.75C215.79,83.54,215.42,84.88,215.4,86.49ZM198.51,194.76c.4.65.12,1.54,1.12,1.32s1.83-.41,2.73-.68c.22-.07.36-.41.54-.63l-.23-.24ZM220.66,80.45c1.43-.71,2.75-2.32,2.72-3.25C221.84,77.58,220.41,79.25,220.66,80.45ZM191.32,90c.53,1.81.62,3.8,2.27,5.12C193.78,93,192,91.77,191.32,90Zm-18,42-.24.42a6.88,6.88,0,0,0,1.2,1.41,5.62,5.62,0,0,0,1.63.48c.41-1.38-.81-1.64-1.53-2.2C174.14,131.89,173.67,132,173.31,132Zm2,56,.41,0c.1-1.53.19-3,.29-4.58l-.36-.05-1.3,4.52.43.14.53-1.45Zm.6-59.86c0,1.16-.27,1.16,1.79,3.09.34-.61-.08-2.52-.65-2.74-.14,0-.4.2-.67.35Zm6.51,13.73c.05,1.14-.27,2.31.6,3.32,0-.87,0-1.65,1.17-1.67C183.79,142.7,183.69,141.69,182.38,141.86ZM165.3,96.65c.07-2.91.07-2.91-.9-3.08C164,95.59,163.82,95.42,165.3,96.65Zm-6.82,13.9c.24-1.18-1-3.62-2.18-4.36C156.86,107.72,157.07,109.36,158.48,110.55Zm21.22,91.93,0,.24c1.24.07,2.48.22,3.72.21.79,0,.54-.6.4-1.13Zm39.71,2,.3.1c.14-.29.44-.61.39-.86-.23-1-.56-2.07-.88-3.1a2.51,2.51,0,0,0-.38-.58l-.23.11ZM164.13,92.27c-.42-.94-.72-1.71-1.12-2.44-.11-.22-.47-.35-.74-.42a1.89,1.89,0,0,0-.69.12C161.79,90.89,163,91.43,164.13,92.27Zm10.47,33.66-.3,0v2.2l-.63-1.11c-.16,1.49,0,1.68,1.51,2.05C175,128,174.79,127,174.6,125.93Zm39.31,74.85c-.71,1.6-.54,3.79.39,4.67C214.15,203.75,214,202.26,213.91,200.78ZM161.3,85l-.27.16.29.64-.31,0c-.07.21-.26.5-.18.63.29.52.67,1,1,1.49l.17-.1-.15-.57,1-.3Zm31.55,115-.53,0c0,1.12,0,2.25,0,3.37,0,.16.28.32.44.47.11-.11.32-.23.31-.34C193,202.33,192.94,201.15,192.85,200ZM176.76,165h-.45l.81,5.05.46-.07ZM162.25,84.45A3.27,3.27,0,0,0,160,81.76C160.12,83.12,161.08,83.8,162.25,84.45Zm66.92,45.36.15.11,2.15-1.63-.3-1.47Zm-47.34,61.3c-1.09-.2-2-.25-2.75.84C180.19,192,181.16,192.38,181.83,191.11ZM227,79.19l-.27.07c-.14.67-.33,1.34-.41,2,0,.21.24.46.37.7.19-.19.55-.37.55-.55C227.25,80.68,227.12,79.93,227,79.19Zm-38.13-5.3a2.38,2.38,0,0,0,1.93,1.79C190.87,74.4,190.57,74.11,188.9,73.89ZM170.36,191.54c0,.72,0,.73,2,.75.86,0,1.72,0,2.58,0v0Zm61-3.71c1.41-.22,1.81-.58,1.86-1.71C232.29,186.3,231.48,186.6,231.39,187.83Zm-47.82-46.77,1.59,2.57C185.21,141.64,184.87,141,183.57,141.06ZM203,197.37l-2.9.69C202.48,198.62,203,198.51,203,197.37Zm10.43-2.75-.63,0c.06,1.19.11,2.37.17,3.56h.29ZM153.68,90.56l-.26.32,2.05,1.59C155.55,90.86,154.54,90.8,153.68,90.56Zm60.95,114.59.41,0-.48-4.27-.31,0ZM179,200.23V200h-3.59C176.83,200.88,177.93,200.14,179,200.23Zm35.4-111.17-.47-.15c-.19.93-1.14,1.63-.73,2.72l.31.1ZM185.9,192l.11.3c1.28.23,1.7.08,2.54-1.11Zm17.8-92.05c1.12-1.08,1.39-2.33.75-3.29C204.21,97.71,203.94,98.87,203.7,99.94Zm17.89,41.87a5.46,5.46,0,0,0-.21,4.4C221.45,144.69,221.52,143.25,221.59,141.81Zm14.49,43.44c1.39-.77,1.56-1.1,1-1.85C236.52,183.88,235.66,184.15,236.08,185.25Zm-45.46,6-2.22.8.11.3C189.42,192.57,190.24,192.51,190.62,191.28Zm45-6.11-.32-.3c-.63.42-1.72.48-1.49,1.6l.34.3Zm-6.52,3.24c1.36.11,1.66-.17,1.5-1.42Zm-50.71,10.22-.22-.62-2.05.8.21.55Zm14.8-6.61.1.41c.82.14,1.63.25,2.06-.9Zm-7.2-.32-.23-.58-2.08.88.19.5Zm-15.59,3.83-.65-1.08c-.13.29-.37.59-.34.87a4.8,4.8,0,0,0,.43,1.16ZM215.28,191l.26.49,2.16-1.39-.27-.43Zm-6.59,15.37.13.52,2.18-.64-.13-.49ZM193,191.92c-1.17-.57-1.59-.42-2.21.75Zm34-2.77.17.25A1.59,1.59,0,0,0,228.9,188l-.23-.26Zm-21,17,.07.29a1.66,1.66,0,0,0,2.25-.81ZM165.46,82.55l-.26.32c.19.29.33.75.59.84a16.56,16.56,0,0,0,2.32.39Zm33.71,111.16-.17-.52-2.09.6.14.47Zm-19.73-2.49c-1.19-.62-1.55-.5-2.1.75Zm33.36.51.26.39,2.07-1.34-.27-.41Zm-40.34-3.16-.12-.37-2.12.66C171.34,189.68,171.89,189.09,172.46,188.57Zm35.68,3.57.19.55,2.08-.9-.18-.45Zm-18.08,12.43.07.51,2.18-.26-.07-.55Zm14-96.31c.75-1,.76-1.72-.35-2.28Zm2.68,87.08-.26-.46-2.13,1,.23.47Zm-25.36,5.86.28.44,1.73-1.08-.31-.48Zm-4.1.3.25.6,1.81-.95-.2-.44Zm4.55-9.8.13.39c.86.36,1.41-.12,1.9-.72l-.11-.32Zm-3-96a3.63,3.63,0,0,0-2.21-2.9Zm17,96.5.07.34c.78.09,1.59.25,2-.9Zm4.73.13.14.51,1.94-.49-.15-.54Zm10.13-.27.24.44,2-1.12-.26-.45ZM181,194l.2.56,1.77-.71-.18-.48ZM174.41,189l-.16-.46-2,.67.19.53Zm40,4.13c-1.77.14-1.77.14-2.08,1.26Zm-16.15-.91.17.54,1.78-.59-.16-.48Zm19.25-.31.19.25c1.46-.53,1.66-.69,1.9-1.73Zm-40.35-.79-.18-.56-1.76.6.17.51Zm2.13,10.3.29.47,1.8-1.14-.26-.42Zm49.62,9.28.39.11,1-.86-.09-.32c-.35,0-.81-.09-1,.09S229,210.38,228.92,210.72ZM175.08,191l-.13-.38c-.67-.12-1.3-.14-1.48.91Zm15.39,8.16.2.49,2-1-.17-.38Zm-5.29-5.2-.16-.56-1.89.64.14.45Zm-1.68,6.79.26.44,1.82-1.07-.25-.43Zm28.23-6.83-.15-.28c-.61.35-1.62,0-1.65,1.35Zm-37.26,4.79.24.5,1.68-.93-.24-.44Zm-1.54-.25.23.51,1.69-.94-.22-.42ZM199.6,197l.23.56,1.8-1-.19-.37Zm-21.31,2,.21.47,1.68-.72-.2-.46Zm4.12-9-.11-.51-1.85.47.1.45Zm-4.35-.4-.16-.56-1.93.59.12.44Zm21.63,4,.06.48,2.22-.41-.08-.44Zm-16.47,10.21,0,.36c1.44.25,1.44.25,2-.64Zm20.6,2.18.13.5,1.86-.55-.14-.47Zm-40-122.09.2-.23-2.3-2-.24.28Zm74.94,98-.38-.1c-.28.49-1.09.87-.59,1.54l.48.13Zm-46.11,13.15h-.23v2.6h.23Zm9.34,1.5.25.42,1.71-1-.23-.37Zm-27.85-7,.19.49,1.7-.8-.16-.39Zm-4.26.66.06.42c.58.22,1.17.56,1.7-.63Zm15.79,3.74.1.37c.66.1,1.31.17,1.63-.83Zm-3,10-.07-.5-1.94.29.07.43Zm5.13.42c1.14.65,1.38.59,2-.42Zm6.79-10.53.13.43,1.89-.53-.13-.47Zm-15.4.19.22.49,1.53-.73-.2-.44Zm-7.13-.36.25.46,1.52-.83-.22-.42Zm17.9.27.12.48,1.81-.54-.12-.45Zm-7.8,5.09-.15-.48-1.7.53.15.47Zm-7,2.67.18.47,1.74-.68-.19-.48Zm28.42,4.21-.15-.53-1.72.48.1.41Zm-23.34-16.13-.13-.46-1.71.53.13.44Z"/><path d="M206.78,155.09l.78,2.82h.15l.08-1.44-.21.07,2.19,9.21c-1,0-1.12-.45-1.25-1.39a25.63,25.63,0,0,0-1.6-5.73l-.11,1.09-.41-1.09-.43,0a22.18,22.18,0,0,0-1.22,8.09C203.73,165,205.07,156.78,206.78,155.09Z"/><path d="M213.52,182.85c-.41,1.23-.8,2.47-1.27,3.69-.07.18-.5.27-.77.32s-.44-.2-.43-.28c0-.29.1-.73.29-.83,1.15-.57,1.43-1.69,1.85-2.72a1.92,1.92,0,0,1,.12-.25Z"/><path d="M207.4,168.18c-.17,2-.33,3.93-.49,5.9h-.18l-.07-.89h-.12l-.16.91-.26-.05,1.08-5.84Z"/><path d="M213.38,141.46q.44-3.59.88-7.18l.22,0-.78,7.19Z"/><path d="M204.38,152.09q.76-3.66,1.54-7.32l.19,0-1.43,7.36Z"/><path d="M205.6,162.38c0,.27,0,.55-.07.82l-.33,3.39-.25,0c.06-.72.1-1.45.18-2.17s.2-1.37.31-2.06Z"/><path d="M190,143.77l-.81-5.43.29,0c.23,1.81.47,3.62.7,5.44Z"/><path d="M188.8,157.72c-.14-.12-.42-.24-.41-.35.07-1.45.18-2.9.37-4.36v4.75Z"/><path d="M198.92,143.72c.77,7.18,2.25,14.3,2,21.05-.73-6.66-1.53-13.84-2.32-21Z"/><path d="M199.57,157.57c.14,2.13.29,4.25.43,6.38l-.25,0-.54-6.35Z"/><path d="M195.17,164.59l-.28-4.24.23,0c.16,1.41.31,2.82.46,4.23Z"/><path d="M198.63,134.07v3.22h-.39l.18-3.22Z"/><path d="M193.32,151.75l-.54-3.67.32-.05.44,3.69Z"/><path d="M224.92,172.82c-1.23-1.67.76-2.24.64-3.42,0-.15.1-.32.36-.43C225.6,170.19,225.29,171.41,224.92,172.82Z"/><path d="M215.84,179.05l.63-5.35.19,0-.48,5.4Z"/><path d="M223.54,144.69l-.43,1.52-.42-.08.24-2,.65.6Z"/><path d="M221.15,156.17V153h.2l.21,3.55-.43-.41Z"/><path d="M225.39,149.67v4.92h-.15v-4.92Z"/><path d="M229.9,144c.78-.82,1.55-1.65,2.33-2.48l.19.18-2.32,2.49Z"/><path d="M182.25,178.5v6.95h-.15V178.5Z"/><path d="M184,162.71v2.44C183,164.92,183,164.22,184,162.71Z"/><path d="M185.26,148.66l-.27,4.7-.31,0c.13-1.57.27-3.15.4-4.73Z"/></svg>