<svg xmlns="http://www.w3.org/2000/svg" viewBox="0 0 24 25"><g id="Layer_2" data-name="Layer 2"><g id="Layer_1-2" data-name="Layer 1"><path d="M15.2,22.78a1.73,1.73,0,0,1-1.72,1.72,1.71,1.71,0,0,1-1.1-.4.6.6,0,0,0-.76,0,1.71,1.71,0,1,1-1.1-3,1.75,1.75,0,0,1,.4.05V16.81c0-.6.49-.23,1.08-.23s1.08-.37,1.08.23v4.32a1.83,1.83,0,0,1,.4-.05A1.72,1.72,0,0,1,15.2,22.78Z" fill="none" stroke="#231f20" stroke-miterlimit="10"/><rect y="0.5" width="24" height="24" fill="none"/><path d="M10.28,15.55l-2.2-4.11A8.49,8.49,0,0,1,7.9,3.53c1-1.85,2.45-3,4.1-3s3.12,1.18,4.1,3a8.49,8.49,0,0,1-.18,7.91l-2.2,4.11a1.94,1.94,0,0,1-1.72,1h0A1.94,1.94,0,0,1,10.28,15.55Z" fill="none" stroke="#231f20" stroke-miterlimit="10"/></g></g></svg>