<svg id="Layer_1" data-name="Layer 1" xmlns="http://www.w3.org/2000/svg" viewBox="0 0 1000 1000"><defs><style>.cls-1{fill:#a0b367;}.cls-2{fill:#fff;}</style></defs><path class="cls-1" d="M664.14,382.52l-1.46.6a14.26,14.26,0,0,1,3.17-2.56,88.36,88.36,0,0,0-11.07,6.53c-1.83,1.27-3.7,2.54-5.43,4s-3.46,2.92-5.13,4.43a145.37,145.37,0,0,0-16.86,18c-3.78,3.11-6.44,6.7-6,8s3.94-.24,7.71-3.37a21.4,21.4,0,0,1,2.7-1.65,157.13,157.13,0,0,0,22.1-12.35l-5,2.59a76.25,76.25,0,0,0,6.94-4.8c-.39,0-.86.09-1.25.11,1-.57,2.1-1.21,3.16-1.89s2.18-1.35,3.26-2.08a78,78,0,0,0,6.31-4.73,46.64,46.64,0,0,0,9.21-9.76c3.73-5.89-.05-7.22-8.6-2.88Z"/><path class="cls-1" d="M645.53,387.38l1.85-1.09,1.88-1,3.73-2,7.38-3.89,1.13-.3L660,377.74v.17a54.32,54.32,0,0,1-6.6,7.29c-1.35,1.29-2.79,2.59-4.25,3.92s-2.88,2.71-4.32,4l-2,2a4.17,4.17,0,0,0-1.26,2.39c.09,1.14,2.52.31,5.41-1.83l3.33-2.49L652,392.1l1.76-1.11c1.19-.78,2.42-1.6,3.65-2.46,2.46-1.72,5-3.59,7.24-5.49,4.58-3.8,8.38-7.71,9.65-10.75.56-1.39-.91-1.51-1.66-2.06-.46-1.29-4.19.11-8.3,3.11s-7,6.43-6.51,7.68l-2.24,1.35,1.34-1.6c-.45,1.77-4,4.77-6.36,7.32-1.33,1.09-2.56,2.31-3.84,3.46l4.14.56c.6-.68,1.24-1.31,1.87-2-.24,0-.68.11-.66.08,3.56-3.73,6.88-7.28,11-11.09l5-5.14c1.17-1.61.51-2.2-1.47-1.36L663.69,374l1.36-.55c-6.18,3.82-12.51,8.09-18.67,11.84a6.65,6.65,0,0,0-2.23,2.19C643.94,388,644.54,388,645.53,387.38Z"/><path class="cls-1" d="M665.6,371.59a15.7,15.7,0,0,0,3.42-2l.42-.63-2.13,1C665.77,370.57,665.27,371.31,665.6,371.59Z"/><path class="cls-1" d="M669.44,368.91l.9-.4-.68.16-.14.13Z"/><path class="cls-1" d="M454.45,597.62c-6.85,8.8-13,18.1-19.41,27.27s-12.28,18.7-18.31,28.13c-.4.63-.61,1.24-.47,1.37s.58-.29.94-.88l9-14.15,2.25-3.53,1.12-1.77,1.19-1.72,4.74-6.89c6.38-9.14,12.53-18.41,19.37-27.2.44-.61.69-1.19.6-1.38S454.88,597.07,454.45,597.62Z"/><path class="cls-1" d="M353.9,733.73c.11-.54-.08-.61-.44-.16a4.41,4.41,0,0,0-.8,1.69c-.09.47.13.55.44.17A4.39,4.39,0,0,0,353.9,733.73Z"/><path class="cls-1" d="M342.66,723c1.15-3,2.19-5.94,2.92-8.63a4.93,4.93,0,0,1,.67-1.36c-.36,0-.34-.64.05-1.75,1-2.72,1.91-5.5,3-8.22s2.25-5.45,3.42-8.19c2.33-5.49,4.76-11,7.24-16.57s5.23-11,7.94-16.53,5.48-11,8.21-16.48A2.24,2.24,0,0,1,376,644a11.9,11.9,0,0,1,1.08-3.57,34,34,0,0,1,2.47-4.36l1.55-2.18q4.49-6.72,8.94-13.43l4.46-6.69c1.47-2.24,3.11-4.37,4.66-6.55a57.4,57.4,0,0,1,3.57-6.61q3.27-6.17,6.54-12.38c1.12-2.06,2.22-4.14,3.38-6.21l3.64-6.1c-.51.37-.93.52-1.15.36-.44-.52.44-2.6,1.95-4.69l2.22-3.2-6.89,8.83c-.32.43-.64.81-.95,1.15-.59.83-1.2,1.66-1.77,2.51L408,583.45l-3.39,5.25c-20.12,30.68-35.3,61.86-48.79,93.18a4.73,4.73,0,0,1-.95,1.67c-.29.22-.46.07-.25-.52l2.55-7.63c.82-2.53,1.6-5,2.51-7.48,1.75-4.93,3.49-9.81,5.26-14.77s3.68-10,5.75-15.19c2.22-5.11,4.65-10.36,7.39-15.87,12.8-26.34,27.49-51.31,43.68-76.7,4.76-6.25,9.34-12.44,13.85-18.63l6.7-9.27,6.92-9.07c4.58-6.09,9.18-12.19,13.84-18.37,4.86-6,9.78-12.14,14.83-18.39,27.58-33.56,56.56-62.87,88.29-91.23a103.26,103.26,0,0,1,17.13-13.07,38.28,38.28,0,0,1,3.68-2,28.39,28.39,0,0,1,3.26-1.23c2-.6,3.56-.73,4.57-.31,2.43,1.06,1,5-3,10.29,1-.85,2-1.63,3-2.43l5-3.48c4.77-3.28,9.19-5.64,12.41-6.57l4.31-1.41c1.58-.29,3.3-.74,5.09-1.25s3.62-1.12,5.49-1.61a49.78,49.78,0,0,1,10.14-2l-.08,1.58,1.08-.37c3.39-1.45,6-2,7.4-1.48l.62,1.37q.63,2.68-1.41,7a2,2,0,0,1,.32,2c2.85-.27,4.71.3,4.24,2.84,1.42-.53,1.62.12.47,1.46a14.68,14.68,0,0,1-1.49,1.41h0c.86-.17,1.12-.23,2.23-.53l1.94-1.19,6-3.89a25.13,25.13,0,0,1,4.4-1.78c4.07.21,4.07.22,4.35,1.42a6.81,6.81,0,0,1-.29.62c2.22-1.2,2.38-1.29,3-1.6a8.21,8.21,0,0,1,1.21-.36c.45.42.45.42.92.34a.74.74,0,0,1,.35.31c-.71,1.39-.71,1.39-.63,1.57a5.32,5.32,0,0,1-.43.74c-1.18,1.15-1.65,1.6-1.84,1.8l-3.75.85-.28.89-1.08-.08.76.25-1.65.75,2-.76c-3.49,2.34-3.49,2.34-4.81,3.37a26.57,26.57,0,0,0-2.67,2.13.84.84,0,0,1,.34.19l-7.39,4.91a11,11,0,0,1-1.09.28,5.32,5.32,0,0,1-1.54,1.46l-1.91,1.29-.33.37,0,0-1.32,1.46-.26.31h0L639,392.72c-1.1.8-2.15,1.51-3.15,2.16l1-.47c.68-.28.54.58.88.38,2.05-1.26,4.11-2.6,6.17-4s4.11-2.85,6.27-4.21l12.84-8.47c1.42-1.16,3-1.92,3.5-1.71s-.3,1.38-1.76,2.56c-3.66,3.75-7.67,7.5-11.93,11.17l-1.61,1.38L649.68,393l-3.22,2.83q-3.27,2.82-6.65,5.55c-4.5,3.64-9.12,7.16-13.76,10.48s-9,6.75-13.46,9.77q-6.65,5.18-13.28,10.48l.81-.31c-1.21.84-2.35,1.76-3.53,2.64l-.36.31,3.14-1.48c.63-.45,1.29-.86,1.93-1.3,5.09-4.13,10.14-7.84,15.19-11.44s10-7.19,15.32-10.68c5.63-3.83,10.78-6.71,16.21-10.15,1.31-1,2.43-1.41,2.55-.95s-.89,1.65-2.17,2.62c-4,3.5-8.22,7.05-12.53,10.53-2.15,1.74-4.34,3.45-6.51,5.15s-4.26,3.5-6.4,5.18c-4.27,3.37-8.53,6.55-12.68,9.42q-3.12,2.16-6.14,4.07c-2,1.26-3.89,2.54-5.78,3.65a54.82,54.82,0,0,1-8.54,6.64l-.14.11,2.37-1c-2.29,1.82-3.92,2.35-6.09,3.94.51.09,1,.13,1.56.21-2.77,2.32-5.53,4.74-8.31,7.19s-5.38,5.08-8.09,7.58c-5.36,5-10.73,9.91-16.08,14-.4.37-.79.69-1.17,1a144.09,144.09,0,0,1-11.28,14.63l5-4.75a127.24,127.24,0,0,1-9.74,11.61c-5,5.11-10.25,10.59-15.38,15.07s-10,8.14-13.66,10c-1.15,1.32-2.23,2.69-3.31,4.06l-3.25,4.09-6.5,8.2c-4.31,5.48-8.76,10.85-12.81,16.53L470.56,575.3l-3.07,4.22-2.93,4.32-5.81,8.66c-.79,1.2-1.74,2.1-2.18,2.11s-.11-1.06.68-2.26q3.94-6.37,8-12.75c2.79-4.19,5.71-8.29,8.6-12.44l8.78-12.42,2.21-3.1,2.32-3,4.65-6c-2.79,3.2-5.66,6.36-8.4,9.64l-8.08,10-8.07,10.09c-1.34,1.7-2.7,3.38-4,5.11l-3.83,5.28-3.74,5.56c-1.24,1.84-2.59,3.57-4,5.27-1.61,2.27-3.22,4.52-4.81,6.77l-2.4,3.36c-.78,1.12-1.52,2.28-2.28,3.41-3,4.58-6,9.12-9,13.68l-4.46,6.88c-1.48,2.31-3,4.61-4.34,7-2.79,4.77-5.57,9.61-8.34,14.57-2.35,4.25-4.68,8.33-6.85,12.41L403,673.82C399,682,394.78,690,391,698.84L382.78,717c-.65,1.49-1.37,3-2,4.46L378.94,726q-1.86,4.47-3.73,8.92-3.81,8.85-7.62,17.74c-2.43,6-4.95,12-7.61,18.13-1.32,3.28-3.24,6-4.26,6s-.76-2.65.56-6l7.36-19.56c.59-1.64,1.25-3.25,1.93-4.85l2-4.82,4-9.63,4-9.65c.69-1.6,1.32-3.24,2.06-4.81l2.2-4.75q4.42-9.49,8.87-19L391,689c.77-1.59,1.61-3.13,2.41-4.7l4.89-9.39,5-9.4c1.68-3.13,3.28-6.32,5.13-9.37q5.4-9.25,11-18.54l2.81-4.65,1.41-2.33c.48-.77,1-1.52,1.49-2.28l6.07-9.13,10.45-15.54a.78.78,0,0,1-.39-.09c-.41-.28-.48-1-.24-2.07q-6,8.7-12.21,17.41-1.87,3.21-3.76,6.42c-1.25,2.14-2.55,4.26-3.71,6.46q-3.58,6.56-7.3,13.11T406.28,658c-2.53,4.46-5.09,9-7.81,13.49q-2.81,4.65-5.6,9.05c-.93,1.47-1.87,2.92-2.79,4.37l-1.39,2.15-1.32,2.18c-3.52,5.79-7.05,11.43-10.6,17.15L374,712.18c-.91,1.92-1.86,3.82-2.67,5.79l-5.08,11.7-5.1,11.72c-.85,2-1.74,3.9-2.56,5.88l-2.39,6a3,3,0,0,1-.84,1.42c-.27.15-.28-.26-.06-.92.93-2.81,1.83-5.66,2.86-8.48l3.23-8.42q3.3-8.45,6.75-17c-1.34,1.49-2.51,2.2-3.17,1.7s-.73-2.19-.21-4.5l-3.67,7.51c-.77,1.54-1.65,2.62-2,2.4s-.1-1.61.62-3.09l3.72-7.68,1.87-3.83,2-3.77q4-7.55,8-15.07,2.22-4.62,4.43-9.23c.72-1.55,1.53-3,2.32-4.55l2.39-4.52,9.61-18.1a8.59,8.59,0,0,1-3.7,2.44h0l-3.08,5.56c-17.07,34.84-33.51,70.76-49.29,107.33-.31.72-.71,1.25-.9,1.19s-.09-.68.2-1.32q3.72-8.22,7.31-16.48l3.56-8.25,1.76-4.14c.58-1.38,1.25-2.72,1.86-4.08l0,0c-.31.39-.55.38-.44-.16a4.9,4.9,0,0,1,.8-1.7c.36-.44.53-.3.45.16q3.5-7.59,6.9-15.2c2.31-5,4.43-10.19,6.89-15.14s4.72-10,7.06-15c1.16-2.5,2.32-5,3.47-7.49l1.73-3.74,1.84-3.68-1.85,3.34c-.62,1.11-1.17,2.26-1.76,3.39L373.33,691l-7,13.55-3.53,6.75-3.33,6.86q-3.34,6.86-6.76,13.66c-.74,2.1-1.47,4.19-2.23,6.32a3.42,3.42,0,0,1-.94,1.4c-.22.08-.2-.4,0-1l.64-1.76a20.61,20.61,0,0,1-2.64,4.12c-.82,1-1.5,1.45-1.95,1.21-.89-.64-.19-4,1.59-7.57l6.74-14.61,3.4-7.27c.58-1.21,1.13-2.43,1.72-3.63l1.84-3.57,1.45-3.16,1.19-3.32c-2,3.65-4.07,7.27-6,10.95L351.82,721l-5.71,11.08c-1.9,3.69-3.86,7.36-5.58,11.12-.56,1.31-1.31,2.3-1.64,2.18s-.16-1.29.41-2.61c.66-1.7,1.27-3.43,2-5.12l2.14-5.06,4.32-10.13,4.38-10.15,2.21-5.08,2.38-5,9.67-20,2.45-5c.82-1.67,1.73-3.28,2.59-4.93l5.28-9.84q2.61-7,5.24-14c.44-1.17.88-2.35,1.33-3.52l1.44-3.47,2.92-7-2,3.23a235.4,235.4,0,0,0-11.24,20.77q-2.55,5.16-5,10.25c-.8,1.7-1.59,3.4-2.39,5.09s-1.48,3.43-2.23,5.15c-5.76,13.78-11.64,27.29-17.8,41.72-.29.73-.71,1.25-.92,1.27s-.13-.56.21-1.28c1.52-3.52,2.95-7,4.33-10.43.7-1.72,1.34-3.46,2.07-5.14l2.16-5.06c2.86-6.75,5.68-13.52,8.74-20.52q.94-2.17,1.88-4.33c.63-1.43,1.33-2.81,2-4.21q2-4.2,3.93-8.3c2.58-5.49,5.08-10.91,7.47-16.31q-4.31,7.92-8.32,15.82l-4,7.89-2,3.95-1.83,4q-3.64,8-7.3,16c-2.41,5.36-5,10.65-7.3,16.14a8.46,8.46,0,0,1-1.35,2.39,1,1,0,0,1,0,.64c-.84,2.89-1.92,6-3.08,9.07a3.4,3.4,0,0,1-.93,1.51C342.45,724.09,342.45,723.66,342.66,723ZM607.3,410l.58-.22-1.79,1.07-3.11.78Zm24.23-27.16v0l1.79-.41ZM480,554.39l2.8-3.63c.94-1.2,1.94-2.35,2.92-3.52q2.94-3.5,5.94-6.93,6-6.85,12.22-13.45c-1.8,2.34-3.59,4.67-5.4,7l-9.24,10.22-4.67,5.1C483,550.86,481.57,552.66,480,554.39ZM629.2,398.68a53.87,53.87,0,0,1-8,3.08c-.78.74-1.58,1.47-2.42,2.19s-1.65,1.49-2.51,2.21c-4.62,3.9-9.19,7.62-13.75,11.23.91-.11-.18.76-.68,1.27s-1,1-1.56,1.53c4.91-3.79,9.85-7.56,14.89-11.38C619.64,405.3,624.65,401.66,629.2,398.68Zm32.73-28.18.53-.17-.46,1.31Zm.68-2.14-.77.45C661.92,368.39,662.21,368.3,662.61,368.36Zm-7.08,4.14a6.5,6.5,0,0,0,1.17-.37Zm-18.36-14.4-.25,5,.57-5.05Z"/><path d="M445.94,607.89c.17-1.95.34-3.91.5-5.68.2.35.51.92.83,1.48l.56-.1v-7.48h.59l.26,3.91.49,0V581.12h.51c.17,3.8.34,7.61.5,11.41H451c0-4.92,0-9.84-.06-14.76,0-.46-.87-1.26-1.39-1.31-7.6-.71-15.22-1.33-23.27-2V594h-1.06V575.32l-1.25,0q-.75,29-1.51,58l-.91.14c-.28-1.35-.55-2.71-.86-4.06a44.64,44.64,0,0,0-1.42-5.91c-.88-2.36-2.12-4.58-2.68-7.11l4.11,7.4c.57-16.93,1.12-33.08,1.68-49.59l-11.18-.66v7.77l-.49.06-1-7.55-1.16.12c.3,6.07.61,12.14,1,19,.81-2.13,1.36-3.6,2.08-5.5l9,16.88-.78.48q-1.85-2.37-3.7-4.72l-.42.23,2.44,4.71-.42.3-3.49-5.15.66,3.75-.4.14-2.21-6.77a32.77,32.77,0,0,0-1.64,18.61c1.38,6.44,3.3,12.77,4.89,18.78h-3.46c-.37-10.92-5.39-21.6-3.59-33.26.75-4.88-.68-10.08-1.07-15.14-.23-2.89-.17-5.82-.63-8.68-.26-1.67-1.34-3.2-2-4.82a14.36,14.36,0,0,1-.66-2.6c-.14-.79.13-1.83-.28-2.38-1.55-2.1-1.23-3.44.73-5.27,1.65-1.53,1.28-3.87-.71-5.33-2.29-1.69-2.51-3.3-.42-5.32,1.63-1.56,1.65-5.74-.08-7.13s-1.44-2.72-.42-4.29c1.92-2.94,1.67-4.39-1-6.81-.52-.47-1.35-1.29-1.22-1.67.92-2.61-1.09-5.7,1.41-8.11a3.44,3.44,0,0,0,.34-2.87c-.86-3-1.42-6.21-3-8.74-6.11-9.52-6.81-19.87-6.1-30.75.55-8.35,3.72-16.47,1.78-25.06-1.21-5.34-1.84-10.82-2.58-16.26-2.09-15.29-4-30.61-6.26-45.87-.43-2.93-2.52-5.58-3.5-8.48a45,45,0,0,1-2.54-9.8c-.54-5.45-.38-11-.67-16.45a5.77,5.77,0,0,0-1.25-3.58c-3.56-3.41-4.85-7.61-4.88-12.35,0-6.43.22-12.87-.19-19.28-.3-4.84-.61-9.64-4.33-13.79a34.31,34.31,0,0,1-8.38-19.39,2.43,2.43,0,0,0-.08-.61c-3-6.64-3.77-13.52-3.69-20.81,0-4.1-2.49-8.21-3.68-12.36a12.48,12.48,0,0,1-.17-4c.23-4.62.72-9.23.74-13.85,0-2.47-.72-5-1.15-7.58,5.21-.18,9.1,2.13,12.4,5.93a32,32,0,0,0,4.78,4.21A31.65,31.65,0,0,1,380,255.91a9,9,0,0,0,2.06,3.31c6,5.4,8,12.18,7,19.94a6.59,6.59,0,0,0,1.6,5.88c5,5.7,7.15,12.52,7,20.06a8.14,8.14,0,0,1-.72,3.91c-1.82,3-1.36,5.61.3,8.44,4.24,7.22,7,14.82,5.34,23.4a3.3,3.3,0,0,0,.06,1.85c2.71,5.79,2.48,12.11,3.51,18.21.39,2.36,2.15,4.51,3.36,6.71s2.48,4.27,3.78,6.48c2.23-7.27,1.49-16.91-1.65-23.32-2.77-5.66-1.93-11.53-.85-17.37.31-1.65,1.59-2,2.81-1,2.41,1.93,4.77,3.94,7,6.09,3.53,3.42,6.9,7,10.38,10.49,1.38,1.37,2.89,2.6,4.34,3.9l.72-.42c-1.18-2-2-4.37-3.59-6.06-9.68-10.46-15.24-22.37-13.26-36.94a5.24,5.24,0,0,0-1.93-5.09,141.23,141.23,0,0,1-10-10.22c-5.78-6.73-8.14-14.74-8.42-23.53a7.92,7.92,0,0,0-2.05-4.77c-5.12-5.35-7.82-11.86-9.86-18.8a34.66,34.66,0,0,0-2.65-5.75c-.89-1.74-2.38-3.32-2.78-5.15-1.27-5.81-2.09-11.73-3.22-17.57-.51-2.63-1.31-5.2-2.06-7.77s.32-3.21,2.67-2.93c4.16.49,8.14,1.41,11.58,4a5.66,5.66,0,0,0,3.08,1.19c3.71.07,6.43,1.89,9.05,4.26a39,39,0,0,0,6.15,4.61,37.1,37.1,0,0,1,11.17,10.15,71,71,0,0,0,8.16,9.25c4.08,3.92,8.26,7.65,8.75,13.8a2.46,2.46,0,0,0,.5,1.12,70.5,70.5,0,0,1,9.55,20.79c.61,2.14,3,3.69,4.3,5.72,1.68,2.71,3,5.63,4.64,8.7l2.35-.87A4.59,4.59,0,0,1,459,292c1.84,9.12,3.86,18.21,5.35,27.38a26.81,26.81,0,0,1-.47,10.44c-1.76,7,.16,13.48,2,20.08A129,129,0,0,1,468.86,364c.9,5.7,1.38,11.47,2,17.21l.77.13a7.12,7.12,0,0,0,.62-2.23c-.31-4.54-.77-9.06-1.09-13.59a60,60,0,0,1-.34-9c.86-10.46.27-20.65-3.72-30.56-1.29-3.2-1.54-6.84-2.07-10.31a12.67,12.67,0,0,1,.43-3.46l1.09-.24c1.11,2.7,2.22,5.39,3.1,7.51,1.73-7.13,4.16-14.49,5.2-22,1.13-8.15,2.05-16.48.33-24.72a10.49,10.49,0,0,0-1.89-4.42,42.72,42.72,0,0,1-9.84-24.05,6.17,6.17,0,0,0-.63-2.36c-2.76-5.14-3.1-10.63-2.72-16.31a14.54,14.54,0,0,0-.88-6,33.3,33.3,0,0,1-1.57-20c1.07-4.71-.28-10-.58-15a25.4,25.4,0,0,0-.42-2.57c6.69,0,10.86,3.41,14.19,8.27a6.47,6.47,0,0,0,1.9,2c6.67,3.71,10.2,9.75,12.66,16.65a7.26,7.26,0,0,0,1.8,2.78c6.4,6,8.38,13.41,6.86,21.81a7.5,7.5,0,0,0,1.35,5.87c2.85,4.59,5.13,9.53,7.67,14.38,2.61-1.23,5.89-2.91,9.27-4.36s4.87-.58,4.48,3.09c-.73,6.77-2,13.48-2.83,20.23-.43,3.46-.11,7-.74,10.43-.6,3.2-2.1,6.22-3,9.37-.48,1.64-.38,3.44-.8,5.09-1.79,7-.09,14-.09,21,0,4,2,6.74,4.58,10.09,1.69-4.53,3.55-8.58,4.69-12.82A67.48,67.48,0,0,0,520,285.47c-1.84-9.76,1.31-18.47,7.4-26.07,2.23-2.79,3-5.65,3.66-9.15,1.09-6,3.62-11.78,5.55-17.64a11.79,11.79,0,0,0,1-3.15,19.36,19.36,0,0,1,6.17-13.63,16.53,16.53,0,0,0,2.62-3.72c3-5.47,6.72-10.5,12.33-13.22,4.08-2,8.83-2.6,13.3-3.75,1.88-.48,3.2.42,4,2.12,2.63,5.55,4.46,11.15,2.28,17.38a9.65,9.65,0,0,0,0,4.28c.74,5.72-.34,10.89-4,15.48a5,5,0,0,0-1.15,3.3c.85,7.55-1.55,14.08-5.84,20.11-8.18,11.5-12.1,24.68-14.42,38.34-.85,5.05-.32,10.35-.3,15.53a42.2,42.2,0,0,1-3.82,17.67c-2.51,5.64-3.44,12.13-4.23,18.36-1.58,12.33-2.6,24.73-3.83,37.1-.33,3.29-.57,6.59-.89,10.39l2.51-2.2a8.1,8.1,0,0,1,.83,2c.45,5.79.39,11.66,1.35,17.36,1.74,10.41-1.63,20-3.33,30-1.58,9.32-1.88,18.87-2.74,28.32l1.33.12.62-10.73.81-.21,2.75,4.15c.9-5.47,1.65-10.12,2.41-14.77a3.18,3.18,0,0,0,0-.62,45.68,45.68,0,0,1,10.46-32.29c3-3.74,3.67-7.91,1.5-12.95-1.47-3.41-1.29-8-.53-11.78a38.08,38.08,0,0,1,14.09-23.15,19,19,0,0,0,6.94-9.5,36.18,36.18,0,0,1,10.56-16.24,5.62,5.62,0,0,0,1.38-1.66c2.8-5.64,7.49-8.91,13.22-11.12a21.4,21.4,0,0,0,5.07-3.32c3-2.35,6-4.72,10.15-4.93.91-.05,1.8-.85,2.66-1.36,6.93-4.12,14.14-6.7,22.4-4.86,2.3.51,2.67,1.79,2.2,3.58-.9,3.49-1.9,7-3,10.4a24.78,24.78,0,0,1-8,11.59,18.08,18.08,0,0,0-4,5c-2.54,4.52-4.7,9.24-9.27,12.25a5,5,0,0,0-1.48,2.92c-2.42,10-8.19,17.45-16.68,23.11-1.74,1.17-2.52,3.68-4,5.35-3.27,3.71-4,7.92-4,12.8,0,9.53-4.1,17.38-11.54,23.43-3.31,2.69-5.59,5.77-5.94,10.38-1,13.12-2.3,26.22-3.62,39.31a13.64,13.64,0,0,1-4.4,9,9.34,9.34,0,0,0-2.8,4.73c-1.82,9.63-3.37,19.3-5,29l1,.43c1.43-1.54,2.91-3,4.26-4.65a68.65,68.65,0,0,1,26.06-19.16,17.08,17.08,0,0,1,14.18-.14c6.45,2.89,8.37,8.08,5.38,14.52-2.69,5.79-7.35,9.69-12.6,13a78.44,78.44,0,0,1-23.35,9.94,17.7,17.7,0,0,0-2,.76c2.54,3.37,5.1,6.48,7.37,9.8,8.06,11.82,10.64,25,9.27,39.07a18.14,18.14,0,0,1-6.16,12.21c-3.86,3.35-8,3.57-11.78.16a22.71,22.71,0,0,1-5.38-7.09,53.29,53.29,0,0,1-4.83-21c-.18-7.22-1.08-14.42-1.71-21.63a3.74,3.74,0,0,0-1.27-2.37c-.37,3.48-.76,7-1.07,10.44a1.54,1.54,0,0,0,.68,1.21c2.85,1.37,1.66,3.65.45,4.79-2.1,2-2.31,4.23-2.53,6.71a45.68,45.68,0,0,0-.65,5.54c0,1.16.95,2.26,1.32,3.43s1.35,3.08.85,3.83c-3.27,4.84-3.56,10.41-3.83,15.79-.73,14-.63,28-1.44,42-.63,11-2.66,21.84-3.07,32.8-.39,10.63.29,21.32.89,32,.66,11.54.71,23.06-1.73,34.37-1.13,5.28.49,10,1.07,15,.13,1.13.31,2.26.43,3.39.31,3-1.05,4.76-4.07,5.1-9.78,1.08-19.61,2.73-28.86-2.49a3.27,3.27,0,0,0-2.36-.44c-7.1,2.5-14.41.86-21.61,1.15-6.93.28-13.89,0-20.84.08a9.82,9.82,0,0,0-3.6.66c-4.36,1.83-8.67,3.8-13.35,5.87,0,.34-.06,1.25,0,2.15.34,4.47-.29,5.21-4.55,6.15a46.44,46.44,0,0,1-32.22-4.21,8.48,8.48,0,0,1-4.77-7.51c-.35-7.23-1.33-14.61-.33-21.68a191.86,191.86,0,0,0-1.3-60.36c-1.38-8-1.84-16.06-2.7-24.1a3.12,3.12,0,0,1,.69-2.38c.35.57.94,1.1,1,1.7,2.15,17.37,4.87,34.71,6.13,52.15.73,10-.68,20.26-1.54,30.37-.71,8.39-1.52,16.73.35,25.07a1.49,1.49,0,0,0,.75,1.08c.38-2.05.75-4.09,1.19-6.5l1.21,1.78V741.75h.89v19l13-.72a16.75,16.75,0,0,0-.69-2.88c-4.1-8.78-4.61-18.21-5-27.65-.65-15.13-.76-30.3-2.06-45.37-.9-10.48-3.43-20.83-5.2-31.24a28.9,28.9,0,0,1-.48-6.51c9.4,30,8.94,61.06,10,92h1.39v-7.61H434c.31,5.79.5,11.59,1,17.36a35.09,35.09,0,0,0,1.63,7.55c1.38,4.34,2.57,4.88,7.85,3.81q-1.55-9-3.12-18.1l.52-.11c.93,4.09,1.86,8.17,2.86,12.6.17-.92.28-1.55.36-2,1.07,1.92,2.16,3.87,3.46,6.22a44.91,44.91,0,0,0,5.27-3.19,3.44,3.44,0,0,0,.63-2.69c-1.22-8.71-2.54-17.41-3.81-26.12a3,3,0,0,1,.34-1.89q1.44,8.7,2.86,17.41h.3l.21-3.82.29,0,2.17,13.53.49,0v-3.51c.54.75.79,1.07,1.26,1.72-1.56-8.8-3.07-17.25-4.58-25.71l.65-.11c.76,4,1.53,7.95,2.4,12.42l1-3.61c.5,6.2.94,11.54,1.39,17.08,4.18-1.83,4.39-2.28,3.18-6.51l-.39,3.16-.41,0-.84-6.64.93-.34,2.5,5.95.41-.06q-1.59-8.6-3.2-17.2l.52-.09q1.77,8.12,3.53,16.22l.69-.11q-3-17.35-6.05-34.7l.63-.11c.69,3.73,1.36,7.47,2.08,11.2.77,4,1.3,8,2.45,11.86A62.21,62.21,0,0,0,470,742.7q-5.34-25.91-10.67-51.8l-.12,0c.34,2.72.67,5.44,1.06,8.58-2.21-3.57-7.25-41.15-6.79-51.09q1,8.89,2,17.79l.47,0c-.18-2.91-.43-5.83-.52-8.74-.24-7.77-.67-15.55-.5-23.32.08-3.64-2.32-6.09-3.05-9.25a19.07,19.07,0,0,0-1.07-2.77l1-.43,2.23,4.63h.34q-1.83-9.24-3.67-18.5l.95-.4a15.5,15.5,0,0,1,1.6,3.44,161.48,161.48,0,0,1,3.43,34.57c-.25,17.68,2.48,35.12,5.79,52.46,1.28,6.71,2.51,13.44,4,20.11C468.84,728,471.34,738,473.69,748c.46,2,.71,4,1,6h1.64c5.63-52.32-.61-104.53-1.33-156.86l1,2.87.62-.06c0-6.11.09-12.22-.1-18.32a3.41,3.41,0,0,0-2.14-2.44c-7-.92-14-1.59-21.54-2.4,0,1.63,0,2.93,0,4.22-.12,4.35-.43,8.71-.35,13,.06,3,.84,5.88,1,8.84.1,2.52-.09,2.39-2.7,1.89-.76-.15-1.77.69-2.57,1.21a27,27,0,0,0-2.32,1.83Zm-27.18-252.6c.73,3.24,3.31,4.4,6.31,5.3a8.8,8.8,0,0,0-2.46-4.85c-.83-.69-2.57-.3-3.91-.39L416,338.57c-.68,1-.49,1.92-.71,2.73-.57,2-1.48,4-1.95,6-.38,1.72-.25,3.26,1.83,4.32C416.63,352.36,417.59,354,418.76,355.29Zm-52.15-103,2.1,2.52,3.24,3.84.73-.43.17-3.51c1,2.29,1.83,4.35,2.79,6.62.15-.89.26-1.61.44-2.7l.51,2,.48-.08-.45-4.61.4-.06c.56,2.63,1.11,5.26,1.67,7.89.84-6.36-1.88-11.39-5.75-16-.1-.12-.65.21-1,.23-3.3.26-2.56,2.9-2.76,5l-2.63-3.25-4.07-4.53a12.71,12.71,0,0,1-.29,1.67c-3.52-.11-3.58-.1-2.61,3.34a23.83,23.83,0,0,0,1.86,4.89,8.47,8.47,0,0,0,2.32,2.12c.13.1.46-.08.82-.15L363,254.39l2.85,2Zm195.55-31.74c.75.48,1.46,1.32,2.23,1.37,3.2.23,7.91-5.21,7.65-8.86-.33.59-.54,1.05-.83,1.47s-.64.76-1,1.14c1.76-4.4,2.82-8.71,1.27-12.8l-3.57.2c-.13,1.48-.25,3.3-.45,5.12-.53,4.69-1.72,9.11-5.4,12.43l.82-2.28-.48-.32-1.38,2c3-7.9,3-8.62.46-11.78-5.63,3.19-7.21,6-5.72,11.28l3.46-4.14c-8.49,14.9-8.49,14.9-7.26,18.1a81.06,81.06,0,0,1,6.15-6.53C560.2,225.19,561.86,223.38,562.16,220.55ZM538,751.13c-5.17.06-10.35,0-15.52.22-1,0-1.9.81-2.84,1.25a13.65,13.65,0,0,0,2.12,1.85c8.72,4.88,17.92,2.85,27,1.73a2.85,2.85,0,0,0,1.81-1.78c.77-2.57-1.15-6.42-3.71-6.6-5.25-.35-10.54-.1-15.81-.1,5.68,1.15,11.66-1.05,17.38,1.89a221.05,221.05,0,0,0-27.44.52c4.53.46,9,.14,13.57.11,3.58,0,7.17.25,10.73.58a2.26,2.26,0,0,1,1.39,1.72c0,.54-1,1.4-1.63,1.49-3.52.46-7.07.73-10.6,1.07l-.1-.83L545.48,753l-.06-.89c-2.38-1.23-4.84-1.9-7.57-.91ZM420.24,374.6,416,372.91a52.6,52.6,0,0,0,.93,7,3,3,0,0,0,2.61,1.31,4.33,4.33,0,0,0,1.63-2.78c.18-.79-.33-1.73-.54-2.61l2.9,1.68.58-.64c.53,1.45,1,2.91,1.59,4.35,3.13,8.2,5.67,16.71,11.48,23.56,1.22,1.43,3.21,2.19,5.51,3.68-.47-3.56-.81-6.1-1.15-8.65l1.75,1.62c-2.31-8-4.44-15.36-6.56-22.72l.54-.15,3,8.85L441,387c-1.84-6.25-2.76-13-8.47-16.64-4.71,1.71-3.86,5.77-4.4,9.74-.84-2.26-1.74-3.81-2-5.45-.42-3.14-.26-3.16-3.47-3l1.58,2.53-6.41-3.64Zm139,57.64-.06-.09c0,.64.11,1.28.21,2.43l-2.69-2.34-3.09,8.29-.5-.15q1.41-4.68,2.81-9.38l-.75-.24-3.36,8.05-.42-.18,2-6.26-1.51.47,2.14-6.55-1-.3a15.51,15.51,0,0,0-3.65,9.14q-1.33,12.5-2.91,25c-.32,2.5-1,5-1.58,7.44l.88.22q1.63-6.48,3.28-12.94c-.34,4.88-.5,9.8-1.52,14.53a11.35,11.35,0,0,0,.75,8.11l2.06-4.58.42.14q-1.34,4.13-2.68,8.25l1,.33L554,467.38a1.93,1.93,0,0,1,.15,1.57c-2.61,8.68-6.51,17.05-6.15,26.43a12.27,12.27,0,0,1-.88,3.93,18.32,18.32,0,0,1-1.21,2.48c0-5.14.72-10,.83-14.93.17-7.87-.75-11.88-2.83-14.59l.3,3.36-1.41-2c-.36,2.78-.68,5.21-1,7.64l-.25,0c-.1-1.05-.2-2.1-.35-3.73a13,13,0,0,0-.82,1.93c-.44,2.3-1.92,5.3-1,6.75,1.46,2.28,1.1,4.24,1.09,6.42,0,3.73-.15,7.46-.06,11.18.2,7.55,1.17,15.12-.92,22.58a14.83,14.83,0,0,0,0,3.38c5.2-1,10-1.67,14.66-3s7.16-3.9,7.43-9.47c.42-8.55,2-17.07,3.57-25.51.62-3.24,2-6.86,4.27-9.1a13.36,13.36,0,0,0,3.86-7.43,52.93,52.93,0,0,0,.82-6.14c.39-5.08.68-10.15,1-15.23l-.62-.09c-.73,2.05-1.47,4.1-2.2,6.16l-.53-.19q1-3.5,2-7l-.49-.14L568,463l-.41-.19q3.08-7.14,6.14-14.29c-4.27,7.16-8.3,14.38-12.41,21.55-1.16,2-1,3.67.71,5.27,1.15,1.09,2.17,2.32,3.52,3.77-7.41-2.63-8.57-5.48-5.08-11.58,2.78-4.85,5.87-9.56,8.25-14.6,3.77-8,6.85-16.33,10.65-24.32,1.49-3.12,2.72-6.18,6.38-8.59a19.1,19.1,0,0,0,8.53-14.86c0-.17-.13-.34-.23-.62l-.75.89c-.16-.37-.32-.73-.55-1.23l-6.13,6.51c.78-1.55,1.31-2.59,1.84-3.63l-.73-.62-5.59,6.06-.55-.5,7.58-10.17-2.88.8c4-4.66,8.35-9,11.85-13.88s6.15-10.17,5.52-17c-1.11,1.38-1.9,2.38-2.69,3.37l-.35-.21.65-1.76-.71-.64-6.13,7.33-1.25-1.24L602,371l-.67-.7-1.23.77c-5.16,3.32-8.07,8.53-11.26,13.48a19.36,19.36,0,0,1-8.25,7.29c3.09-4.15,6.42-8.18,9.25-12.54a41.7,41.7,0,0,1,12.07-11.93,9.88,9.88,0,0,0,2.06-2.12c.35-.43.37-1.16.76-1.53,1.57-1.53,3.41-2.81,4.82-4.47,2.69-3.15,5.25-6.42,7.62-9.81.65-.93.44-2.47.62-3.74-1.11.1-2.22.16-3.33.3a7.67,7.67,0,0,0-1.44.59l1.49-2.49c-2.88,1.72-4.9,2.76-7.46,3.21-4,.7-6.59,4.29-8,8-1.51,3.91-2.34,8.07-3.63,12.07-1.19,3.67-3,4.72-8,4.59.91-4.79,1.8-9.47,2.72-14.36l-5,1.48,2.33-3.69c-6.56,3.41-13.4,16.87-11.75,22.88l2.57-8.84.5.12-2,9.8.53.09.5-2.39.92,3.35,1-3.45.48,2.16,1-1.3c.25.74.47,1.41.7,2.08l.74,0,1.3-8.12c.22,1.58.12,3.14.25,4.67s.49,3,.68,4.13a43.43,43.43,0,0,0-3.61,4.06c-2,2.86-1.93,2.92-4.89,1.8l1-2.85-1.1-.39a21.87,21.87,0,0,0-1.33,3.41c-1,4.4-2.24,8.61-5.56,11.93-1.27,1.27-2.17,1.4-3-.29l.11.1c0-5.11.16-10.23.12-15.35,0-.79-.71-1.57-1.1-2.35-.75.44-2,.71-2.19,1.34a23.68,23.68,0,0,0-1.66,6.79c-.21,6.9-.08,13.8-.08,20.71L563,410l13.1-18.6v15.73l1.07-1.51.28.17-2.79,8.27.78.3c1-2.15,1.91-4.29,2.6-5.81-1.44,6.35-3,13.27-4.57,20.2V403l-2,3.4v-2.44l-4.65,6.49-.26-.17c.31-.83.61-1.65,1.22-3.27-5.13,5.05-8.78,9.89-10.75,16C555.84,426.81,556.93,429.55,559.25,432.24Zm-84.42-97.38.11.1-5.17-9.08a3.56,3.56,0,0,0,.2,2.49,49.64,49.64,0,0,1,3.27,20.39c-.4,7.83-1.84,15.77,2.52,22.45-.75,1.1-1.56,1.75-1.56,2.39a107,107,0,0,0,.42,12.42c.67,5.51,1.35,11-.4,17.14-.68-3.61-1.22-6.49-1.76-9.38l-1.12.12c.14,1.77.19,3.55.44,5.3q1.77,12.58,3.66,25.17a4.8,4.8,0,0,0,1.09,2.4,33.49,33.49,0,0,1,8.09,15.52,98.18,98.18,0,0,1,1.2,10.18l-1,.13c-1.22-6.11-2-12.37-5.49-17.75a16.7,16.7,0,0,0,.46,3.35c.21,1.07.38,2.15.56,3.23l-.3,0-1.95-5.76-.73.22c-.08,1.2-.15,2.4-.27,4.37-.54-2.41-.92-4.07-1.44-6.33-4.83,12.22-5.19,21.07-1.29,24.37l-1.08-9.89.37,0c1,4.37,2,8.74,2.95,13.07h-.2c.89,11,2.11,22,2.58,33.08.48,11.39.18,22.81.36,34.21,0,.89,1,2.5,1.63,2.54,4.1.23,8.21.12,12.42.12-1.28-15.75-2.54-31.22-3.8-46.7l.59-.05,4.4,46.86c2.48.19,4.64.28,6.78.53,2.5.3,3.56-.54,3.46-3.21-.17-4.76-.05-9.54-.05-14.3l1,0V531.3l.76,0c0-7.08.82-14.29-.34-21.17-.57-3.38.64-5.91,1-8.86v7.58c1.87-7.52,3.2-15,.44-22.61v7.56c-1-5-1.88-9.7-2.8-14.44l-.91.14v5.61h-.32l-.5-3.3c-2.33,2.26-3,10.64-1.53,13.54a27,27,0,0,1,1.43,5.22l-1,.18c-.61-2.88-1.2-5.77-1.82-8.65-.06-.29-.17-.74-.36-.8-2.16-.7-1.28-2.25-1-3.59.39-1.93.87-3.84,1.24-5.78,1.2-6.39,2.84-12.67,1.49-19.36-.93-4.63-1-9.45-1.28-14.2-.41-7-.59-14.09-1-21.13-.66-12.1-1.34-24.21-2.14-36.3a12,12,0,0,0-1.57-4.53c-.9-1.72-2.11-3.27-3.18-4.9l.88-.73,4.9,2.95,1.1-2,.69,1.15c2.31-1.83,3.11-11.89,1.13-14.28-.1,1.29-.2,2.56-.34,4.33l-1.52-2.74c-1.08,3.87-1.89,7.63-5.75,9.88,2.26-8.9-2.21-17.69.58-26.27h.82v20.64l1.09,0v-2.84c0-6.72-1-13.64.34-20.09,1.63-8,1.7-15.81,1.33-23.77,0-.14-.18-.27-.34-.49-.12.82-.22,1.54-.38,2.61-.31-.81-.48-1.23-.64-1.65l-.56,0v8.05h-.93v-9.72l-.76-.06a16.79,16.79,0,0,1-3.24,10.85,43.27,43.27,0,0,0-4.16,7.24,7.9,7.9,0,0,0-.79,4.45c.8,4.47,2,8.88,2.93,13.34a21.67,21.67,0,0,1,0,4.11l-1.13.12c-2.32-14-6.34-27.39-15.41-38.69,1.31,2.39,2.61,4.79,4.15,7.6ZM437.41,298l-1.85-5,2.13,2.24a160.32,160.32,0,0,0-7.61-17c-2-3.85-2.26-3.63-6.53-6.15-2.11-1.25-3.89-3.06-6.36-5-.36,2.7-1,4.67-.8,6.56a37.56,37.56,0,0,0,1.84,8.15c2.82,8.2,5.93,16.31,8.72,24.52,1,3.05,3,3.71,5.75,3.17,1.5-.3,2.95-.82,4.42-1.25l.19.5-2.89,2.06c.21.88.39,1.68.58,2.48-1.12-2-2.36-2.92-4.44-1.29a.63.63,0,0,1-.62-.07c-1.38-1.73-3.12-3.31-4-5.28-1.82-4-2.84-8.47-4.79-12.44-3.25-6.6-3.7-14.84-10.9-19.21-.05,0,0-.28.09-.59l3.74,2.42.32-.33c-.59-.81-1.18-1.62-1.93-2.67l1,.27c2.51-6.71-2.49-10.77-5.79-15.53a13.89,13.89,0,0,1,2.41,2.37c.68.76,1.4,1.48,2.44,2.58-2.11-8.19-8.79-10.47-15-13.42l5,7.83-.24.15-4.81-4.62-1.05.79c.56,11.76,8.71,19.14,16.1,27.17l-8.24-5.85c.24,2.05.5,4.4.77,6.74l-.62.18L401.81,278a28,28,0,0,0,2.86,8.83c3.56,6.68,8.86,11.9,14.43,16.95a79.36,79.36,0,0,1,10.13,10.85c4.77,6.36,9,13.1,13.51,19.69.55.82,1,1.7,1.52,2.55-9.23-6.61-13.28-17.1-19.81-25.67l-.62.42,2.95,5.37-.51.26-2.58-3.89c-4.26.58-3.51,3.63-3,6.25a52,52,0,0,0,11.19,23.6,29,29,0,0,0,2.68,2.51l.37-.43-7.53-9.91.3-.17,10.45,9.37c-.55,1.44-1.88,3.19-1.64,4.68a83.63,83.63,0,0,0,3,10.74,20.83,20.83,0,0,0,1.41,2.84l.73-.26q-1.25-5.7-2.5-11.38L440,351c1,4.2,2,8.41,3.07,12.59.63,2.5.72,5.53,2.23,7.34,3.09,3.73,4.39,8.1,6.3,12.32,2.79,6.16,4.18,12.31,2.93,19a4.48,4.48,0,0,0,.15,1.53c1.48,8.54,3.62,17,2.67,25.8a3.34,3.34,0,0,0,.26,1.08l1.19.21c1.65-3.44.64-7.59,1.85-11.18.11,3-.1,6-.2,9-.06,2.1.06,4.2,0,6.3,0,1.4-.47,2.84-.26,4.18a53,53,0,0,1-.55,21.28c-1.14,4.65-1.14,9.59-1.44,14.42-.19,3.09.2,6.21-.05,9.29-.29,3.5-1.39,7-1.45,10.44-.13,6.58.22,13.16.38,19.74.11,4.46.26,8.92.32,13.38,0,1.68.48,2.71,2.45,2.77,4.66.15,9.31.51,14,.63a2.52,2.52,0,0,0,2-1.24,53.54,53.54,0,0,0,1.74-9.51c.26-4.76,0-9.54-.06-14.31a8.78,8.78,0,0,0-.6-2.3c-.35-1.08-1.18-2.2-1-3.2.87-6.59,1.32-13.15-.87-19.72v21.35h-.93V472.63a1.93,1.93,0,0,1,.71,1.28c.09.44.19.88.45,2.1a28.5,28.5,0,0,0-3.27-16.64,28,28,0,0,1-2.09-4.47c-1.51-4.07-.16-7.94.91-11.85,1.14-4.18,3.15-8.47,2.94-12.62-.47-9.26-2.19-18.46-3.2-27.71-.48-4.37-.5-8.8-.71-13.2-.07-1.45.07-2.92-.12-4.35-.43-3.28-1-6.54-1.51-9.82-.69-4.86-1.71-9.63-1.59-14.66.18-7.17-3.8-12.92-8.34-18.23l1.67,4.33-.48.18c-.74-1.4-1.47-2.8-2.21-4.19l-.45.16c.15,1.16.3,2.31.48,3.72-.95-2.45-1.78-4.61-2.93-7.59-.54,1.69-.84,2.43-1,3.21-1.34,6.05-2.8,12.09-3.9,18.19-.48,2.64.05,3,2.44,3.7.25-1.62.49-3.22.74-4.82.35,1.49.37,2.93.58,4.34A12.61,12.61,0,0,0,454,366c-1,.14-2.18.63-3.1.36-3.22-.93-3.91-3.59-3.39-6.43.92-5.09,2.2-10.1,3.26-15.17.3-1.48.8-3.14.43-4.5-1.57-5.79-3.44-11.5-5.18-17.24-.2-.63-.33-1.28-.49-1.93l.89-.24,5.56,19c1-4.71,1.8-8.5,2.61-12.29l.92.11q2.58,7.14,5.17,14.29l1.1-.37c-.14-1.11.06-2.45-.49-3.28-1.62-2.45-.76-4.71,0-7,3.33-9.79.21-19-2.75-28.21l.75,5.43-.49.06c-.67-2.95-1.33-5.9-2-8.86l-.6.14c-.1,1.4-.2,2.8-.29,4.2l-.53-.05v-5.68c-1.63,4.76-2.25,9.82-5.57,13.86.67-4.3,1.94-8.4,3-12.57,1.07-4.36,1.35-8.7-2-13.24.39,3,.68,5.31,1,7.61l-.36,0q-1.34-4.87-2.68-9.74l-.69.16-.34,3.27c-.34-1.35-.55-2.19-.77-3l-.82-.2q-.94,2.3-1.88,4.59c-.75,1.85-1.7,3.31-4.06,2.43L441.48,281c.33.92.68,1.88,1,2.85,5.06-6.47.23-11.65-2.07-17.14l1.26,6.21-.4.06c-.8-2.55-1.6-5.11-2.39-7.66l-.52.12c.06,1.2.11,2.39.19,4.1-.48-1.15-.71-1.83-1-2.45s-.78-1.2-1.18-1.8c-2.21,12.81-1.05,24.78,7.26,35.4,2.84,3.63,2.9,8.06,1.57,12.88l-3.26-8.17-1.82,1-.32-.4,3.4-3.63Zm105-27.18a98.22,98.22,0,0,0,12.92-21.59c-6,1.69-6.43,1.37-7.11-4.89,0-.13-.17-.24-.31-.41-.4,1.47-.78,2.85-1.17,4.23l-.39-.1c.21-1.77.43-3.54.73-6-4.15,5.87-3,12.09-4,17.75l-2.16-.3c1.44-7.78,2.91-15.79,4.38-23.76l-2.23.45,1.73-3.42c-6.34,7.76-10.86,16.27-10.93,26.59.48-1.57,1-3.15,1.69-5.48.17,3.28.29,5.75.45,8.87l-.69-.76c-1.19.86-2.33,1.57-3.35,2.44s-2.69,1.88-2.79,2.94c-.35,3.64-.13,7.33-.13,11h.44c.08-1.71.17-3.42.25-5.12l.77-.24,1.69,2.87c1.76-2.79,3.39-5.48,5.14-8.1,1.21-1.81,2.24-4.35,5.11-2L542,267.4l.43.19,4.69-7.17a52,52,0,0,1-3.93,7.69,11.41,11.41,0,0,0-.73,2.67c1,4.44,2,8.87,2.95,13.33a20,20,0,0,1-1,12.26c-.31-4.61-.26-8.61-.94-12.48s-2.1-7.61-3.19-11.41l-.54.16-1,3.85-.27,0,.4-4.49-.62-.1c-.67,2.12-1.35,4.24-2,6.36l-.51-.15c.36-1.76.73-3.53,1.09-5.29a76.22,76.22,0,0,0-5.25,11c-1.55,3.71-3.14,7.42-4.71,11.13l-1-.31a25.3,25.3,0,0,0,1.05-17.16l-1.15,2.13c.45-4.1.82-7.48,1.2-10.86l-.53-.11c-.62,1.86-1.25,3.72-1.87,5.57l-.35-.11.32-2.51-.53-.09-1.73,8.2-.39-2.87-.69.07q.81,9.26,1.63,18.52l.56,0v-7.91l.35,0c.15.73.3,1.46.53,2.64l.67-1.89.76.2-3.25,18.41.67.15,1.23-2.89.44,1.85.86-.79.35.66c-4.16,7.54-3.46,16-2.79,24.52l2.79-12.88a46.39,46.39,0,0,1-.88,8.26,64.14,64.14,0,0,0-1.32,8,60.32,60.32,0,0,0,.62,7.9l-.57.11c-1.51-5.08-3-10.15-4.58-15.44l-1.37,4.43v-3.78l-.55-.06q-1.5,6.75-3,13.5l-.33,0c.2-2.13.4-4.25.67-7.09-2.1,4.26-2.94,16.31-1.36,16.53.13-.52.27-1.06.4-1.6l.8.11a51.28,51.28,0,0,0-.4,7.41c.27,3.48,1.24,6.91,1.47,10.4.27,4.08.07,8.19.07,12.29h-.46v-10c-2,13.76-3.91,27.34-5.86,40.92l.13,0q1.45-7,2.92-14a116.16,116.16,0,0,1-3.5,21.07c-2,7.09.31,14,0,21l-.9.14c-.44-1.85-.89-3.7-1.51-6.27l-1.31,4.22-.68-1.28-.73.24c1.1,6.83,2.62,13.63,3.17,20.51s.12,13.67.12,20.52h.49c.27-.55.53-1.09.88-1.83.27,3.19-.1,6.27.86,8.86,2.11,5.69,2.38,11.39,1.9,17.33-.81,10-1.34,20-2,30.08a5.39,5.39,0,0,0,.39,1.57h.5l1.05-6.57.44.07c-.13,2.13-.26,4.27-.43,7.08l24.55-1.77c-.08-2.53-.81-4.46,1.72-6.28,1.36-1,1.55-4.22,1.5-6.42-.13-6.34-.66-12.67-1-19-4.36,6.36-8.55,12.44-12.73,18.52l-.72-.47a103.69,103.69,0,0,0,5.12-9.43,94.64,94.64,0,0,0,3.08-9.8c0,.23.15,1,.26,1.71l.44,0V487.31h.58v9.36l1.08.19c.75-3,1.92-6,2.14-9,.35-4.74,0-9.54,0-14.31.29-15,.59-30,5.3-44.57,2.08-6.42.8-13.21-.87-19.75-.59,3.59-.68,7.18-.94,10.77-.27,3.89.06,8-3.34,10.69.47-4.12,1.24-8.39,1.36-12.68.14-4.86-.65-9.75-.44-14.6.46-10.66,1-21.34,2-31.95,1.27-12.46,3-24.87,4.86-37.27a35.42,35.42,0,0,1,4-12.8c1.35-2.35,1.5-5.55,1.62-8.38.1-2.42-.61-4.87-1-7.47-3-.21-1.44,3.45-3.6,4.58.74-2.54,1.42-4.85,2.09-7.16-1.86,2.81-2.92,5.95-4.5,8.78a79.34,79.34,0,0,1-5.38,7.61l-.2-.26c4.55-10.43,9.09-20.87,13.6-31.23l1.14.89c.14-.69.26-1.08.3-1.47.44-3.72.21-7.67,1.44-11.11,1.74-4.85,3.38-9.72,7.36-13.76,3.45-3.51,5.46-8.5,7.84-13,.92-1.73,1.12-3.85,1.64-5.79l-.68-.18q-1.39,3.12-2.8,6.23l-.25-.12c.52-3.12,1-6.25,1.69-10.22l-9.59,14.94-.42-.25L566,242l-.83-.52c-7.37,4.56-9.94,12.62-13.79,19.74l1.31.67c-1.73,2.23-3.48,4.41-5.14,6.65C546.23,270.34,544.85,271.81,542.37,270.82ZM507.6,754.08c7.81,1.06,11.14-1.38,11.35-8.53.27-9.21.09-18.43.09-27.65,0-18.15.42-36.31-.1-54.44-.54-18.65.51-37.52-5.2-55.73-.37-1.19.57-2.73.42-4.05-.58-5.15-1.5-10.26-2-15.41s-.36-5.08-5.32-5.49a7.89,7.89,0,0,1-1.53-.52l.38,2-4.36-2.94.55,2.49-5.6-3.09-.54.83.59,2.13-.43.22-2.23-2.64-.68,1.51c-2.28-2.27-7.2-3.27-11.64-2.39.1,1.69.2,3.42.3,5.14l-.4.07c-.43-1.78-.87-3.55-1.3-5.32-.35,2.14.14,4.15.1,6.15s-.76,4-.89,6.07c-1.68,26.35-.39,52.67,1,79a459.76,459.76,0,0,1-.29,60.31c-.48,6.19-.62,12.43-.63,18.64a4.5,4.5,0,0,0,2.11,3.49c1.68.66,3.73.36,5.69.47v-19h.43l.84,18.56.91,0q.58-4,1.15-8.06a39.26,39.26,0,0,1,.1,6.85c0,.51.68,1,1.05,1.56a11.51,11.51,0,0,0,1.32-1.29c.15-.2,0-.61,0-.92s.08-.58.12-.88c.51,4.35,3.74,3.2,6.08,3,2.8-.19,1.76-2.68,1.76-4.18,0-5.59-.28-11.19-.34-16.79-.07-6.81,0-13.62,0-20.43h.14l1.71,41.25h.95V743.6a52.7,52.7,0,0,1,1.34,8.33,7.87,7.87,0,0,0,1.28,2.37c.4-.82,1.13-1.64,1.15-2.47.13-6.94.14-13.89.16-20.84,0-7.64,0-15.28,0-22.92h.37ZM380.08,308.18l-.52.43,1.77,3.9-.48.2c-1.12-2.11-2.24-4.22-3.53-6.67-.93,2.42-1.67,4.38-2.31,6l-.77-4.12-.85.17c2.41,14.54,2.41,29.52,9.48,43.2l-1.06.38-5.37-8.48c-1.58,3.82-.85,7.48,2.74,10.63,2.19-2.15,3.16-.17,4.13,1.38,2.91,4.65,5.69,9.39,8.62,14,1.66,2.62,3.62,5.06,5.22,7.71.59,1,.55,2.36.93,4.14l-14.54-19.51a8.78,8.78,0,0,1,0,2.53c-.49,1.44-1.67,2.76-1.76,4.19a40,40,0,0,0,.38,8.68,42.61,42.61,0,0,0,2.23,8c1.15,3.16,3.32,6.1,3.81,9.32,3.12,20.9,6.45,41.79,8.6,62.79,1.33,13,2.38,25.77,8.16,37.68.21.44,0,1.07,0,1.61l-.88.31-4.88-10.94-.71.89-1.06-2.28L396,488.15c-2.05,6.67.41,13,2.89,19.23,1.85,4.69,3.67,9.39,5.52,14.08.33.84.63,2.25,1.15,2.36,4.49.93,9,1.61,13.38,2.34.91-3.41,1.44-6.17,2.4-8.78,2.5-6.83,5.12-13.56,4-21.11-.28-2,.53-4.08.82-6.13a12.61,12.61,0,0,0,.38-3.36c-1.19-8.61-2.47-17.21-3.74-25.82q-1.17-8-2.36-16l1-.14,5.88,40.36,1.06-.13a76.46,76.46,0,0,0-.57-8.58c-2.82-15.59-5.87-31.13-8.65-46.73-1.57-8.79-5.28-17.33-3.44-26.58a1.33,1.33,0,0,0-.09-.89c-2.76-4,.59-7.82.58-11.73l-.34,7c2.58-4.69.42-12.36-3.39-18l1.36,6.59-.42.09c-.57-1.91-1.14-3.83-1.7-5.74l-.95-.22c-.46,1.3-1.24,2.57-1.32,3.88-.2,3.1,0,6.22-.08,9.33a18.37,18.37,0,0,1-.45,2.72l-.53-.08q-2.5-10.36-5-20.74l.25-.08,3.33,10.15a10.22,10.22,0,0,0-.19-4.59c-.12-.6-.61-1.43-.37-1.75,2.32-3.19.42-6.41,0-9.52-.64-5.1-1.64-10.16-2.72-15.19-1.13-5.25-2.53-10.44-3.81-15.66l-.86.2-.54,1.38c-.76-2.79-1.5-5.44-2.23-8.09l-.48.11-.35,3.45-.64-4.34c-.42,2.55-.71,4.26-1,6l-.46-.05c.16-2.23.31-4.45.46-6.68l-1.31-.09-2.19,21.68a3.73,3.73,0,0,1-1.11-2.52c0-8.1.32-16.12,3.94-23.7a9.44,9.44,0,0,0,.31-6.5c-1.18-3.41-3.23-6.52-4.8-9.55.17,1.14.41,2.64.64,4.15-1.63-4.4-4.19-8.62-2.49-13.59a4.23,4.23,0,0,0-.09-2.14c-1.37-6.16-2.66-12.34-4.2-18.46a29.19,29.19,0,0,0-7.55-13.6c.44,2.54.72,4.16.95,5.45l-5.57-7.93-1,.41a39.58,39.58,0,0,0-.33,5.41c.43,5.62.65,11.32,3.68,16.33a43.42,43.42,0,0,0,3.21,4.12l3.64-3.3c.27.9.75,2.46,1.27,4.17l2.55-1.09c.86,3.72,1.67,7.18,2.47,10.64l-.43.09c-.79-2.89-1.57-5.79-2.36-8.69l-.84.16,1.74,9.48-.36.05c-.69-2.64-1.37-5.29-2.06-7.93l-.64.17,1.15,6.31-.38.06-2-7-.66.17-.2,2.06L377,292.44l-1,.45c.91,3,1.39,6.26,2.83,9,2.3,4.38,5.19,8.46,7.92,12.61,3.15,4.78,3.19,4.75,1.71,10.92l-1-1.36.64,5.92-1.74-4.48-.69.19c.44,2.49.87,5,1.39,8-2-2.64-.42-6.33-4-7.55.35-.49.88-.89.91-1.32a3.32,3.32,0,0,1,2.82-3.49,3,3,0,0,0,.23-2.43C384.79,315.23,382.41,311.73,380.08,308.18Zm67,102.31-.37,0c.11-1.83.23-3.67.34-5.5-4.64,12.2,1.48,22.72,5.88,33.52l-1.42.44-10.69-24.08c-1,4.06-1.83,7.16-2.62,10.27H438v-10c-3.58,5.38-6.22,19.85-4,22.63v-5.43h.22l1.71,10.19,1-.18c-.08-1.51-.15-3-.22-4.52l.36,0,1.94,9.71.81-.14c-.18-2.35-.35-4.71-.53-7.07h.32c1.16,5.88,2.32,11.75,3.6,18.25-2.92-5.35-5.51-10.12-8.1-14.88l-.5.21c.1.7.21,1.4.34,2.24-1.66-2.32-3.19-4.43-5-6.93-.46,1.19-.62,1.63-.81,2.12-.3-.56-.55-1.05-.81-1.54l-1.15.27c.81,6.41,1.54,12.84,2.44,19.24.57,4,1.82,8,2,12.08.33,8.07-2.58,16.14.26,24.47l-4.69-1.36v32.62c1.18-.6,1.59-1.55,2.23-2.3a26.68,26.68,0,0,1,2.54-2.32c.46.94,1.24,1.86,1.31,2.83.17,2.35,1.22,3.1,3.53,3.17,3.2.09,6.38.75,9.58.92s6.27,0,9.75,0c-.21-1.78-.38-3.21-.54-4.63h-.57c-.12.45-.23.9-.35,1.36h-.32v-5.69c-1.54,2.94-2.84,5.41-4.13,7.89l-.56-.38c.89-4.92,1.79-9.85,2.64-14.53l.42.89.48-.12V501.34h.56v5.79l.21,0,2.91-30.18-.45,0-.27,4.1-.3,0-1-9.42-.59,0c-.28,1.7-.56,3.4-.89,5.36-.45-2.59-.85-4.85-1.26-7.25a46.57,46.57,0,0,0-16.85,15.74c1.83-6,7.58-10.47,5.6-17.44l1.83,5.73,1.12-.05c.18-1.2.43-2.39.51-3.59s0-2.67,0-4h.37l.87,5.28,1.18.07c.37-2,.74-4.06,1.16-6.38l2.57,4.28c1.58-3,2.92-5.6,4.47-8.59-.28,1.59-.48,2.69-.83,4.65,3.43-5.23,5.77-9.85,5.07-16.24l-1.44,5-.27,0,1-9.77-.75-.07c-.31,1.23-.61,2.45-.85,3.4-.31-1.61-.64-3.37-1-5.14l-1-.1-9,12.21c-.8-3.28-1.54-6.28-2.27-9.29l.52-.11c.58,1.88,1.15,3.75,1.72,5.63l.89-.17c-.16-1.42-.32-2.84-.5-4.53l1.59,2,.74-.18-.2-3.78,2,1.44-2.66-6,.29-.12,3.11,4.53.8-.48-3.92-8,.49-.22q2,3.42,4.06,6.84l1.12.11c.58-2,1.6-4.09,1.64-6.14a77.18,77.18,0,0,0-.88-9.48l-1.77-.39c2.05-8.9,3.18-17.6-2.21-25.66-.84,2.16,1.63,4.84-1.5,6.37-.07-.72-.14-1.54-.22-2.36h-.41ZM539.57,584c-4.73-.48-4.84-.49-5.2,3.62-.39,4.44-.63,8.89-.79,13.34-.48,13.47-1.46,27-1.14,40.41a166.6,166.6,0,0,1-3.86,41c-3.86,17.07-7.35,34.22-6.67,51.9.13,3.2-.41,6.42-.37,9.62,0,.74,1.12,2.09,1.73,2.09,3.69,0,7.38-.29,11.26-.5-.2-1.6-.37-2.88-.53-4.17l.32-.07c.46,1.26.91,2.53,1.37,3.79l.62-.15q-.3-3.25-.59-6.53l.31,0,1.65,7.06,1-.2L536.56,731l.49-.1,2.7,14.13.91-.17q-1-5.46-1.93-10.93c1.92,3.51,1.49,7.75,3.48,11.17l.8-.22q-2.46-13.08-4.93-26.16a218.94,218.94,0,0,1,5,22.05c.64,3.73,2.33,5.43,6.54,5.17-6.14-22.6-4.61-45.82-6.16-69.41-2,21.33-1.67,41.93,2.86,62.37a1.27,1.27,0,0,1-.73-.69c-.26-.79-.49-1.58-.67-2.39-6.1-28.18-4.3-56.21,1.73-84.13,1-4.5,2-8.9.9-13.47-.11-.48-.82-.83-1.76-1.72-.16-1.63-.4-4-.63-6.32l-.56,0c-.36,1.44-.72,2.89-1.1,4.39l-.69-1.14h-.73l-.71,13.3c-1.07-1.38-2-3.08-1.78-4.59.89-5.27,2.19-10.46,3.34-15.68a14,14,0,0,0,.75-3.57c-.59-10.23-1.31-20.45-2-30.68-.14-2.23-.2-4.48-.3-6.72h-.66v4.72h-.42C540.12,588.13,539.85,586.1,539.57,584Zm-22.66,19a426.79,426.79,0,0,1,4,52.53q.33,26.24.58,52.39a7.92,7.92,0,0,0,.5-1.44c1.24-6.61,2.35-13.25,3.68-19.84,2.63-13,5.23-25.9,5-39.33-.21-15.52.61-31.07,1.06-46.6.17-5.54.58-11.07.9-16.84H521.12c4.35,6.79,6.19,13.78,4.46,21.42-.67-8-2.12-15.71-7.47-22l-.84.31c0,.54.08,1.09.11,1.48l-3.15-2.35C513,592.2,516.89,600,519.84,608l-.91.26Zm-12.5-220.8c-3.28,5.91-4,12.09-5.19,18.15l1,.44.12-1.25c0,3.24-.8,6-.66,8.73.71,14.38,1.63,28.75,2.53,43.13.17,2.72.53,5.44.8,8.16l1.17.1a12.45,12.45,0,0,0,1-3.18,21.59,21.59,0,0,0-.39-4.94c-1.52-8.24-2.94-16.29-1.24-24.89q5.14-26,8.64-52.37c.72-5.46,2.83-11.69-1.7-16.91-.23-.26-.14-.79-.21-1.2-.77-4.26-1.5-8.54-2.32-12.79-.42-2.18-1-4.34-1.52-6.5l.48-.1,2.86,9.93.82-.18c-.68-3.28-1.37-6.56-2.16-10.36l1.75,3,.65-.26q-2.07-14-4.15-28c-2.62,3.65.61,7.67-.68,12.26-.43-2.74-.73-4.66-1-6.59l-.54,0v4.61l-.34,0c-.11-.6-.21-1.2-.47-2.67-.5.91-.63,1.55-1,1.71-2.77,1.28-3.76,3-3.26,6.32,1.06,7.18,1.4,14.47-.48,21.63-.7,2.64-1.34,4.56.67,7.62,2.72,4.13,4,9.57,4.61,14.61a17.36,17.36,0,0,0,4,9.43c2.16,2.61,2.16,2.61-.39,4.52l-2.2-2.71-.33.2c.26.89.52,1.77.79,2.66l-.35.11C505.32,383.85,504.89,383.06,504.41,382.16Zm44.07,350.58h1a8.92,8.92,0,0,0,.54-2c.34-9.51.93-19,.87-28.54-.05-8-1.39-15.94-1.2-23.9.2-8.67,1.74-17.3,2.25-26,.82-14.28,1.11-28.59,2-42.86.52-9,1.64-17.91,2.47-26.86a10.8,10.8,0,0,0-.29-1.83l-1.4,4.17-.41-.16v-2.93c-2.76.44-5.37,1.06-8,1.21-2.27.13-2.71,1.12-2.62,3.15.36,8.81.47,17.63.94,26.43.15,2.75-.77,6.09,2.68,7.89.34.18.31,1.14.39,1.75.46,3.9.89,7.8,1.38,11.69a11.68,11.68,0,0,0,.65,2l.32-.11q.49-18.52,1-37.05l1,.05-1.8,58.45h-.7v-6.71c-5.4,10.09-3.28,51.92-1.59,68.15l.63-1Zm15.58-197.82c4.83,11.27,5.05,23.15,5.49,35.06a32.79,32.79,0,0,0,5.81,17.15c2.56,3.81,4.75,3.89,7.83.45,4.12-4.59,4.4-10.21,3.94-15.81C586,558.05,580,546.45,570.9,536.28,569.07,534.24,567.21,533.43,564.06,534.92Zm1.34-9.4a7.82,7.82,0,0,0,8.9,1.31c6.92-3,14.16-5.28,20.87-8.66a47.54,47.54,0,0,0,11.46-8.82c1.57-1.55,3.07-5.5,2.24-6.65-1.37-1.88-4.65-2.39-7.15-3.39a2.47,2.47,0,0,0-1.52.16c-3.61,1.22-7.38,2.11-10.75,3.79-9.79,4.86-16.47,13.34-23.69,21.16C565.51,524.69,565.51,525.17,565.4,525.52ZM487.62,244.29c.83,3.88,1.55,7.26,2.26,10.64l-.55.13-2.1-8.16-.77.18q.72,4.57,1.42,9.13l-.44.07-1.68-7.68-.65.1.84,6.76-.37.06L483.75,248l-.94.26c.16,1.37.31,2.75.57,5l-2.14-6.25-.95.37c.08,7.75,3.81,14,8.66,20.53.78-1.72,1.57-2.82,1.74-4a38.12,38.12,0,0,0,.05-5.13,42.5,42.5,0,0,0,0-6.48c-.62-4.19-1.71-8.3-2.38-12.48-1.18-7.37-3.3-14.3-8.65-20.57.34,2.54.62,4.54.9,6.64-2.31-3.12-2.63-7.59-7.68-9.48.39,6.85.75,13.32,1.11,19.79l.59,0,.41-1.46a63.11,63.11,0,0,0,2.24,7.64,4.63,4.63,0,0,0,3.06,2c.59.12,1.47-1.2,2.26-1.89l.44,2.29.6-.09c-.25-1.86-.49-3.72-.74-5.58l.35-.05c.58,2.19,1.16,4.38,1.79,6.78ZM435,414.6l1-.43c-1.09-10.77-6.72-19.7-12.75-28.51l-.43,1.93-.58-1.59c-.81,11.81,5.1,21.53,9.58,31.76-4.3-4.73-6.57-10.55-9.15-16.69-.16,1-.23,1.49-.4,2.51l-1.82-5.95c-.38.87-.57,1.3-.77,1.78-.25-.76-.48-1.44-.71-2.12-1,9.2,2.36,17,7,24.92.29-.89.43-1.3.58-1.78,3,5.31,3.48,5.75,5.87,5.11-1.47-2.72-2.92-5.44-4.38-8.15l.51-.26,2.85,4.7c2.62-1,3.12-2.53,2.22-4.92s-1.5-5.16-2.23-7.75a12.24,12.24,0,0,1,1.84,2.58C433.77,412.7,434.38,413.64,435,414.6ZM513.85,569c-.21,4.49,1.68,7.79,4.64,8,4.14.24,8.29.27,12.43.51,1.9.1,2.88-.43,3-2.5.19-2.79.58-5.57,1-8.33.33-2.16-.35-2.94-2.63-2.94-5.7,0-11.4-.27-17.1-.42-1.09,0-2.18,0-3.55,0,.24,2.44.44,4.42.65,6.56Zm-11.27,6.68c-2.77-5.12-5.28-9.76-7.8-14.4l-1.24.55q1.63,4.77,3.26,9.54l-.48.18c-1.37-3.3-2.75-6.59-4-9.51-.65.11-1.23.38-1.41.22-2.22-2.08-7.65-2.07-8.65.26-1.45,3.41-2.5,7-3.69,10.5-.06.17.21.44.45.88l1.62-2.51c.7,3.27,3.11,3.93,8.49,2.58-.26-2-.53-4-.79-6,.8,1.51,1,3.17,1.64,4.65a3.68,3.68,0,0,0,2.2,2C495.44,575.16,498.73,575.32,502.58,575.65Zm30.67-29.3c-3.38,1-6.14,1.79-8.91,2.55-4,1.1-8,2-12,3.32a3.26,3.26,0,0,0-1.75,2.55c0,.85,1.21,2.37,1.91,2.39,7,.18,14,.11,21.51.11C533.79,553.82,533.54,550.37,533.25,546.35Zm-79.4,9.52c5.85,0,11.61,0,17.37-.08a2.47,2.47,0,0,0,1.6-1.74c.2-2.33.08-4.68.08-7.09-3.55,0-6.63,0-9.71,0-8.43,0-8.43,0-9.51,8.45C453.66,555.51,453.75,555.61,453.85,555.87Zm30-338c1.3-7.83-1.83-13.49-5.77-18.31l-3.67.86c-.15,1.14-.37,2.83-.55,4.23l-6.67-8-.52.42.45,1.55-3.91-.28c1,7.59,2.07,9.7,5.26,10.46-.37-.89-.71-1.71-1.17-2.8l2.48,1.93,1.64-3.06c-.19-.46-.56-1.36-1.19-2.93,3.27,3,2.76,8.12,7.64,9.41-.11-1.81-.2-3.31-.3-5,1.11,3,2.16,5.81,3.21,8.61.15-.77.31-1.61.58-3,.23,2.41.41,4.24.59,6.07l.67-.06c-.13-2.32-.27-4.64-.4-7l.46,0C483,213.09,483.37,215.18,483.83,217.88Zm-10.08,355c-.23-3.89-.44-7.41-.67-11.27l-16.53,3.55c-4.09.88-4.24,1.13-3.31,5.6Zm85.72-37.24c-4.33,2.14-8.49,4.12-12.53,6.31a2.69,2.69,0,0,0-.7,2.52,68.31,68.31,0,0,0,4.09,8c.69,1.15,1.95,2,3.25,3.21.58-1.42.9-2.19,1.18-2.9l1.1,2.09C559.15,548.58,559.55,542.22,559.47,535.69ZM411,241.23l-.9.14c.35,3.86,1.05,7.72,1,11.57-.08,4.46,3.89,6,6,9-.49-1.91-1-3.82-1.51-5.82l6.23,9.24.53-.21c-.46-2.26-.91-4.53-1.36-6.79l.58-.51.43,1.71c.32-7.06-3.11-14.59-7.73-17.62.31,1,.54,1.66.76,2.35l-.58.48-1.32-2.3-.31.3.24,1.88-.31.06C412.15,243.53,411.58,242.38,411,241.23Zm79.69,53,1,.77c.18-.65.37-1.3.43-1.5l2.17,8.4,4.31-8.44.5.25q-1.9,4.47-3.8,8.94c4.45-6.08,9.94-11.86,6.47-20.62l-1.56,3a14.51,14.51,0,0,1,.12-1.88c.12-.5.49-1,.46-1.46a2.61,2.61,0,0,0-.66-1.78,2,2,0,0,0-1.82.23C493.46,283.65,492,288.9,490.71,294.23Zm7.23,26.67.72.32c4.71-5.22,9.37-18.94,8.21-24.53l-1.78,9.19-.37-.05L506,294l-.66-.06c-.33,1.15-.67,2.3-1.08,3.75-.18-1-.31-1.74-.42-2.38l-9.1,11.88,1,1,1.83-3.57.56.71-3.54,8,.5.28,3.06-2.82c-3.07,5.53-3.07,5.53-2,6.51l2.49-2.75.34.26-2.21,4,.77.45,4.77-7.18.43.27Zm65.32-95.07c-7.13,5.43-13.77,10.77-11.83,21.47L558,240l.25.1c-1.68,2.6-3.36,5.2-5.34,8.29,6.72-4,10.1-9.54,11.56-16.69l-1.2.66Zm-132,32.27-.33.09-3.16-6.63-3.76,1.17c.4,4.56.76,9.71,1.38,14.83.13,1.15,1.16,2.2,1.78,3.3l.93-.39V260h1V273.2l.85,0,.19-4.16h.3l.9,6.65h.42v-5.35h.45q.31,4.22.65,8.45c2.23-12.82.91-22.3-3.31-26.69C430.19,254.24,430.75,256.17,431.3,258.1Zm54.78,46.38-.15-2.66-.46-.05c-.56,2-1.11,4.05-1.66,6.07l-.39-.06c.37-2.21.74-4.41,1.1-6.62-3,5.85-2.77,11.9-1.43,18.06,4.63-1.58,2.06-6.24,3.87-8.84.15,2.65.31,5.42.47,8.18l.83-.06c.26-.78.52-1.55.79-2.33l.32.11c-.1,1.56-.2,3.12-.29,4.68l.68.09,1.52-7.38c.24,1.29.37,1.93.56,3,1.53-6.67,1.1-12.69-2.18-18.38.22,2.27.45,4.54.67,6.81l-.43,0L488.45,298C487.55,300.45,486.9,302.21,486.08,304.48Zm124.24,37.66c2.17-2.05,4.63-2.68,7.53-3.23,1.67-.32,4.18-2.9,4.1-4.35-.15-3,1.14-4.86,2.92-6.77a4.48,4.48,0,0,0,.5-.87l-1.39.21v-3l-7.45,5.5-.29-.4,6-5.31c-8.14,4.16-18.5,15.13-18.2,20.54l11.75-10.71.3.21ZM425.66,452.64l.55-.06c0-5.13,0-10.26,0-15.4,0-1.76-.06-3.52,0-5.28.25-4.66-1.64-8.58-3.77-12.57s-3.61-8.15-5.38-12.24l-.93.21Q420.91,430,425.66,452.64ZM543.29,577.45c3-.45,5.72-.69,8.3-1.31a2.83,2.83,0,0,0,1.53-2.3c-.55-3.46-1.36-6.89-2.24-10.28-.15-.61-1-1.5-1.54-1.48a40.42,40.42,0,0,0-6.48.9,2.13,2.13,0,0,0-1.22,1.67C542.07,568.76,542.67,572.84,543.29,577.45ZM486.17,336c.62.28,1.13.7,1.64.69a1.91,1.91,0,0,0,1.33-.78c2.2-3.45.74-6.76-.5-10.06a8.12,8.12,0,0,0-.62-1c-.17.79-.27,1.26-.33,1.56l-2.39-1.94c-.4.91-.67,1.53-.93,2.14l-.3-.11c.13-1.21.26-2.41.38-3.62l-.52-.13-3.16,5.51-.4-.24,1.48-4.28c-5,5.76-5,8-.9,11.75a4.71,4.71,0,0,1,1.17,2.19c.38,1.43.57,2.9.84,4.36l1-.15.32-7.18h.43c.11,1.45.22,2.89.32,4.34l.54,0C485.77,337.9,486,336.76,486.17,336Zm-31,427.61-2.34.19c-.68,1.5-1,3.23-1.62,3.36-3.29.69-6.67,1-10,1.4l-.1-.8,10.16-1.37.06-1.09-5-1-.11.52,2.1.71L431,768.18c-.06-.31-.12-.62-.17-.93l8.22-2H428.39l0-.42,9.65-.76c-3-.45-6.09-.9-8.95-.32s-5.73-2.47-8.39.4c5.87,5.47,21,8.23,29.13,5.29-1.72,0-3.43.21-5.14.29s-3.28,0-4.92,0a44.23,44.23,0,0,1,8.88-1.12c2.65-.13,5.3-.17,6.4-3.49l.69.63-2,3.43C456.56,768.62,456.85,767.64,455.13,763.56Zm12.66-523.82-.37,0c-.05.8.23,1.92-.2,2.35-2.81,2.83-1.42,5.91-.61,8.89a76.56,76.56,0,0,0,2.57,7.27c.87,2.29,2,4.42,5.66,4.51l-1-7,.39-.36,1.54,2,.83-.51c-.88-2-1.67-4.07-2.67-6-1.2-2.35-2.57-4.62-4-7.11-.19.64-.29.95-.51,1.67C468.79,243.23,468.29,241.49,467.79,239.74Zm2.13-8.89c2.57-3.49,1.16-7,1-10.53s-1.2-6.58-4.21-8l-2.32,6.29c-.53-1.55-1-3-1.55-4.48-.42,10.46,1.45,15.48,6.44,17.83l-3.71-5.55.39-.22C467.25,227.72,468.57,229.27,469.92,230.85ZM360.5,265.57c-.47-1.05-1-2.15-1.68-3.74-1.18,7.47,1.15,12.81,6.8,16.72l-1.69-2.6.32-.21,2.39,2.21.82-.12c-.19-3.31-.18-6.66-.62-9.94-.41-3.08-.64-6.5-4-7.49C362,262.21,361.26,263.9,360.5,265.57ZM497.41,561.72c2.31,4.31,4.22,7.94,6.19,11.54,1.78,3.26,3.33,3.79,7.24,2.43-1-4.14-.17-8.68-1.94-12.71l-1.23.15q.63,5.68,1.27,11.35a64.8,64.8,0,0,1-2.4-9.87c-.16-.75-.84-1.84-1.44-2C502.83,562.18,500.5,562.06,497.41,561.72Zm-90.86-320c3.2-4.69,2.56-5.09-.23-8.77-1-1.29-1.93-2.61-2.9-3.92l.44-.33,5.92,5.52c-1.62-5.54-7.91-11.93-14.16-13.8C398.69,228.16,402.6,234.78,406.55,241.76Zm-42.14,47.87-1-.72c-.31.89-1,1.89-.84,2.65.91,3.59,2,7.13,3.17,10.64,1,2.89,2.39,5.35,6.17,3.82-.69-1.93-1.4-3.89-2.29-6.37l2.5,2.73c1.79-2.48-.09-4-1.21-5.63-.52-.77-1.06-1.53-1.57-2.3-1.71-2.56-3.4-5.12-5.23-7.87C364.19,287.69,364.3,288.67,364.41,289.63Zm237.7,43.79c-6.09,2.32-9.53,6.79-10.7,13.11l1.88-2.92.35.15c-.63,1.56-1.25,3.12-1.66,4.14,7-1.92,11.2-7.37,15.15-13.81l-6.32,1.63-.16-.62ZM442.77,556l.57-.76-4.95-8.38-1.08.64c1.52,2.26,3,4.53,4.77,7.11-3.47-.43-4.59-2-4.79-4.82-.08-1.07-1.32-2.82-2.19-2.93a82,82,0,0,0-9.49-.14c.47,2.63.87,4.84,1.27,7l.73-.08V550a4.07,4.07,0,0,1,.95,1.6,3.7,3.7,0,0,0,.85,1.24C433.37,556.29,438.33,554.85,442.77,556Zm36.74-248,.79,0c0-2.14,0-4.27,0-6.41a2.76,2.76,0,0,1,.44-1.52c1.24-1.6,3.36-3,3.69-4.72.6-3.2.17-6.6.17-10.42L481,290.23c.65-2.7,1.21-5,1.93-8-5.62,7.63-7.92,20.27-4.63,24.74v-10.7h.4Q479.12,302.12,479.51,308Zm1.53-42.6-.36.14-.9-2.16-.61,0c-.14,2.35-.27,4.7-.46,7.92-.46-2.89-.8-4.94-1.21-7.54-1.27,6,0,10.92,2.75,15.83,1.55-1.32,3.24-2.31,4.27-3.77.85-1.21,1.68-3.25,1.23-4.43a101,101,0,0,0-5-10l-.37.14Zm-45.79,98.28,1.18-.36c.71,6.28,1.35,12.6,7.23,16.21-1.25-4.41,1-9.9-3.45-14.06-.23.55-.43,1-.62,1.45l-5.7-7.05-.72.47.31,1.58-1.92-.58v2.46l-5.16-3.35c1.7,4.88,5.18,6.22,9.09,7.32C435.4,366.21,435.32,364.92,435.25,363.64Zm205.47-36c-2,1.21-3.81,2.38-5.69,3.47-4,2.32-8,4.6-12.07,6.89l.24.54,5.36-1.28.08.35-5.1,2.47c3.63,2.64,6-.18,8.37-1.12a17.53,17.53,0,0,0,7.07-4.64C640.35,332.64,640.24,329.75,640.72,327.65ZM573.39,371c-5.7,7.66-5.92,16.26-4.66,25.79C575.05,388.6,572.77,379.52,573.39,371ZM408.81,545.3c.81,2.6,1,5.74,2,6.05,3.94,1.18,8.16,1.46,12.36,2.08a41.3,41.3,0,0,0,.23-5.17c-.05-.68-.76-1.83-1.26-1.89C418.08,545.92,414,545.68,408.81,545.3ZM564.49,239.17l.36.32c2.43-1.82,5.37-3.27,7.15-5.6,1.47-1.92,1.47-4.91,2.32-7.36,1.11-3.17.49-5.95-2.67-8.49l-3.8,9.36.56.22,1.59-1.11c-4.29,8.06-4.29,8.06-1.88,8.82ZM412.18,228l-3.42-1L414,238.72l.35-.27c0-.43-.07-.85-.15-1.89l1.75,2.78.78-1.45a8.1,8.1,0,0,1,1.95,1.27c1.57,1.83,3,3.77,4.5,5.67a28.65,28.65,0,0,0-12.27-18.69C411.32,226.79,411.78,227.43,412.18,228Zm-22.09,61.76h-1c-.3,5.38-.59,10.75-.84,15.47l2.34.88c.34-3,.67-6,.91-8.14l2.08,8.08.9-.2.18-3.33h.33c.09,1.06.19,2.12.28,3.19A23.77,23.77,0,0,0,392,289.81c-.05-.09-.27-.09-.51-.16l.43,2.86ZM490.54,287a22.36,22.36,0,0,1,12-11.49c1.2-.53,1.66-3.28,1.9-5.07.06-.45-2.06-1.19-3.52-2l1.92-3.85c-2.49,1.87-3.78,3.59-3.75,6.44,0,2.13-.93,4.27-1.44,6.41l-.64-.1v-2.67C491.16,278.48,489.75,281.05,490.54,287Zm13.18-27.41-.33-.48c-2.37,2-5.08,3.63-7,5.94-2.28,2.72-3.9,6-5.74,8.92l-1.94-1.84c-2.2,4.4-1.93,8.75-.55,13.17.54-2.39,1.08-4.78,1.73-7.7.34,1.14.49,1.68.47,1.58Zm-7-.8,1.21.44c.81-1.4,2.46-2.93,2.25-4.16a108.45,108.45,0,0,0-3.07-11.29l-1,.31,1.05,3.61-.31.11c-.65-1.05-1.31-2.1-2-3.15l-.81.1-1.74,17.17.79.11c.21-.8.41-1.59.63-2.44l1.37,2.24c.46-3.71.81-6.52,1.16-9.32h.45Zm-43.07,288.4H440.89a73,73,0,0,0,4.2,8.16c.52.79,2.48,1,3.67.8.66-.11,1.29-1.57,1.56-2.52a46.47,46.47,0,0,0,.9-5l.67.13c-.24,2.2-.47,4.4-.71,6.61l.65.07C452.39,552.81,453,550.23,453.62,547.16ZM395.75,239.49c-.32,5.65.38,6.69,4.89,8.28a9.73,9.73,0,0,1,2.58,1.75c.93.76,1.79,1.62,2.68,2.43l.39-.44-3.07-4.7c1.25.77,1.93,2,2.93,2.79.6.47,1.71.3,3.33.53-2.78-3.3-5.22-6.19-7.65-9.09-1.54-1.85-3.11-2.66-4.71,0ZM625.69,345.54l-1.19-.62-11.18,11.37a36.57,36.57,0,0,1,4.78-.61c1,0,2.4,1.1,3.07.72,2.77-1.53,5.12-3.62,5.55-7.25l-2.42,3.27C624.86,349.65,625.28,347.6,625.69,345.54ZM477.87,322.23l.41-.11.65,1.41c1.49-4,.37-7.34-.88-10.12l-2.21-.3V319c-.52-2.22-.85-3.63-1.33-5.7-.36,1.13-.48,1.51-.72,2.28l-.55-3.27a22.89,22.89,0,0,0,1.11,13.58l.38-.21c0-.65.09-1.38.12-1.75l3,1.23ZM615.23,363.5c-6.27,2-8.91,3.13-8.87,12.61,4.64-.41,6.26-4.17,8.24-7.55l-1.3.74C613.89,367.51,614.49,365.72,615.23,363.5ZM448.87,760.9c.8.12,2.68,1,4.2.5,2.52-.74,4.81-2.3,7.19-3.52.06,0,0-.26.06-.29,2.71-1.68,3.73-5.81,7.9-5.41.47.05,1-.44,1.5-.69-.43-.58-.86-1.65-1.28-1.65a7.45,7.45,0,0,0-3.75.75C459.17,754.05,453.77,757.68,448.87,760.9ZM390.3,238.05l.82-.19c-.56-1.72-1.11-3.45-1.66-5.15l3.61,3.91,1-.73c-1.27-2.6-2.54-5.2-3.84-7.84l8,6.69.37-.48-10.66-10.67C388,228.76,387.87,233.61,390.3,238.05Zm119.13,30.7c-6,6.66-6.46,8.24-3.94,12.27l2.23-3.09c-.23,1.68-.39,2.84-.54,4,1.75-3.23,4.62-6,4.05-10.16l-3.77.75Zm117.42,62.06c3.53,1.25,9.66-1.43,10.46-4.44a2.65,2.65,0,0,0-.8-2.33c-1.56-.89-8.91,2.61-9.55,4.4l1.61.22ZM491.66,233.3c2.09-5.39.23-9.7-3.63-13.3,0,.07-.16.61-.44.71-3.3,1.16-2.41,3.22-1.1,5.27,1,1.57,2.16,3,3.12,4.37,0-.06.17-.71.45-1.88.17,1.22.27,2,.42,3l1-1.91C491.55,231.1,491.61,232.2,491.66,233.3ZM382.94,266.56c-.93,1.29-2.6,2.68-2.36,3.43a45.44,45.44,0,0,0,3.56,7c0,.08.16.11.39.25l1.65-.92c.28.94.51,1.74.75,2.53a11.21,11.21,0,0,0,.07-6.36C386.28,270.53,384.63,268.94,382.94,266.56ZM591.21,366.94c.95-5.75,6.37-9.68,6.93-16l-2.06,1.18c.18-.62.27-.9.34-1.19s.15-.67.23-1C593.14,355.13,590.68,360.61,591.21,366.94ZM479.38,553.79c4.75,0,6.75-2.22,6.42-7.09C479.06,545.74,478.19,546.7,479.38,553.79Zm-68.77,9.56c3.92,0,7.41,0,10.9-.05.53,0,1-.69,1.55-1.06-.38-.5-.7-1.37-1.16-1.45-3.71-.67-7.44-1.19-11.52-1.81C410.46,560.53,410.52,561.71,410.61,563.35ZM542.27,226.27c5.4-1.6,8.1-7.21,5.42-11.1C543.43,217.54,542.32,221.52,542.27,226.27Zm-49.94,320c1.18,1.92.36,4.54,3.31,3.91,2.71-.57,5.42-1.21,8.07-2,.66-.21,1.08-1.22,1.61-1.85l-.69-.72Zm65.47-337.9c4.23-2.1,8.13-6.84,8-9.59C561.3,199.92,557.06,204.86,557.8,208.41ZM471.09,236.7c1.55,5.34,1.82,11.23,6.71,15.13C478.36,245.58,473,241.88,471.09,236.7Zm-53.24,124-.73,1.23c1.17,1.42,2.11,3.17,3.57,4.16s3.2,1,4.82,1.41c1.19-4.08-2.41-4.85-4.52-6.49C420.29,360.48,418.92,360.8,417.85,360.72Zm5.78,165.56,1.22.16.84-13.52-1-.18q-1.92,6.69-3.85,13.38l1.27.41c.42-1.14.83-2.29,1.56-4.29Zm1.79-176.94c.12,3.45-.8,3.45,5.29,9.13,1-1.78-.23-7.43-1.92-8.08-.42-.16-1.2.6-2,1ZM444.67,390c.13,3.35-.82,6.83,1.75,9.8,0-2.56.08-4.88,3.46-4.94C448.81,392.41,448.54,389.44,444.67,390Zm-50.5-133.66c.19-8.58.19-8.58-2.66-9.11C390.22,253.17,389.78,252.65,394.17,256.29ZM374,297.39c.72-3.5-3-10.7-6.43-12.9C369.21,289,369.85,293.86,374,297.39Zm62.72,271.73.08.7c3.67.24,7.34.67,11,.63,2.33,0,1.6-1.77,1.17-3.34Zm117.4,5.76.88.3c.41-.85,1.31-1.81,1.15-2.53-.69-3.1-1.65-6.13-2.59-9.17a7.34,7.34,0,0,0-1.14-1.7l-.69.33Q552.92,568.49,554.13,574.88ZM390.72,243.34c-1.24-2.76-2.15-5.06-3.31-7.21a3.6,3.6,0,0,0-2.2-1.22,5.5,5.5,0,0,0-2,.33C383.78,239.28,387.44,240.87,390.72,243.34Zm30.95,99.5-.89.14v6.49l-1.86-3.28c-.49,4.4-.07,5,4.46,6.07C422.78,349,422.23,345.91,421.67,342.84ZM537.84,564.11c-2.09,4.71-1.59,11.2,1.17,13.8C538.58,572.87,538.21,568.49,537.84,564.11ZM382.33,221.78l-.79.47c.29.62.59,1.25.88,1.88l-.94-.15c-.2.64-.76,1.47-.54,1.87.87,1.55,2,3,3,4.42l.49-.3-.43-1.7,3-.87Zm93.28,339.91-1.56.13c0,3.32-.05,6.65.06,10,0,.48.85.93,1.31,1.39.32-.34.94-.7.93-1C476.16,568.68,475.87,565.18,475.61,561.69ZM428.05,458.44h-1.34l2.39,14.95,1.37-.24Q429.26,465.81,428.05,458.44ZM385.14,220.23c.05-3.2-3.85-7.66-6.67-7.95C378.85,216.3,381.71,218.32,385.14,220.23ZM583,354.31l.44.33,6.36-4.83c-.24-1.15-.49-2.34-.9-4.32ZM443,535.52c-3.22-.59-5.9-.73-8.14,2.5C438.17,538.24,441.06,539.29,443,535.52ZM576.65,204.68l-.8.23c-.43,2-1,3.94-1.23,5.94-.07.64.71,1.38,1.1,2.08.57-.55,1.64-1.1,1.63-1.63C577.29,209.09,576.91,206.89,576.65,204.68ZM463.91,189c.73,3.27,3.06,4.45,5.74,5.29C469.75,190.54,468.87,189.68,463.91,189ZM409.14,536.78c.11,2.15.11,2.16,5.8,2.23,2.54,0,5.09,0,7.63,0l0-.14Zm180.4-10.95c4.15-.65,5.33-1.73,5.48-5.05C592.18,521.31,589.81,522.19,589.54,525.83ZM448.18,387.59l4.69,7.59C453,389.28,452,387.51,448.18,387.59ZM505.45,554l-8.56,2.05C504.06,557.73,505.55,557.39,505.45,554Zm30.84-8.12-1.85.08c.16,3.51.33,7,.49,10.53l.87,0ZM359.83,238.3l-.79.93,6.07,4.72C365.34,239.19,362.36,239,359.83,238.3ZM540,577l1.22-.13-1.41-12.6-.91.1Q539.42,570.71,540,577ZM434.76,562.47c0-.27,0-.53,0-.8H424.11C428.26,564.4,431.51,562.21,434.76,562.47ZM539.4,233.85l-1.4-.42c-.55,2.72-3.35,4.82-2.14,8l.91.29ZM455.07,538.11l.31.9c3.78.67,5,.23,7.53-3.27ZM507.67,266c3.32-3.18,4.12-6.88,2.23-9.72C509.18,259.44,508.4,262.86,507.67,266Zm52.89,123.77c-1.67,4.16-2.57,8.44-.62,13C560.16,398.3,560.36,394,560.56,389.78Zm42.82,128.41c4.11-2.28,4.64-3.24,2.9-5.47C604.68,514.15,602.16,514.94,603.38,518.19ZM469,536l-6.57,2.38.32.89C465.47,539.85,467.88,539.65,469,536Zm133.13-18-.95-.9c-1.86,1.26-5.08,1.42-4.4,4.75l1,.88Zm-19.27,9.58c4,.33,4.91-.5,4.45-4.19Q585.1,525.43,582.88,527.54ZM433,557.74c-.21-.61-.43-1.22-.65-1.83l-6.05,2.36.62,1.64Zm43.75-19.52.29,1.21c2.42.4,4.83.74,6.09-2.68Zm-21.28-1c-.22-.57-.45-1.14-.68-1.71l-6.17,2.58.57,1.47Zm-46.08,11.32c-.74-1.21-1.34-2.2-1.94-3.2-.36.86-1.07,1.76-1,2.57a13.78,13.78,0,0,0,1.27,3.42ZM541.9,535.14l.79,1.43,6.37-4.09-.81-1.29Zm-19.47,45.42c.12.51.25,1,.38,1.54l6.46-1.89c-.14-.48-.27-1-.41-1.44ZM476.08,537.9c-3.45-1.67-4.69-1.23-6.52,2.23Zm100.48-8.18.5.75c2.77-.13,4.64-1.29,5.09-4.08l-.67-.79Zm-62,50.38c.06.28.12.56.19.84,2.56.76,5,.8,6.66-2.38ZM394.63,214.62l-.76.95c.57.85,1,2.22,1.74,2.47a49.16,49.16,0,0,0,6.86,1.16Zm99.66,328.6c-.17-.53-.33-1.05-.5-1.57l-6.18,1.8.4,1.38ZM436,535.85c-3.51-1.83-4.57-1.48-6.2,2.2Zm98.62,1.49.76,1.18,6.11-4-.79-1.23ZM415.34,528l-.36-1.1-6.27,2C412,531.29,413.65,529.54,415.34,528Zm105.45,10.54c.2.54.39,1.08.58,1.63l6.15-2.65-.54-1.32Zm-53.42,36.77.19,1.49L474,576l-.21-1.62Zm41.28-284.69c2.22-3.05,2.25-5.1-1-6.76C507.93,285.87,508.23,287.87,508.65,290.63ZM516.57,548l-.77-1.37-6.29,3c.23.47.46.93.68,1.4Zm-75,17.34.82,1.28,5.11-3.17-.91-1.43Zm-12.12.86.73,1.79,5.37-2.8-.61-1.32Zm13.46-29,.36,1.16c2.57,1.06,4.18-.35,5.64-2.13l-.34-1Zm-8.83-283.92c-.06-3.12-3.1-7.4-6.52-8.56Zm50.23,285.24.21,1c2.32.25,4.7.71,6-2.67Zm14,.4.39,1.5,5.73-1.43-.42-1.62Zm29.92-.8.73,1.31,5.89-3.32-.75-1.34Zm-87.61,5.75.6,1.67,5.24-2.11c-.18-.47-.36-.93-.53-1.4Zm-19.56-14.6-.48-1.35-5.86,2,.58,1.57Zm118.27,12.21c-5.23.42-5.23.42-6.16,3.75Zm-47.75-2.69c.18.53.35,1.07.52,1.6l5.24-1.75-.46-1.41Zm56.92-.91.56.74c4.3-1.55,4.89-2,5.61-5.11Zm-119.28-2.32c-.17-.55-.35-1.1-.53-1.66l-5.2,1.75.49,1.52Zm6.28,30.43c.29.47.58.94.86,1.41l5.32-3.39-.75-1.24Zm146.7,27.43,1.13.32,2.9-2.54-.26-.93c-1,0-2.39-.27-3.06.26S582.45,592.48,582.24,593.48ZM423.09,535.2c-.14-.37-.27-.74-.41-1.12-2-.35-3.84-.44-4.37,2.69Zm45.47,24.13.61,1.45L475,558c-.17-.38-.34-.75-.52-1.13Zm-15.63-15.39c-.15-.55-.31-1.1-.46-1.64l-5.59,1.87.41,1.33ZM448,564l.77,1.31,5.38-3.16-.75-1.27Zm83.43-20.18L531,543c-1.8,1-4.78-.09-4.87,4ZM421.29,558c.23.49.46,1,.7,1.48l4.95-2.74-.7-1.31Zm-4.56-.76.67,1.51,5-2.76-.64-1.25Zm78.82-4.38.69,1.66,5.33-2.9L501,550.5Zm-63,6,.62,1.38,4.95-2.13c-.19-.46-.38-.91-.58-1.37Zm12.17-26.61-.35-1.5L439,532.16l.29,1.31Zm-12.86-1.19c-.16-.55-.31-1.1-.47-1.66l-5.71,1.74.36,1.32Zm63.94,11.86.17,1.42,6.56-1.21-.24-1.31Zm-48.68,30.18.11,1.06c4.25.76,4.26.75,5.87-1.9ZM508,579.56l.39,1.5,5.47-1.65c-.13-.46-.27-.92-.4-1.38ZM389.8,218.67l.59-.69-6.8-5.91-.73.85ZM611.32,508.29l-1.13-.3c-.82,1.47-3.22,2.58-1.74,4.57l1.41.36C610.34,511.38,610.83,509.83,611.32,508.29ZM475,547.17h-.7v7.67h.7Zm27.6,4.42.74,1.25,5-3.05-.65-1.09ZM420.3,530.78l.57,1.46,5-2.37-.48-1.15Zm-12.59,2c.06.41.13.83.19,1.25,1.69.65,3.45,1.66,5-1.86Zm46.66,11.07.3,1.07c2,.33,3.87.51,4.81-2.43Zm-8.9,29.59c-.08-.5-.15-1-.23-1.49l-5.73.85c.07.43.13.86.2,1.28Zm15.15,1.23c3.38,1.93,4.09,1.75,6-1.23Zm20.08-31.11.36,1.27,5.61-1.56-.4-1.42Zm-45.53.56c.22.47.43.95.65,1.43l4.51-2.15-.59-1.29ZM414.09,543l.73,1.39,4.5-2.48-.65-1.24Zm52.9.82.37,1.41,5.36-1.6c-.12-.44-.25-.88-.37-1.32Zm-23.05,15.05c-.15-.47-.29-1-.44-1.42l-5,1.56.43,1.39Zm-20.84,7.89.54,1.37,5.14-2c-.19-.47-.37-.94-.56-1.42Zm84,12.45-.44-1.57L501.57,579c.1.41.21.81.31,1.22Zm-69-47.69c-.13-.46-.25-.92-.37-1.38l-5.08,1.59.41,1.3Z"/><path d="M448.29,658.77c3.18,21.68,6.27,42.67,9.35,63.61C455.62,719,447.83,667,448.29,658.77Z"/><path d="M445.87,607.82c.94,2.44-.61,3.3-2.63,3.73,1.74,2.83,1.15,5-1.69,7.46.84-10.27,1.69-20.65,2.53-31,.87,7.16-1.48,14.31.26,22.07.8-1.06,1.21-1.6,1.61-2.15Z"/><path d="M426.86,656.44c4.08,14.34,6.23,28,6.17,40.12C431.21,684.71,429.1,671,426.86,656.44Z"/><path d="M420.1,688.09c1.75,8.36,3.93,16.8,2.82,26.36C421.92,705.14,421,696.62,420.1,688.09Z"/><path d="M421.8,644.37l-1.26-7.86,1.53-.27,1.2,7.9Z"/><path d="M425,613.3c0,3.38,0,6.77,0,10.15a2.34,2.34,0,0,1-.72,1.65V613.17Z"/><path d="M424.71,628.19v8.32h-.43V628.2Z"/><path d="M411.52,642.4l.27-5.23,1.12,0v5.25Z"/><path class="cls-2" d="M539.57,584c.28,2.12.55,4.15.81,6.18h.42v-4.72h.66c.1,2.24.16,4.49.3,6.72.66,10.23,1.38,20.45,2,30.68a14,14,0,0,1-.75,3.57c-1.15,5.22-2.45,10.41-3.34,15.68-.25,1.51.71,3.21,1.78,4.59l.71-13.3h.73l.69,1.14c.38-1.5.74-3,1.1-4.39l.56,0c.23,2.35.47,4.69.63,6.32.94.89,1.65,1.24,1.76,1.72,1.06,4.57.08,9-.9,13.47-6,27.92-7.83,56-1.73,84.13.18.81.41,1.6.67,2.39a1.27,1.27,0,0,0,.73.69c-4.53-20.44-4.87-41-2.86-62.37,1.55,23.59,0,46.81,6.16,69.41-4.21.26-5.9-1.44-6.54-5.17a218.94,218.94,0,0,0-5-22.05q2.46,13.08,4.93,26.16l-.8.22c-2-3.42-1.56-7.66-3.48-11.17q1,5.46,1.93,10.93l-.91.17-2.7-14.13-.49.1,2.11,14.2-1,.2L536,738.3l-.31,0q.28,3.27.59,6.53l-.62.15c-.46-1.26-.91-2.53-1.37-3.79l-.32.07c.16,1.29.33,2.57.53,4.17-3.88.21-7.57.51-11.26.5-.61,0-1.72-1.35-1.73-2.09,0-3.2.5-6.42.37-9.62-.68-17.68,2.81-34.83,6.67-51.9a166.6,166.6,0,0,0,3.86-41c-.32-13.45.66-26.94,1.14-40.41.16-4.45.4-8.9.79-13.34C534.73,583.49,534.84,583.5,539.57,584Zm-11.13,144.9c-.7-5.74,2.53-11.49,0-17.6-1.42-3.42-.59-7.77-.8-11.7a23.4,23.4,0,0,0-.35-2.33l-1.06.14ZM539.7,620.7l.9,0-1.23-16.14-.54,0Z"/><path class="cls-2" d="M504.41,382.16c.48.9.91,1.69,1.34,2.48l.35-.11c-.27-.89-.53-1.77-.79-2.66l.33-.2,2.2,2.71c2.55-1.91,2.55-1.91.39-4.52a17.36,17.36,0,0,1-4-9.43c-.62-5-1.89-10.48-4.61-14.61-2-3.06-1.37-5-.67-7.62,1.88-7.16,1.54-14.45.48-21.63-.5-3.33.49-5,3.26-6.32.34-.16.47-.8,1-1.71.26,1.47.36,2.07.47,2.67l.34,0v-4.61l.54,0c.3,1.93.6,3.85,1,6.59,1.29-4.59-1.94-8.61.68-12.26q2.08,14,4.15,28l-.65.26-1.75-3c.79,3.8,1.48,7.08,2.16,10.36l-.82.18L507,336.74l-.48.1c.51,2.16,1.1,4.32,1.52,6.5.82,4.25,1.55,8.53,2.32,12.79.07.41,0,.94.21,1.2,4.53,5.22,2.42,11.45,1.7,16.91q-3.5,26.29-8.64,52.37c-1.7,8.6-.28,16.65,1.24,24.89a21.59,21.59,0,0,1,.39,4.94,12.45,12.45,0,0,1-1,3.18l-1.17-.1c-.27-2.72-.63-5.44-.8-8.16-.9-14.38-1.82-28.75-2.53-43.13-.14-2.72.62-5.49.66-8.73l-.12,1.25-1-.44C500.46,394.25,501.13,388.07,504.41,382.16Z"/><path class="cls-2" d="M548.48,732.74v-15l-.63,1c-1.69-16.23-3.81-58.06,1.59-68.15v6.71h.7l1.8-58.45-1-.05q-.49,18.53-1,37.05l-.32.11a11.68,11.68,0,0,1-.65-2c-.49-3.89-.92-7.79-1.38-11.69-.08-.61-.05-1.57-.39-1.75-3.45-1.8-2.53-5.14-2.68-7.89-.47-8.8-.58-17.62-.94-26.43-.09-2,.35-3,2.62-3.15,2.65-.15,5.26-.77,8-1.21v2.93l.41.16,1.4-4.17a10.8,10.8,0,0,1,.29,1.83c-.83,8.95-2,17.89-2.47,26.86-.84,14.27-1.13,28.58-2,42.86-.51,8.67-2,17.3-2.25,26-.19,8,1.15,15.93,1.2,23.9.06,9.51-.53,19-.87,28.54a8.92,8.92,0,0,1-.54,2Z"/><path class="cls-2" d="M564.06,534.92c3.15-1.49,5-.68,6.84,1.36,9.11,10.17,15.08,21.77,16.23,35.49.46,5.6.18,11.22-3.94,15.81-3.08,3.44-5.27,3.36-7.83-.45A32.79,32.79,0,0,1,569.55,570C569.11,558.07,568.89,546.19,564.06,534.92Z"/><path class="cls-2" d="M487.62,244.29l-2.56,1.65c-.63-2.4-1.21-4.59-1.79-6.78l-.35.05c.25,1.86.49,3.72.74,5.58l-.6.09-.44-2.29c-.79.69-1.67,2-2.26,1.89a4.63,4.63,0,0,1-3.06-2,63.11,63.11,0,0,1-2.24-7.64l-.41,1.46-.59,0c-.36-6.47-.72-12.94-1.11-19.79,5.05,1.89,5.37,6.36,7.68,9.48-.28-2.1-.56-4.1-.9-6.64,5.35,6.27,7.47,13.2,8.65,20.57.67,4.18,1.76,8.29,2.38,12.48a42.5,42.5,0,0,1,0,6.48,38.12,38.12,0,0,1-.05,5.13c-.17,1.19-1,2.29-1.74,4-4.85-6.55-8.58-12.78-8.66-20.53l.95-.37,2.14,6.25c-.26-2.25-.41-3.63-.57-5l.94-.26,1.83,7.48.37-.06-.84-6.76.65-.1,1.68,7.68.44-.07q-.7-4.56-1.42-9.13l.77-.18,2.1,8.16.55-.13C489.17,251.55,488.45,248.17,487.62,244.29Z"/><path class="cls-2" d="M542.44,270.78a11.41,11.41,0,0,1,.73-2.67,52,52,0,0,0,3.93-7.69l-4.69,7.17-.43-.19.46-1.59c-2.87-2.39-3.9.15-5.11,2-1.75,2.62-3.38,5.31-5.14,8.1L530.5,273l-.77.24c-.08,1.7-.17,3.41-.25,5.12H529c0-3.67-.22-7.36.13-11,.1-1.06,1.75-2,2.79-2.94s2.16-1.58,3.35-2.44l.69.76c-.16-3.12-.28-5.59-.45-8.87-.72,2.33-1.21,3.91-1.69,5.48.07-10.32,4.59-18.83,10.93-26.59l-1.73,3.42,2.23-.45c-1.47,8-2.94,16-4.38,23.76l2.16.3c1-5.66-.18-11.88,4-17.75-.3,2.49-.52,4.26-.73,6l.39.1c.39-1.38.77-2.76,1.17-4.23.14.17.3.28.31.41.68,6.26,1.1,6.58,7.11,4.89a98.17,98.17,0,0,1-12.93,21.6ZM540,261.1V243.41l-.22-.06c-.66,6-1.32,12-2,18.24Z"/><path class="cls-2" d="M420.24,374.6l-2.35-4,6.41,3.64-1.58-2.53c3.21-.18,3-.16,3.47,3,.23,1.64,1.13,3.19,2,5.45.54-4-.31-8,4.4-9.74,5.71,3.67,6.63,10.39,8.47,16.64l-.84.38-3-8.85-.54.15c2.12,7.36,4.25,14.72,6.56,22.72l-1.75-1.62c.34,2.55.68,5.09,1.15,8.65-2.3-1.49-4.29-2.25-5.51-3.68-5.81-6.85-8.35-15.36-11.48-23.56-.55-1.44-1.06-2.9-1.59-4.35l-.58.64-2.9-1.68Zm15.33,24.21a13.46,13.46,0,0,0-.55-3.65c-1.49-3.32-3.22-6.52-4.84-9.78-.45-.91-.86-1.84-1.28-2.76l-.79.38A29.83,29.83,0,0,0,435.57,398.81Z"/><path class="cls-2" d="M435,414.6c-.6-1-1.21-1.9-1.79-2.86a12.24,12.24,0,0,0-1.84-2.58c.73,2.59,1.28,5.24,2.23,7.75s.4,3.94-2.22,4.92l-2.85-4.7-.51.26c1.46,2.71,2.91,5.43,4.38,8.15-2.39.64-2.89.2-5.87-5.11-.15.48-.29.89-.58,1.78-4.63-7.89-8-15.72-7-24.92.23.68.46,1.36.71,2.12.2-.48.39-.91.77-1.78l1.82,5.95c.17-1,.24-1.49.4-2.51,2.58,6.14,4.85,12,9.15,16.69-4.48-10.23-10.39-19.95-9.58-31.76l.58,1.59.43-1.93c6,8.81,11.66,17.74,12.75,28.51Z"/><path class="cls-2" d="M513.85,569l-1.54.85c-.21-2.14-.41-4.12-.65-6.56,1.37,0,2.46,0,3.55,0,5.7.15,11.4.41,17.1.42,2.28,0,3,.78,2.63,2.94-.43,2.76-.82,5.54-1,8.33-.13,2.07-1.11,2.6-3,2.5-4.14-.24-8.29-.27-12.43-.51C515.53,576.76,513.64,573.46,513.85,569Z"/><path class="cls-2" d="M502.58,575.65c-3.85-.33-7.14-.49-10.37-1a3.68,3.68,0,0,1-2.2-2c-.63-1.48-.84-3.14-1.64-4.65.26,2,.53,4,.79,6-5.38,1.35-7.79.69-8.49-2.58l-1.62,2.51c-.24-.44-.51-.71-.45-.88,1.19-3.51,2.24-7.09,3.69-10.5,1-2.33,6.43-2.34,8.65-.26.18.16.76-.11,1.41-.22,1.22,2.92,2.6,6.21,4,9.51l.48-.18q-1.62-4.77-3.26-9.54l1.24-.55C497.3,565.89,499.81,570.53,502.58,575.65Z"/><path class="cls-2" d="M533.25,546.35c.29,4,.54,7.47.79,10.92-7.48,0-14.5.07-21.51-.11-.7,0-1.88-1.54-1.91-2.39a3.26,3.26,0,0,1,1.75-2.55c3.94-1.28,8-2.22,12-3.32C527.11,548.14,529.87,547.32,533.25,546.35Z"/><path class="cls-2" d="M453.85,555.87c-.1-.26-.19-.36-.17-.45,1.08-8.41,1.08-8.41,9.51-8.45,3.08,0,6.16,0,9.71,0,0,2.41.12,4.76-.08,7.09a2.47,2.47,0,0,1-1.6,1.74C465.46,555.92,459.7,555.87,453.85,555.87Z"/><path class="cls-2" d="M537.85,751.18c2.73-1,5.19-.32,7.57.91l.06.89-11.16,1.27.1.83c3.53-.34,7.08-.61,10.6-1.07.64-.09,1.61-1,1.63-1.49a2.26,2.26,0,0,0-1.39-1.72c-3.56-.33-7.15-.6-10.73-.58-4.52,0-9,.35-13.57-.11a221.05,221.05,0,0,1,27.44-.52c-5.72-2.94-11.7-.74-17.38-1.89,5.27,0,10.56-.25,15.81.1,2.56.18,4.48,4,3.71,6.6a2.85,2.85,0,0,1-1.81,1.78c-9.1,1.12-18.3,3.15-27-1.73a13.65,13.65,0,0,1-2.12-1.85c.94-.44,1.88-1.21,2.84-1.25,5.17-.17,10.35-.16,15.51-.22l-12.12,1.49,0,.6,17.13-.93v-.41Zm-4.76,5.13c4.24,0,8.62.17,13-.06,2.74-.14,3.68-1.65,3.22-3.46C544.85,757.92,538,753.77,533.09,756.31Z"/><path class="cls-2" d="M483.83,217.88c-.46-2.7-.82-4.79-1.17-6.87l-.46,0c.13,2.31.27,4.63.4,7l-.67.06c-.18-1.83-.36-3.66-.59-6.07-.27,1.36-.43,2.2-.58,3-1.05-2.8-2.1-5.62-3.21-8.61.1,1.68.19,3.18.3,5-4.88-1.29-4.37-6.37-7.64-9.41.63,1.57,1,2.47,1.19,2.93l-1.64,3.06L467.28,206c.46,1.09.8,1.91,1.17,2.8-3.19-.76-4.23-2.87-5.26-10.46l3.91.28-.45-1.55.52-.42,6.67,8c.18-1.4.4-3.09.55-4.23l3.67-.86C482,204.39,485.13,210.05,483.83,217.88Z"/><path class="cls-2" d="M473.75,572.93l-20.51-2.12c-.93-4.47-.78-4.72,3.31-5.6l16.53-3.55C473.31,565.52,473.52,569,473.75,572.93Z"/><path class="cls-2" d="M559.47,535.69c.08,6.53-.32,12.89-3.61,19.22l-1.1-2.09c-.28.71-.6,1.48-1.18,2.9-1.3-1.25-2.56-2.06-3.25-3.21a68.31,68.31,0,0,1-4.09-8,2.69,2.69,0,0,1,.7-2.52C551,539.81,555.14,537.83,559.47,535.69Z"/><path class="cls-2" d="M411,241.23c.56,1.15,1.13,2.3,1.7,3.45l.31-.06-.24-1.88.31-.3,1.32,2.3.58-.48c-.22-.69-.45-1.38-.76-2.35,4.62,3,8.05,10.56,7.73,17.62l-.43-1.71-.58.51c.45,2.26.9,4.53,1.36,6.79l-.53.21-6.23-9.24c.52,2,1,3.91,1.51,5.82-2.08-3-6.05-4.51-6-9,.07-3.85-.63-7.71-1-11.57Z"/><path class="cls-2" d="M490.71,294.23c1.3-5.33,2.75-10.58,7.64-14.08a2,2,0,0,1,1.82-.23,2.61,2.61,0,0,1,.66,1.78c0,.47-.34,1-.46,1.46a14.51,14.51,0,0,0-.12,1.88l1.56-3c3.47,8.76-2,14.54-6.47,20.62q1.89-4.47,3.8-8.94l-.5-.25-4.31,8.44-2.17-8.4c-.06.2-.25.85-.43,1.5Z"/><path class="cls-2" d="M497.94,320.9l4.76-8.63-.43-.27-4.77,7.18-.77-.45,2.21-4-.34-.26-2.49,2.75c-1-1-1-1,2-6.51l-3.06,2.82-.5-.28,3.54-8-.56-.71-1.83,3.57-1-1,9.1-11.88c.11.64.24,1.36.42,2.38.41-1.45.75-2.6,1.08-3.75l.66.06-1.28,11.88.37.05,1.78-9.19c1.16,5.59-3.5,19.31-8.21,24.53Z"/><path class="cls-2" d="M563.26,225.83v6.54l1.2-.66c-1.46,7.15-4.84,12.71-11.56,16.69,2-3.09,3.66-5.69,5.34-8.29L558,240l-6.56,7.29C549.49,236.6,556.13,231.26,563.26,225.83Z"/><path class="cls-2" d="M431.3,258.1c-.55-1.93-1.11-3.86-1.74-6.07,4.22,4.39,5.54,13.87,3.31,26.69q-.33-4.23-.65-8.45h-.45v5.35h-.42l-.9-6.65h-.3l-.19,4.16-.85,0V260h-1v10.49l-.93.39c-.62-1.1-1.65-2.15-1.78-3.3-.62-5.12-1-10.27-1.38-14.83l3.76-1.17,3.16,6.63Z"/><path class="cls-2" d="M486.08,304.48c.82-2.27,1.47-4,2.37-6.5l1.45,7.13.43,0c-.22-2.27-.45-4.54-.67-6.81,3.28,5.69,3.71,11.71,2.18,18.38-.19-1-.32-1.68-.56-3l-1.52,7.38-.68-.09c.09-1.56.19-3.12.29-4.68l-.32-.11c-.27.78-.53,1.55-.79,2.33l-.83.06c-.16-2.76-.32-5.53-.47-8.18-1.81,2.6.76,7.26-3.87,8.84-1.34-6.16-1.57-12.21,1.43-18.06-.36,2.21-.73,4.41-1.1,6.62l.39.06c.55-2,1.1-4,1.66-6.07l.46.05Z"/><path class="cls-2" d="M610.32,342.14,616,334l-.3-.21L604,344.5c-.3-5.41,10.06-16.38,18.2-20.54l-6,5.31.29.4,7.45-5.5v3l1.39-.21a4.48,4.48,0,0,1-.5.87c-1.78,1.91-3.07,3.73-2.92,6.77.08,1.45-2.43,4-4.1,4.35C615,339.46,612.49,340.09,610.32,342.14Z"/><path class="cls-2" d="M425.66,452.64q-4.74-22.68-9.49-45.34l.93-.21c1.77,4.09,3.29,8.32,5.38,12.24s4,7.91,3.77,12.57c-.1,1.76,0,3.52,0,5.28,0,5.14,0,10.27,0,15.4Z"/><path class="cls-2" d="M543.29,577.45c-.62-4.61-1.22-8.69-1.65-12.8a2.13,2.13,0,0,1,1.22-1.67,40.42,40.42,0,0,1,6.48-.9c.5,0,1.39.87,1.54,1.48.88,3.39,1.69,6.82,2.24,10.28a2.83,2.83,0,0,1-1.53,2.3C549,576.76,546.33,577,543.29,577.45Z"/><path class="cls-2" d="M562.14,220.58c-.28,2.8-1.94,4.61-4,6.4a81.06,81.06,0,0,0-6.15,6.53c-1.23-3.2-1.23-3.2,7.26-18.1l-3.46,4.14c-1.49-5.31.09-8.09,5.72-11.28,2.58,3.16,2.53,3.88-.46,11.78l1.38-2,.48.32-.82,2.28Z"/><path class="cls-2" d="M486.17,336c-.17.81-.4,1.95-.64,3.08l-.54,0c-.1-1.45-.21-2.89-.32-4.34h-.43l-.32,7.18-1,.15c-.27-1.46-.46-2.93-.84-4.36a4.71,4.71,0,0,0-1.17-2.19c-4.12-3.78-4.07-6,.9-11.75L480.37,328l.4.24,3.16-5.51.52.13c-.12,1.21-.25,2.41-.38,3.62l.3.11c.26-.61.53-1.23.93-2.14l2.39,1.94c.06-.3.16-.77.33-1.56a8.12,8.12,0,0,1,.62,1c1.24,3.3,2.7,6.61.5,10.06a1.91,1.91,0,0,1-1.33.78C487.3,336.65,486.79,336.23,486.17,336Z"/><path class="cls-2" d="M455.13,763.56c1.72,4.08,1.43,5.06-1.41,5.66l2-3.43-.69-.63c-1.1,3.32-3.75,3.36-6.4,3.49a44.23,44.23,0,0,0-8.88,1.12c1.64,0,3.29.06,4.92,0s3.42-.28,5.14-.29c-8.13,2.94-23.26.18-29.13-5.29,2.66-2.87,5.6.17,8.39-.4s5.94-.13,8.95.32l-9.65.76,0,.42H439l-8.22,2c.05.31.11.62.17.93l17.27-2.74-2.1-.71.11-.52,5,1-.06,1.09-10.16,1.37.1.8c3.34-.42,6.72-.71,10-1.4.64-.13.94-1.86,1.62-3.36Z"/><path class="cls-2" d="M467.79,239.74c.5,1.75,1,3.49,1.64,5.74.22-.72.32-1,.51-1.67,1.41,2.49,2.78,4.76,4,7.11,1,2,1.79,4,2.67,6l-.83.51-1.54-2-.39.36,1,7c-3.69-.09-4.79-2.22-5.66-4.51a76.56,76.56,0,0,1-2.57-7.27c-.81-3-2.2-6.06.61-8.89.43-.43.15-1.55.2-2.35Z"/><path class="cls-2" d="M469.92,230.85c-1.35-1.58-2.67-3.13-4-4.67l-.39.22,3.71,5.55c-5-2.35-6.86-7.37-6.44-17.83.51,1.47,1,2.93,1.55,4.48l2.32-6.29c3,1.43,4,4.44,4.21,8S472.49,227.36,469.92,230.85Z"/><path class="cls-2" d="M360.5,265.57c.76-1.67,1.52-3.36,2.33-5.17,3.37,1,3.6,4.41,4,7.49.44,3.28.43,6.63.62,9.94l-.82.12-2.39-2.21-.32.21,1.69,2.6c-5.65-3.91-8-9.25-6.8-16.72C359.54,263.42,360,264.52,360.5,265.57Z"/><path class="cls-2" d="M497.41,561.72c3.09.34,5.42.46,7.69.93.6.12,1.28,1.21,1.44,2a64.8,64.8,0,0,0,2.4,9.87q-.63-5.67-1.27-11.35l1.23-.15c1.77,4,.92,8.57,1.94,12.71-3.91,1.36-5.46.83-7.24-2.43C501.63,569.66,499.72,566,497.41,561.72Z"/><path class="cls-2" d="M406.55,241.76c-3.95-7-7.86-13.6-10.93-21.3,6.25,1.87,12.54,8.26,14.16,13.8l-5.92-5.52-.44.33c1,1.31,1.92,2.63,2.9,3.92C409.11,236.67,409.75,237.07,406.55,241.76Z"/><path class="cls-2" d="M364.41,289.63c-.11-1-.22-1.94-.34-3.05,1.83,2.75,3.52,5.31,5.23,7.87.51.77,1.05,1.53,1.57,2.3,1.12,1.67,3,3.15,1.21,5.63l-2.5-2.73c.89,2.48,1.6,4.44,2.29,6.37-3.78,1.53-5.2-.93-6.17-3.82-1.18-3.51-2.26-7.05-3.17-10.64-.19-.76.53-1.76.84-2.65Z"/><path class="cls-2" d="M602.11,333.42l-1.46,1.68.16.62,6.32-1.63c-4,6.44-8.12,11.89-15.15,13.81.41-1,1-2.58,1.66-4.14l-.35-.15-1.88,2.92C592.58,340.21,596,335.74,602.11,333.42Z"/><path class="cls-2" d="M442.77,556c-4.44-1.15-9.4.29-13.36-3.19a3.7,3.7,0,0,1-.85-1.24,4.07,4.07,0,0,0-.95-1.6v3.72l-.73.08c-.4-2.21-.8-4.42-1.27-7a82,82,0,0,1,9.49.14c.87.11,2.11,1.86,2.19,2.93.2,2.8,1.32,4.39,4.79,4.82-1.74-2.58-3.25-4.85-4.77-7.11l1.08-.64,4.95,8.38Z"/><path class="cls-2" d="M479.51,308q-.4-5.83-.8-11.68h-.4V307c-3.29-4.47-1-17.11,4.63-24.74-.72,3-1.28,5.29-1.93,8l3.61-5.39c0,3.82.43,7.22-.17,10.42-.33,1.74-2.45,3.12-3.69,4.72a2.76,2.76,0,0,0-.44,1.52c-.05,2.14,0,4.27,0,6.41Z"/><path class="cls-2" d="M481,265.36l-.69-3.87.37-.14a101,101,0,0,1,5,10c.45,1.18-.38,3.22-1.23,4.43-1,1.46-2.72,2.45-4.27,3.77-2.75-4.91-4-9.84-2.75-15.83.41,2.6.75,4.65,1.21,7.54.19-3.22.32-5.57.46-7.92l.61,0,.9,2.16Z"/><path class="cls-2" d="M435.25,363.64c.07,1.28.15,2.57.24,4.09-3.91-1.1-7.39-2.44-9.09-7.32l5.16,3.35V361.3l1.92.58-.31-1.58.72-.47,5.7,7.05c.19-.44.39-.9.62-1.45,4.41,4.16,2.2,9.65,3.45,14.06-5.88-3.61-6.52-9.93-7.23-16.21Z"/><path class="cls-2" d="M640.72,327.65c-.48,2.1-.37,5-1.74,6.68a17.53,17.53,0,0,1-7.07,4.64c-2.37.94-4.74,3.76-8.37,1.12l5.1-2.47-.08-.35-5.36,1.28L623,338c4-2.29,8.06-4.57,12.07-6.89C636.91,330,638.75,328.86,640.72,327.65Z"/><path class="cls-2" d="M562.09,220.62c3.68-3.32,4.87-7.74,5.4-12.43.2-1.82.32-3.64.45-5.12l3.57-.2c1.55,4.09.49,8.4-1.27,12.8.33-.38.68-.74,1-1.14s.5-.88.83-1.47c.26,3.65-4.45,9.09-7.65,8.86-.77,0-1.48-.89-2.24-1.36A.33.33,0,0,1,562.09,220.62Z"/><path class="cls-2" d="M573.39,371c-.62,8.54,1.66,17.62-4.66,25.79C567.47,387.24,567.69,378.64,573.39,371Z"/><path class="cls-2" d="M408.81,545.3c5.17.38,9.27.62,13.35,1.07.5.06,1.21,1.21,1.26,1.89a41.3,41.3,0,0,1-.23,5.17c-4.2-.62-8.42-.9-12.36-2.08C409.8,551,409.62,547.9,408.81,545.3Z"/><path class="cls-2" d="M564.49,239.17l3.63-3.84c-2.41-.76-2.41-.76,1.88-8.82l-1.59,1.11-.56-.22,3.8-9.36c3.16,2.54,3.78,5.32,2.67,8.49-.85,2.45-.85,5.44-2.32,7.36-1.78,2.33-4.72,3.78-7.15,5.6Z"/><path class="cls-2" d="M412.18,228c-.4-.58-.86-1.22-1.32-1.87a28.65,28.65,0,0,1,12.27,18.69c-1.49-1.9-2.93-3.84-4.5-5.67a8.1,8.1,0,0,0-1.95-1.27l-.78,1.45-1.75-2.78c.08,1,.11,1.46.15,1.89l-.35.27L408.76,227Z"/><path class="cls-2" d="M390.09,289.77l1.78,2.74-.43-2.86c.24.07.46.07.51.16a23.77,23.77,0,0,1,3.27,15.91c-.09-1.07-.19-2.13-.28-3.19h-.33l-.18,3.33-.9.2L391.45,298c-.24,2.17-.57,5.11-.91,8.14l-2.34-.88c.25-4.72.54-10.09.84-15.47Z"/><path class="cls-2" d="M490.54,287c-.79-5.92.62-8.49,6.46-12.3v2.67l.64.1c.51-2.14,1.45-4.28,1.44-6.41,0-2.85,1.26-4.57,3.75-6.44l-1.92,3.85c1.46.78,3.58,1.52,3.52,2-.24,1.79-.7,4.54-1.9,5.07A22.36,22.36,0,0,0,490.54,287Z"/><path class="cls-2" d="M503.72,259.56l-13.38,19.59c0,.1-.13-.44-.47-1.58-.65,2.92-1.19,5.31-1.73,7.7-1.38-4.42-1.65-8.77.55-13.17l1.94,1.84c1.84-2.92,3.46-6.2,5.74-8.92,1.94-2.31,4.65-4,7-5.94Z"/><path class="cls-2" d="M366.55,249.84l2.63,3.25c.2-2.14-.54-4.78,2.76-5,.35,0,.9-.35,1-.23,3.87,4.58,6.59,9.61,5.75,16-.56-2.63-1.11-5.26-1.67-7.89l-.4.06.45,4.61-.48.08-.51-2c-.18,1.09-.29,1.81-.44,2.7-1-2.27-1.83-4.33-2.79-6.62l-.17,3.51-.73.43-3.24-3.84-2.1-2.52Z"/><path class="cls-2" d="M496.69,258.76V252.5h-.45c-.35,2.8-.7,5.61-1.16,9.32l-1.37-2.24c-.22.85-.42,1.64-.63,2.44l-.79-.11L494,244.73l.81-.1c.66,1.05,1.32,2.1,2,3.15l.31-.11-1.05-3.61,1-.31A108.45,108.45,0,0,1,500.15,255c.21,1.23-1.44,2.76-2.25,4.16Z"/><path class="cls-2" d="M453.62,547.16c-.67,3.07-1.23,5.65-1.79,8.24l-.65-.07c.24-2.21.47-4.41.71-6.61l-.67-.13a46.47,46.47,0,0,1-.9,5c-.27.95-.9,2.41-1.56,2.52-1.19.2-3.15,0-3.67-.8a73,73,0,0,1-4.2-8.16Z"/><path class="cls-2" d="M395.75,239.49l1.37,1.5c1.6-2.61,3.17-1.8,4.71,0,2.43,2.9,4.87,5.79,7.65,9.09-1.62-.23-2.73-.06-3.33-.53-1-.81-1.68-2-2.93-2.79l3.07,4.7-.39.44c-.89-.81-1.75-1.67-2.68-2.43a9.73,9.73,0,0,0-2.58-1.75C396.13,246.18,395.43,245.14,395.75,239.49Z"/><path class="cls-2" d="M625.69,345.54c-.41,2.06-.83,4.11-1.39,6.88l2.42-3.27c-.43,3.63-2.78,5.72-5.55,7.25-.67.38-2-.71-3.07-.72a36.57,36.57,0,0,0-4.78.61l11.18-11.37Z"/><path class="cls-2" d="M477.87,322.23v2.94l-3-1.23c0,.37-.08,1.1-.12,1.75l-.38.21a22.89,22.89,0,0,1-1.11-13.58l.55,3.27c.24-.77.36-1.15.72-2.28.48,2.07.81,3.48,1.33,5.7v-5.9l2.21.3c1.25,2.78,2.37,6.09.88,10.12l-.65-1.41Z"/><path class="cls-2" d="M615.23,363.5c-.74,2.22-1.34,4-1.93,5.8l1.3-.74c-2,3.38-3.6,7.14-8.24,7.55C606.32,366.63,609,365.47,615.23,363.5Z"/><path class="cls-2" d="M448.87,760.9c4.9-3.22,10.3-6.85,15.82-10.31a7.45,7.45,0,0,1,3.75-.75c.42,0,.85,1.07,1.28,1.65-.5.25-1,.74-1.5.69-4.17-.4-5.19,3.73-7.9,5.41-.06,0,0,.26-.06.29-2.38,1.22-4.67,2.78-7.19,3.52C451.55,761.85,449.67,761,448.87,760.9Z"/><path class="cls-2" d="M366.55,249.84l.06,2.45-.72,4.07-2.85-2,1.54,2.79c-.36.07-.69.25-.82.15a8.47,8.47,0,0,1-2.32-2.12,23.83,23.83,0,0,1-1.86-4.89c-1-3.44-.91-3.45,2.61-3.34a12.71,12.71,0,0,0,.29-1.67Z"/><path class="cls-2" d="M390.3,238.05c-2.43-4.44-2.35-9.29-2.42-14.46l10.66,10.67-.37.48-8-6.69c1.3,2.64,2.57,5.24,3.84,7.84l-1,.73-3.61-3.91c.55,1.7,1.1,3.43,1.66,5.15Z"/><path class="cls-2" d="M509.43,268.75l-2,3.76,3.77-.75c.57,4.12-2.3,6.93-4.05,10.16.15-1.15.31-2.31.54-4L505.49,281C503,277,503.43,275.41,509.43,268.75Z"/><path class="cls-2" d="M626.85,330.81l1.72-2.15-1.61-.22c.64-1.79,8-5.29,9.55-4.4a2.65,2.65,0,0,1,.8,2.33C636.51,329.38,630.38,332.06,626.85,330.81Z"/><path class="cls-2" d="M491.66,233.3c-.05-1.1-.11-2.2-.19-3.76l-1,1.91c-.15-1-.25-1.76-.42-3-.28,1.17-.43,1.82-.45,1.88-1-1.33-2.12-2.8-3.12-4.37-1.31-2-2.2-4.11,1.1-5.27.28-.1.4-.64.44-.71C491.89,223.6,493.75,227.91,491.66,233.3Z"/><path class="cls-2" d="M382.94,266.56c1.69,2.38,3.34,4,4.06,5.91a11.21,11.21,0,0,1-.07,6.36c-.24-.79-.47-1.59-.75-2.53l-1.65.92c-.23-.14-.35-.17-.39-.25a45.44,45.44,0,0,1-3.56-7C380.34,269.24,382,267.85,382.94,266.56Z"/><path class="cls-2" d="M591.21,366.94c-.53-6.33,1.93-11.81,5.44-17-.08.33-.15.67-.23,1s-.16.57-.34,1.19l2.06-1.18C597.58,357.26,592.16,361.19,591.21,366.94Z"/><path class="cls-2" d="M479.38,553.79c-1.19-7.09-.32-8,6.42-7.09C486.13,551.57,484.13,553.78,479.38,553.79Z"/><path class="cls-2" d="M410.61,563.35c-.09-1.64-.15-2.82-.23-4.37,4.08.62,7.81,1.14,11.52,1.81.46.08.78,1,1.16,1.45-.51.37-1,1-1.55,1.06C418,563.39,414.53,563.35,410.61,563.35Z"/><path class="cls-2" d="M542.27,226.27c.05-4.75,1.16-8.73,5.42-11.1C550.37,219.06,547.67,224.67,542.27,226.27Z"/><path class="cls-2" d="M418.77,355.29c-1.18-1.26-2.14-2.93-3.58-3.66-2.08-1.06-2.21-2.6-1.83-4.32.47-2,1.38-4,1.95-6,.22-.81,0-1.72.71-2.73q1.35,8.39,2.68,16.78Z"/><path class="cls-2" d="M492.33,546.31l12.3-.68.69.72c-.53.63-.95,1.64-1.61,1.85-2.65.81-5.36,1.45-8.07,2C492.69,550.85,493.51,548.23,492.33,546.31Z"/><path class="cls-2" d="M557.8,208.41c-.74-3.55,3.5-8.49,8-9.59C565.93,201.57,562,206.31,557.8,208.41Z"/><path class="cls-2" d="M471.09,236.7c1.92,5.18,7.27,8.88,6.71,15.13C472.91,247.93,472.64,242,471.09,236.7Z"/><path class="cls-2" d="M417.85,360.72c1.07.08,2.44-.24,3.14.31,2.11,1.64,5.71,2.41,4.52,6.49-1.62-.44-3.5-.51-4.82-1.41s-2.4-2.74-3.57-4.16Z"/><path class="cls-2" d="M423.63,526.28v-4c-.73,2-1.14,3.15-1.56,4.29l-1.27-.41q1.92-6.69,3.85-13.38l1,.18-.84,13.52Z"/><path class="cls-2" d="M420.24,374.6l.34,1.21c.21.88.72,1.82.54,2.61a4.33,4.33,0,0,1-1.63,2.78,3,3,0,0,1-2.61-1.31,52.6,52.6,0,0,1-.93-7Z"/><path class="cls-2" d="M425.42,349.34l1.39,2.08c.78-.43,1.56-1.19,2-1,1.69.65,2.93,6.3,1.92,8.08C424.62,352.79,425.54,352.79,425.42,349.34Z"/><path class="cls-2" d="M444.67,390c3.87-.51,4.14,2.46,5.21,4.86-3.38.06-3.49,2.38-3.46,4.94C443.85,396.78,444.8,393.3,444.67,390Z"/><path class="cls-2" d="M394.17,256.29c-4.39-3.64-3.95-3.12-2.66-9.11C394.36,247.71,394.36,247.71,394.17,256.29Z"/><path class="cls-2" d="M374,297.39c-4.16-3.53-4.8-8.36-6.43-12.9C371,286.69,374.73,293.89,374,297.39Z"/><path d="M437.41,298c-.71-.41-1.74-.65-2.08-1.27A137.12,137.12,0,0,1,428,281.5q3.8,5.75,7.61,11.49Z"/><path class="cls-2" d="M436.73,569.12l12.26-2c.43,1.57,1.16,3.31-1.17,3.34-3.67,0-7.34-.39-11-.63Z"/><path class="cls-2" d="M554.13,574.88q-1.2-6.39-2.39-12.77l.69-.33a7.34,7.34,0,0,1,1.14,1.7c.94,3,1.9,6.07,2.59,9.17.16.72-.74,1.68-1.15,2.53Z"/><path class="cls-2" d="M390.72,243.34c-3.28-2.47-6.94-4.06-7.56-8.1a5.5,5.5,0,0,1,2-.33,3.6,3.6,0,0,1,2.2,1.22C388.57,238.28,389.48,240.58,390.72,243.34Z"/><path class="cls-2" d="M421.67,342.84c.56,3.07,1.11,6.14,1.71,9.42-4.53-1.1-4.95-1.67-4.46-6.07l1.86,3.28V343Z"/><path class="cls-2" d="M537.84,564.11c.37,4.38.74,8.76,1.17,13.8C536.25,575.31,535.75,568.82,537.84,564.11Z"/><path class="cls-2" d="M382.33,221.78,387,227.4l-3,.87.43,1.7-.49.3c-1-1.46-2.14-2.87-3-4.42-.22-.4.34-1.23.54-1.87l.94.15c-.29-.63-.59-1.26-.88-1.88Z"/><path class="cls-2" d="M475.61,561.69c.26,3.49.55,7,.74,10.48,0,.32-.61.68-.93,1-.46-.46-1.29-.91-1.31-1.39-.11-3.33-.06-6.66-.06-10Z"/><path class="cls-2" d="M428.05,458.44q1.2,7.37,2.42,14.72l-1.37.24-2.39-14.95Z"/><path class="cls-2" d="M385.14,220.23c-3.43-1.91-6.29-3.93-6.67-7.95C381.29,212.57,385.19,217,385.14,220.23Z"/><path class="cls-2" d="M418.7,355.35c1.34.09,3.08-.3,3.91.39a8.8,8.8,0,0,1,2.46,4.85c-3-.9-5.58-2.06-6.31-5.3Z"/><path class="cls-2" d="M583,354.31l5.9-8.82c.41,2,.66,3.17.9,4.32l-6.36,4.83Z"/><path class="cls-2" d="M443,535.52c-2,3.77-4.87,2.72-8.14,2.5C437.14,534.79,439.82,534.93,443,535.52Z"/><path class="cls-2" d="M576.65,204.68c.26,2.21.64,4.41.7,6.62,0,.53-1.06,1.08-1.63,1.63-.39-.7-1.17-1.44-1.1-2.08.24-2,.8-4,1.23-5.94Z"/><path class="cls-2" d="M409.14,536.78l13.46,2.09,0,.14c-2.54,0-5.09,0-7.63,0C409.25,538.94,409.25,538.93,409.14,536.78Z"/><path class="cls-2" d="M589.54,525.83c.27-3.64,2.64-4.52,5.48-5.05C594.87,524.1,593.69,525.18,589.54,525.83Z"/><path class="cls-2" d="M448.18,387.59c3.83-.08,4.84,1.69,4.69,7.59Z"/><path class="cls-2" d="M505.45,554c.1,3.37-1.39,3.71-8.56,2.05Z"/><path class="cls-2" d="M536.29,545.9l-.49,10.58-.87,0c-.16-3.51-.33-7-.49-10.53Z"/><path class="cls-2" d="M359.83,238.3c2.53.7,5.51.89,5.28,5.65L359,239.23Z"/><path class="cls-2" d="M540,577q-.54-6.32-1.1-12.63l.91-.1,1.41,12.6Z"/><path class="cls-2" d="M434.76,562.47c-3.25-.26-6.5,1.93-10.65-.8h10.63C434.74,561.94,434.75,562.2,434.76,562.47Z"/><path class="cls-2" d="M539.4,233.85l-2.63,7.91-.91-.29c-1.21-3.22,1.59-5.32,2.14-8Z"/><path class="cls-2" d="M455.07,538.11l7.84-2.37c-2.5,3.5-3.75,3.94-7.53,3.27Z"/><path class="cls-2" d="M507.67,266c.73-3.15,1.51-6.57,2.23-9.72C511.79,259.13,511,262.83,507.67,266Z"/><path class="cls-2" d="M560.56,389.78c-.2,4.26-.4,8.52-.62,13C558,398.22,558.89,393.94,560.56,389.78Z"/><path class="cls-2" d="M603.38,518.19c-1.22-3.25,1.3-4,2.9-5.47C608,515,607.49,515.91,603.38,518.19Z"/><path class="cls-2" d="M469,536c-1.14,3.64-3.55,3.84-6.25,3.27l-.32-.89Z"/><path class="cls-2" d="M602.15,518l-4.33,4.73-1-.88c-.68-3.33,2.54-3.49,4.4-4.75Z"/><path class="cls-2" d="M582.88,527.54q2.22-2.1,4.45-4.19C587.79,527,586.91,527.87,582.88,527.54Z"/><path class="cls-2" d="M433,557.74l-6.08,2.17-.62-1.64,6.05-2.36C432.55,556.52,432.77,557.13,433,557.74Z"/><path class="cls-2" d="M476.73,538.22l6.38-1.47c-1.26,3.42-3.67,3.08-6.09,2.68Z"/><path class="cls-2" d="M455.45,537.27l-6.28,2.34-.57-1.47,6.17-2.58C455,536.13,455.23,536.7,455.45,537.27Z"/><path class="cls-2" d="M409.37,548.59l-1.66,2.79a13.78,13.78,0,0,1-1.27-3.42c-.08-.81.63-1.71,1-2.57C408,546.39,408.63,547.38,409.37,548.59Z"/><path class="cls-2" d="M541.9,535.14l6.35-3.95.81,1.29-6.37,4.09Z"/><path class="cls-2" d="M522.43,580.56l6.43-1.79c.14.48.27,1,.41,1.44l-6.46,1.89C522.68,581.59,522.55,581.07,522.43,580.56Z"/><path class="cls-2" d="M476.08,537.9l-6.52,2.23C471.39,536.67,472.63,536.23,476.08,537.9Z"/><path class="cls-2" d="M576.56,529.72l4.92-4.12.67.79c-.45,2.79-2.32,4-5.09,4.08Z"/><path class="cls-2" d="M514.52,580.1l6.85-1.54c-1.69,3.18-4.1,3.14-6.66,2.38C514.64,580.66,514.58,580.38,514.52,580.1Z"/><path class="cls-2" d="M394.63,214.62l7.84,4.58a49.16,49.16,0,0,1-6.86-1.16c-.76-.25-1.17-1.62-1.74-2.47Z"/><path class="cls-2" d="M494.29,543.22,488,544.83l-.4-1.38,6.18-1.8C494,542.17,494.12,542.69,494.29,543.22Z"/><path class="cls-2" d="M436,535.85l-6.2,2.2C431.39,534.37,432.45,534,436,535.85Z"/><path class="cls-2" d="M534.58,537.34l6.08-4,.79,1.23-6.11,4Z"/><path class="cls-2" d="M415.34,528c-1.69,1.53-3.32,3.28-6.63.87l6.27-2Z"/><path class="cls-2" d="M520.79,538.55l6.19-2.34.54,1.32-6.15,2.65C521.18,539.63,521,539.09,520.79,538.55Z"/><path class="cls-2" d="M467.37,575.32l6.43-.91L474,576l-6.45.78Z"/><path class="cls-2" d="M508.65,290.63c-.42-2.76-.72-4.76-1-6.76C510.9,285.53,510.87,287.58,508.65,290.63Z"/><path class="cls-2" d="M516.57,548l-6.38,3.05c-.22-.47-.45-.93-.68-1.4l6.29-3Z"/><path class="cls-2" d="M441.61,565.36l5-3.32.91,1.43-5.11,3.17Z"/><path class="cls-2" d="M429.49,566.22l5.49-2.33.61,1.32-5.37,2.8Z"/><path class="cls-2" d="M443,537.26l5.66-1.93.34,1c-1.46,1.78-3.07,3.19-5.64,2.13Z"/><path class="cls-2" d="M434.12,253.34l-6.52-8.56C431,245.94,434.06,250.22,434.12,253.34Z"/><path class="cls-2" d="M484.35,538.58l6.18-1.64c-1.27,3.38-3.65,2.92-6,2.67Z"/><path class="cls-2" d="M498.35,539l5.7-1.55.42,1.62-5.73,1.43Z"/><path class="cls-2" d="M528.27,538.18l5.87-3.35.75,1.34L529,539.49Z"/><path class="cls-2" d="M440.66,543.93l5.31-1.84c.17.47.35.93.53,1.4l-5.24,2.11Z"/><path class="cls-2" d="M421.1,529.33l-5.76,2.21-.58-1.57,5.86-2Z"/><path class="cls-2" d="M539.37,541.54l-6.16,3.75C534.14,542,534.14,542,539.37,541.54Z"/><path class="cls-2" d="M491.62,538.85l5.3-1.56.46,1.41-5.24,1.75C492,539.92,491.8,539.38,491.62,538.85Z"/><path class="cls-2" d="M548.54,537.94l6.17-4.37c-.72,3.07-1.31,3.56-5.61,5.11Z"/><path class="cls-2" d="M429.26,535.62,424,537.23l-.49-1.52,5.2-1.75C428.91,534.52,429.09,535.07,429.26,535.62Z"/><path class="cls-2" d="M435.54,566.05l5.43-3.22.75,1.24-5.32,3.39C436.12,567,435.83,566.52,435.54,566.05Z"/><path class="cls-2" d="M582.24,593.48c.21-1,.1-2.41.71-2.89s2-.21,3.06-.26l.26.93-2.9,2.54Z"/><path class="cls-2" d="M423.09,535.2l-4.78,1.57c.53-3.13,2.39-3,4.37-2.69C422.82,534.46,423,534.83,423.09,535.2Z"/><path class="cls-2" d="M468.56,559.33l5.91-2.51c.18.38.35.75.52,1.13l-5.82,2.83Z"/><path class="cls-2" d="M452.93,543.94l-5.64,1.56-.41-1.33,5.59-1.87C452.62,542.84,452.78,543.39,452.93,543.94Z"/><path class="cls-2" d="M448,564l5.4-3.12.75,1.27-5.38,3.16Z"/><path class="cls-2" d="M531.4,543.83,526.09,547c.09-4.06,3.07-3,4.87-4Z"/><path class="cls-2" d="M421.29,558l4.95-2.57.7,1.31L422,559.47C421.75,559,421.52,558.48,421.29,558Z"/><path class="cls-2" d="M416.73,557.23l5-2.5.64,1.25-5,2.76Z"/><path class="cls-2" d="M495.55,552.85,501,550.5l.57,1.11-5.33,2.9Z"/><path class="cls-2" d="M432.58,558.88l5-2.12c.2.46.39.91.58,1.37l-4.95,2.13Z"/><path class="cls-2" d="M444.75,532.27l-5.5,1.2-.29-1.31,5.44-1.39Z"/><path class="cls-2" d="M431.89,531.08l-5.82,1.4-.36-1.32,5.71-1.74C431.58,530,431.73,530.53,431.89,531.08Z"/><path class="cls-2" d="M495.83,542.94l6.49-1.1.24,1.31L496,544.36Z"/><path class="cls-2" d="M447.15,573.12l6-.84c-1.61,2.65-1.62,2.66-5.87,1.9Z"/><path class="cls-2" d="M508,579.56,513.5,578c.13.46.27.92.4,1.38l-5.47,1.65Z"/><path class="cls-2" d="M389.8,218.67l-6.94-5.75.73-.85,6.8,5.91Z"/><path class="cls-2" d="M611.32,508.29c-.49,1.54-1,3.09-1.46,4.63l-1.41-.36c-1.48-2,.92-3.1,1.74-4.57Z"/><path class="cls-2" d="M475,547.17v7.66h-.7v-7.67Z"/><path class="cls-2" d="M502.62,551.59l5.13-2.89.65,1.09-5,3.05Z"/><path class="cls-2" d="M420.3,530.78l5.11-2.06.48,1.15-5,2.37Z"/><path class="cls-2" d="M407.71,532.73l5.21-.61c-1.57,3.52-3.33,2.51-5,1.86C407.84,533.56,407.77,533.14,407.71,532.73Z"/><path class="cls-2" d="M454.37,543.8l5.11-1.36c-.94,2.94-2.85,2.76-4.81,2.43Z"/><path class="cls-2" d="M445.47,573.39l-5.76.64c-.07-.42-.13-.85-.2-1.28l5.73-.85C445.32,572.4,445.39,572.89,445.47,573.39Z"/><path class="cls-2" d="M460.62,574.62l6-1.23C464.71,576.37,464,576.55,460.62,574.62Z"/><path class="cls-2" d="M480.7,543.51l5.57-1.71.4,1.42-5.61,1.56Z"/><path class="cls-2" d="M435.17,544.07l4.57-2,.59,1.29-4.51,2.15C435.6,545,435.39,544.54,435.17,544.07Z"/><path class="cls-2" d="M414.09,543l4.58-2.33.65,1.24-4.5,2.48Z"/><path class="cls-2" d="M467,543.8l5.36-1.51c.12.44.25.88.37,1.32l-5.36,1.6Z"/><path class="cls-2" d="M443.94,558.85l-5,1.53-.43-1.39,5-1.56C443.65,557.9,443.79,558.38,443.94,558.85Z"/><path class="cls-2" d="M423.1,566.74l5.12-2.06c.19.48.37,1,.56,1.42l-5.14,2Z"/><path class="cls-2" d="M507.12,579.19l-5.24,1.07c-.1-.41-.21-.81-.31-1.22l5.11-1.42Z"/><path class="cls-2" d="M438.12,531.5l-5,1.51-.41-1.3,5.08-1.59C437.87,530.58,438,531,438.12,531.5Z"/><path d="M519.09,373.61a20.12,20.12,0,0,1,2.5-18.12c4.22-6.33,8.63-12.46,9.42-20.34,0-.41.53-.78,1.22-1.73l4.95,34-1,.2q-1.94-9.47-3.86-18.95l-.67.06c-.56,1.7-1.11,3.4-1.82,5.55-.19-1.73-.33-3-.55-4.93l-3.71,5.75-.33-.18.37-1.59-.71-.33c-1.55,3.23-3.55,6.33-4.51,9.73S519.49,370,519.09,373.61Z"/><path d="M516.78,429l2.31,8.35h.44c.08-1.42.16-2.84.25-4.25l-.62.18q3.23,13.62,6.46,27.24c-2.93,0-3.32-1.34-3.69-4.1a77.66,77.66,0,0,0-4.73-17c-.1,1.07-.21,2.14-.32,3.23l-1.22-3.23-1.26,0c-2.9,7.6-3.66,15.61-3.63,23.9C507.77,458.33,511.72,434.05,516.78,429Z"/><path d="M536.71,511.09c-1.23,3.65-2.38,7.32-3.76,10.91-.21.54-1.47.82-2.29.94-.39.06-1.29-.58-1.26-.8.12-.87.29-2.17.87-2.46,3.38-1.7,4.21-5,5.45-8.06.11-.25.24-.48.36-.73Z"/><path d="M518.61,467.75q-.74,8.72-1.45,17.43h-.51l-.21-2.64-.38,0c-.16.89-.31,1.79-.46,2.69l-.77-.15q1.59-8.64,3.19-17.26Z"/><path d="M525.29,343.4q2.38-10.93,4.78-21.86l.73.15q-2.25,11-4.51,21.93Z"/><path d="M536.29,388.76q1.31-10.62,2.59-21.22l.66.07-2.31,21.25Z"/><path d="M509.68,420.18q2.26-10.83,4.55-21.64l.57.11-4.21,21.77Z"/><path d="M517.62,348.79c-.45-3.43-.83-6.37-1.21-9.3C516.31,342.54,521.27,344.77,517.62,348.79Z"/><path d="M513.29,450.59c-.07.81-.14,1.62-.22,2.43l-1,10-.75-.07c.18-2.13.29-4.27.54-6.4s.61-4.07.92-6.1Z"/><path d="M520,373.13c.47-3.11.93-6.23,1.39-9.34l.57.08-1,9.44Z"/><path d="M514.38,745.66c-.38-45.54,3.62-91.14-3.29-136.54l.81-.06c.42,2.64.88,5.28,1.25,7.93s.65,5.34,1,8.36l.88-1.15c1.43,36.43,1.34,73.13.08,109.83C515,737.91,514.63,741.78,514.38,745.66Z"/><path d="M494.83,636.34v94.14h-.42V636.34Z"/><path d="M481.54,671.48a273.84,273.84,0,0,1,.47,79.63A423.68,423.68,0,0,0,481.54,671.48Z"/><path d="M510,685.85V632.26C512,635.47,512.46,666.82,510,685.85Z"/><path d="M512.75,706.83q-.76,20.49-1.54,41l-1,0q.69-20.49,1.37-41Z"/><path d="M509.14,611.37q-1.15-9.25-2.33-18.51l.75-.09,2.25,18.44Z"/><path d="M463.53,436.93c.56-1.93,1.12-3.86,1.62-5.54a4.54,4.54,0,0,0,1,.07,8.34,8.34,0,0,0,.45-2.4c-.23-8.31-3.39-15.82-6.69-23.31l.39,3.55-.34.08q-.9-3.44-1.78-6.86l-.73.1-.7,2.24c0-3.12-.06-6.7.05-10.27,0-.63.79-1.23,1.21-1.85.54.54,1.39,1,1.58,1.62,2.93,9.8,5.93,19.58,8.59,29.45,1.54,5.74.15,11-4.42,15.67l-.13-2.66Z"/><path d="M462,373.45q2.07,14.22,4.15,28.42l-.75.12-4.56-28.41Z"/><path d="M429.61,307.06q-3.53-9.13-7.06-18.28l.76-.3q3.63,9.11,7.27,18.2Z"/><path d="M441.67,337.56c-4.74-.26-6.23-1.82-7.46-7.52,1.47,1.62,2.44,2.78,3.5,3.84S439.94,336,441.67,337.56Z"/><path d="M459.61,330.55v-16h.69V330.5Z"/><path d="M464.94,368.86c-3.58-1.06-1.69-3.37-1.61-5.16.14.91.28,1.82.41,2.73l.39,0c.13-2.4.27-4.79.4-7.19l.41,0Z"/><path d="M467.21,395.57l-2.4-16,.86-.12q1,8,2.08,16.08Z"/><path d="M463.63,436.82c-.42-.34-1.23-.71-1.21-1,.21-4.29.54-8.58,1.11-12.88v14Z"/><path d="M410.69,444.55l-1.12-1.49.63.06c.23-2.21.46-4.41.71-6.88l.72,1.76c.12-.6.22-1.08.39-1.86.47,1,.85,1.87,1.55,3.44.18-1.5.27-2.3.36-3.09l1.64,1.85c1.4-5.7-1.76-9.11-4.24-12.76-2.2-3.24-4.26-6.65-9.11-6.37.23,1.19.49,2.52.9,4.59l-1.7-3c-1.54,6.34-3,12.4-4.47,18.45l-1-.11a9.62,9.62,0,0,1,0-2.46c2.15-7.83,3.61-15.73,2.84-23.93-.09-.93.75-2,1.16-2.94a9.73,9.73,0,0,1,2.4,1.59c3.75,4.55,7.46,9.13,11.05,13.8a33.89,33.89,0,0,1,3.38,5.57c2.41,4.8,1.82,7-2.37,10.37C413.07,442.19,411.85,443.47,410.69,444.55Z"/><path d="M421,456q1.39,11.6,2.77,23.2l-.55.07q-1.56-11.6-3.1-23.19Z"/><path d="M406.82,399.38q2,6.71,4.06,13.39l-.83.24-3.9-13.43Z"/><path d="M391.36,403.59l-2.64-13.45.85-.16q1.15,6.75,2.32,13.51Z"/><path d="M416.16,424.6l-3.05-13,.54-.14L417,424.32Z"/><path d="M380.84,343.77q-1.5-6.11-3-12.21l.83-.19q1.38,6.15,2.78,12.3Z"/><path d="M493.55,395.43c2.27,21.23,6.66,42.27,6,62.21-2.18-19.68-4.53-40.88-6.87-62.08Z"/><path d="M495.46,436.38q.65,9.42,1.28,18.85l-.75,0q-.8-9.37-1.57-18.75Z"/><path d="M482.78,350.63q1.82,7.37,3.64,14.74l-1,.4L482.48,361l.66-.41,1.18,2.19.5-.2-2.76-11.79Z"/><path d="M474.83,334.86q1.16,5.07,2.32,10.13l-.36.12c-.71-2.17-1.43-4.35-2.36-7.21-.22,1.48-.34,2.27-.46,3.06l-.66,0c.11-2,.21-4,.38-6,0,0,.81,0,1.24,0Z"/><path d="M482.48,457.14q-.42-6.27-.85-12.55l.69-.07q.69,6.25,1.37,12.51Z"/><path d="M492.7,366.9v9.51l-1.15,0q.26-4.75.53-9.51Z"/><path d="M477,419.18l-1.59-10.87,1-.13,1.3,10.9Z"/><path d="M474.32,360.33q1.53,5.13,3,10.24C475,367.55,474.32,364,474.32,360.33Z"/><path d="M494.78,348.82l1.65-10.41.6.09L495.74,349Z"/><path d="M570.4,481.44c-3.64-4.92,2.26-6.62,1.9-10.09,0-.46.29-1,1.05-1.27C572.42,473.68,571.48,477.28,570.4,481.44Z"/><path d="M543.56,499.88q.93-7.9,1.87-15.82l.55.05q-.71,8-1.42,16Z"/><path d="M598.05,362.7c-.37,5.85-.37,5.85-2.7,6.68Z"/><path d="M566.33,398.31c-.43,1.5-.85,3-1.28,4.5l-1.25-.26c.23-1.87.46-3.73.73-5.89l1.9,1.75Z"/><path d="M559.25,432.24v-9.36h.59c.21,3.46.42,6.92.64,10.48l-1.29-1.19S559.25,432.24,559.25,432.24Z"/><path d="M571.78,413v14.55h-.42V413Z"/><path d="M585.12,396.27l6.89-7.33.56.52-6.84,7.37Z"/><path d="M444.26,498.25V518.8h-.44V498.25Z"/><path d="M431.48,459.13l.58-1.31c.12.09.31.16.35.27q.68,2.39,1.33,4.77l-1.34.4q-1.59-3.69-3.16-7.37l.5-.25C430.3,456.75,430.85,457.86,431.48,459.13Z"/><path d="M449.53,451.56v7.21C446.35,458.09,446.43,456,449.53,451.56Z"/><path d="M453.17,410l-.8,13.9-.93-.06,1.2-14Z"/><path d="M528.44,728.88l-2.23-31.49,1.06-.14a23.4,23.4,0,0,1,.35,2.33c.21,3.93-.62,8.28.8,11.7C531,717.39,527.74,723.14,528.44,728.88Z"/><path d="M539.7,620.7l-.87-16.08.54,0,1.23,16.14Z"/><path d="M525.61,629.08c1.55,10.65.07,21.13-1.34,31.62Q524.95,644.89,525.61,629.08Z"/><path d="M540,261.1l-2.23.49c.69-6.24,1.35-12.24,2-18.24l.22.06Z"/><path d="M435.57,398.81A29.83,29.83,0,0,1,428.11,383l.79-.38c.42.92.83,1.85,1.28,2.76,1.62,3.26,3.35,6.46,4.84,9.78A13.46,13.46,0,0,1,435.57,398.81Z"/><path d="M537.85,751.18l5.16.7v.41l-17.13.93,0-.6,12.12-1.49Z"/><path d="M533.09,756.31c4.94-2.54,11.76,1.61,16.2-3.52.46,1.81-.48,3.32-3.22,3.46C541.71,756.48,537.33,756.31,533.09,756.31Z"/></svg>