<svg xmlns="http://www.w3.org/2000/svg" viewBox="0 0 24 25"><g id="Layer_2" data-name="Layer 2"><g id="Layer_1-2" data-name="Layer 1"><path d="M15.69,4.3C14.08,6.36,13.1,6.64,12.5,6.17s-.6-1.52,1-3.58A1.39,1.39,0,1,1,15.69,4.3Z" fill="none" stroke="#231f20" stroke-miterlimit="10"/><path d="M9.68,6.2c-.6.47-1.65.16-3.26-1.9A1.39,1.39,0,1,1,8.6,2.59C10.21,4.65,10.28,5.73,9.68,6.2Z" fill="none" stroke="#231f20" stroke-miterlimit="10"/><rect y="0.5" width="24" height="24" fill="none"/><path d="M12.5,1.89c0,2.61-.62,4-1.38,4s-1.39-1.37-1.39-4a1.39,1.39,0,1,1,2.77,0Z" fill="none" stroke="#231f20" stroke-miterlimit="10"/><path d="M14.86,10.08c0,8-1.68,14.42-3.74,14.42S7.38,18.05,7.38,10.08a4,4,0,0,1,3.74-4.21A4,4,0,0,1,14.86,10.08Z" fill="none" stroke="#231f20" stroke-miterlimit="10"/><line x1="14.74" y1="11.61" x2="11.07" y2="11.61" fill="#fff" stroke="#231f20" stroke-linecap="round" stroke-miterlimit="10"/><line x1="14.74" y1="13.68" x2="11.9" y2="13.68" fill="#fff" stroke="#231f20" stroke-linecap="round" stroke-miterlimit="10"/><line x1="14.34" y1="15.83" x2="10.36" y2="15.83" fill="#fff" stroke="#231f20" stroke-linecap="round" stroke-miterlimit="10"/></g></g></svg>